{
.appVersion = "1119";
copyright = "Copyright (c) 2010-2016, Khaled Hosny <khaledhosny@eglug.org>.\012Portions copyright (c) 2010, Sebastian Kosch <sebastian@aldusleaf.org>.";
customParameters = (
{
name = licenseURL;
value = "http://scripts.sil.org/OFL";
},
{
name = license;
value = "This Font Software is licensed under the SIL Open Font License, Version 1.1. This Font Software is distributed on an \"AS IS\" BASIS, WITHOUT WARRANTIES OR CONDITIONS OF ANY KIND, either express or implied. See the SIL Open Font License for the specific language, permissions and limitations governing your use of this Font Software.";
},
{
name = vendorID;
value = "BLQ ";
},
{
name = panose;
value = (
0,
0,
5,
0,
0,
0,
0,
0,
0,
0
);
},
{
name = unicodeRanges;
value = (
0,
1,
2,
3,
5,
6,
13,
29,
31,
33,
38,
45,
57,
63,
67
);
},
{
name = codePageRanges;
value = (
1252,
1250,
1254,
1256,
1257,
864
);
},
{
name = glyphOrder;
value = (
.notdef,
.null,
CR,
space,
exclam,
quotedbl,
numbersign,
dollar,
percent,
ampersand,
quotesingle,
parenleft,
parenright,
asterisk,
plus,
comma,
hyphen,
period,
slash,
zero,
one,
two,
three,
four,
five,
six,
seven,
eight,
nine,
colon,
semicolon,
less,
equal,
greater,
question,
at,
A,
B,
C,
D,
E,
F,
G,
H,
I,
J,
K,
L,
M,
N,
O,
P,
Q,
R,
S,
T,
U,
V,
W,
X,
Y,
Z,
bracketleft,
backslash,
bracketright,
asciicircum,
underscore,
grave,
a,
b,
c,
d,
e,
f,
g,
h,
i,
j,
k,
l,
m,
n,
o,
p,
q,
r,
s,
t,
u,
v,
w,
x,
y,
z,
braceleft,
bar,
braceright,
asciitilde,
exclamdown,
cent,
sterling,
currency,
yen,
brokenbar,
section,
dieresis,
copyright,
ordfeminine,
guillemotleft,
logicalnot,
uni00AD,
registered,
macron,
degree,
plusminus,
uni00B2,
uni00B3,
acute,
mu,
paragraph,
periodcentered,
cedilla,
uni00B9,
ordmasculine,
guillemotright,
onequarter,
onehalf,
threequarters,
questiondown,
Agrave,
Aacute,
Acircumflex,
Atilde,
Adieresis,
Aring,
AE,
Ccedilla,
Egrave,
Eacute,
Ecircumflex,
Edieresis,
Igrave,
Iacute,
Icircumflex,
Idieresis,
Eth,
Ntilde,
Ograve,
Oacute,
Ocircumflex,
Otilde,

glyphs = (
{
glyphname = .notdef;
lastChange = "2018-03-06 12:35:50 +0000";
layers = (
{
layerId = "A76CE8C3-CC1A-4246-BAA7-4C4431E1D24E";
paths = (
{
closed = 1;
nodes = (
"306 683 LINE",
"34 683 LINE",
"34 0 LINE",
"306 0 LINE"
);
},
{
closed = 1;
nodes = (
"272 649 LINE",
"272 34 LINE",
"68 34 LINE",
"68 649 LINE"
);
}
);
width = 374;
}
);
note = .notdef;
changeCount = 1;
},
{
glyphname = quotedbl;
lastChange = "2018-03-06 12:35:50 +0000";
layers = (
{
layerId = "A76CE8C3-CC1A-4246-BAA7-4C4431E1D24E";
paths = (
{
closed = 1;
nodes = (
"159 599 OFFCURVE",
"194 479 QCURVE",
"197 473 OFFCURVE",
"203 473 QCURVE",
"217 480 OFFCURVE",
"223 492 QCURVE",
"228 531 OFFCURVE",
"237 664 OFFCURVE",
"237 686 QCURVE",
"227 699 OFFCURVE",
"211 699 QCURVE SMOOTH",
"189 699 OFFCURVE",
"159 653 OFFCURVE",
"159 629 QCURVE SMOOTH"
);
},
{
closed = 1;
nodes = (
"39 599 OFFCURVE",
"74 479 QCURVE",
"77 473 OFFCURVE",
"83 473 QCURVE",
"97 480 OFFCURVE",
"103 492 QCURVE",
"108 531 OFFCURVE",
"117 664 OFFCURVE",
"117 686 QCURVE",
"107 699 OFFCURVE",
"91 699 QCURVE SMOOTH",
"69 699 OFFCURVE",
"39 653 OFFCURVE",
"39 629 QCURVE SMOOTH"
);
}
);
width = 280;
}
);
leftKerningGroup = quotedbl;
note = quotedbl;
rightKerningGroup = quotedbl;
unicode = 0022;
changeCount = 1;
},
{
glyphname = numbersign;
lastChange = "2018-03-06 12:35:50 +0000";
layers = (
{
layerId = "A76CE8C3-CC1A-4246-BAA7-4C4431E1D24E";
paths = (
{
closed = 1;
nodes = (
"414 369 LINE",
"420 372 OFFCURVE",
"428 396 OFFCURVE",
"426 418 OFFCURVE",
"420 418 QCURVE SMOOTH",
"356 418 LINE",
"374 528 LINE",
"369 531 OFFCURVE",
"361 531 QCURVE SMOOTH",
"354 531 OFFCURVE",
"346 530 OFFCURVE",
"341 525 OFFCURVE",
"340 523 OFFCURVE",
"339 518 QCURVE",
"323 418 LINE",
"195 418 LINE",
"213 528 LINE",
"208 531 OFFCURVE",
"200 531 QCURVE SMOOTH",
"193 531 OFFCURVE",
"185 530 OFFCURVE",
"180 525 OFFCURVE",
"179 523 OFFCURVE",
"178 518 QCURVE",
"162 418 LINE",
"94 418 LINE",
"88 416 OFFCURVE",
"79 392 OFFCURVE",
"79 369 OFFCURVE",
"85 369 QCURVE SMOOTH",
"154 369 LINE",
"131 227 LINE",
"67 227 LINE",
"61 225 OFFCURVE",
"51 200 OFFCURVE",
"51 180 OFFCURVE",
"57 178 QCURVE",
"123 178 LINE",
"106 68 LINE",
"106 67 LINE SMOOTH",
"107 66 OFFCURVE",
"112 64 OFFCURVE",
"117 64 QCURVE SMOOTH",
"127 64 OFFCURVE",
"139 73 OFFCURVE",
"140 77 QCURVE",
"156 178 LINE",
"284 178 LINE",
"267 68 LINE",
"267 67 LINE SMOOTH",
"268 66 OFFCURVE",
"273 64 OFFCURVE",
"278 64 QCURVE SMOOTH",
"288 64 OFFCURVE",
"301 73 OFFCURVE",
"302 77 QCURVE",
"318 178 LINE",
"386 178 LINE",
"392 181 OFFCURVE",
"401 205 OFFCURVE",
"399 227 OFFCURVE",
"393 227 QCURVE SMOOTH",
"326 227 LINE",
"348 369 LINE"
);
},
{
closed = 1;
nodes = (
"187 369 LINE",
"315 369 LINE",
"292 227 LINE",
"164 227 LINE"
);
}
);
width = 480;
}
);
note = numbersign;
unicode = 0023;
changeCount = 1;
},
{
glyphname = dollar;
lastChange = "2018-03-06 12:35:50 +0000";
layers = (
{
layerId = "A76CE8C3-CC1A-4246-BAA7-4C4431E1D24E";
paths = (
{
closed = 1;
nodes = (
"268 639 OFFCURVE",
"257 639 QCURVE SMOOTH",
"209 639 OFFCURVE",
"123 598 OFFCURVE",
"69 519 OFFCURVE",
"69 470 QCURVE SMOOTH",
"69 448 OFFCURVE",
"81 407 OFFCURVE",
"107 372 OFFCURVE",
"133 345 OFFCURVE",
"175 315 OFFCURVE",
"203 298 OFFCURVE",
"226 284 QCURVE",
"185 36 LINE",
"160 47 OFFCURVE",
"121 84 OFFCURVE",
"100 127 OFFCURVE",
"90 155 OFFCURVE",
"87 168 QCURVE",
"85 173 OFFCURVE",
"76 173 QCURVE SMOOTH",
"71 173 OFFCURVE",
"54 168 OFFCURVE",
"51 165 QCURVE",
"51 156 OFFCURVE",
"66 57 OFFCURVE",
"74 18 QCURVE",
"169 -3 OFFCURVE",
"179 -4 QCURVE",
"172 -43 LINE",
"172 -48 OFFCURVE",
"197 -52 OFFCURVE",
"207 -52 QCURVE",
"214 -9 LINE",
"231 -10 OFFCURVE",
"247 -10 QCURVE SMOOTH",
"299 -10 OFFCURVE",
"390 33 OFFCURVE",
"448 115 OFFCURVE",
"448 166 QCURVE SMOOTH",
"448 184 OFFCURVE",
"438 216 OFFCURVE",
"424 242 OFFCURVE",
"399 270 OFFCURVE",
"378 289 OFFCURVE",
"345 312 OFFCURVE",
"324 325 OFFCURVE",
"289 346 OFFCURVE",
"281 351 QCURVE",
"280 352 OFFCURVE",
"275 355 OFFCURVE",
"274 356 QCURVE",
"313 587 LINE",
"341 568 OFFCURVE",
"379 505 OFFCURVE",
"382 477 QCURVE",
"387 472 OFFCURVE",
"396 472 QCURVE SMOOTH",
"408 472 OFFCURVE",
"414 476 QCURVE",
"414 478 OFFCURVE",
"413 523 OFFCURVE",
"412 549 OFFCURVE",
"406 595 OFFCURVE",
"402 612 QCURVE",
"384 616 OFFCURVE",
"332 630 OFFCURVE",
"320 633 QCURVE",
"327 676 LINE",
"327 683 OFFCURVE",
"292 683 QCURVE",
"285 638 LINE"
);
},
{
closed = 1;
nodes = (
"364 86 OFFCURVE",
"297 24 OFFCURVE",
"249 24 QCURVE SMOOTH",
"232 24 OFFCURVE",
"220 26 QCURVE",
"260 265 LINE",
"275 257 OFFCURVE",
"282 253 OFFCURVE",
"308 238 OFFCURVE",
"316 232 OFFCURVE",
"336 216 OFFCURVE",
"343 206 OFFCURVE",
"356 189 OFFCURVE",
"360 173 OFFCURVE",
"364 152 OFFCURVE",
"364 140 QCURVE SMOOTH"
);
},
{
closed = 1;
nodes = (
"146 519 OFFCURVE",
"156 554 OFFCURVE",
"178 587 OFFCURVE",
"221 606 OFFCURVE",
"251 606 QCURVE SMOOTH",
"266 606 OFFCURVE",
"279 603 QCURVE",
"241 376 LINE",
"219 390 OFFCURVE",
"191 411 OFFCURVE",
"161 442 OFFCURVE",
"146 478 OFFCURVE",
"146 500 QCURVE SMOOTH"
);
}
);
width = 498;
}
);
note = dollar;
unicode = 0024;
changeCount = 1;
},
{
glyphname = percent;
lastChange = "2018-03-06 12:35:50 +0000";
layers = (
{
layerId = "A76CE8C3-CC1A-4246-BAA7-4C4431E1D24E";
paths = (
{
closed = 1;
nodes = (
"271 453 OFFCURVE",
"264 411 OFFCURVE",
"248 373 OFFCURVE",
"217 350 OFFCURVE",
"196 350 QCURVE SMOOTH",
"160 350 OFFCURVE",
"104 443 OFFCURVE",
"104 496 QCURVE SMOOTH",
"104 528 OFFCURVE",
"120 582 OFFCURVE",
"158 621 OFFCURVE",
"186 621 QCURVE SMOOTH",
"211 621 OFFCURVE",
"251 576 OFFCURVE",
"271 511 OFFCURVE",
"271 476 QCURVE SMOOTH"
);
},
{
closed = 1;
nodes = (
"40 418 OFFCURVE",
"128 325 OFFCURVE",
"190 325 QCURVE SMOOTH",
"234 325 OFFCURVE",
"303 372 OFFCURVE",
"337 444 OFFCURVE",
"337 484 QCURVE SMOOTH",
"337 551 OFFCURVE",
"254 645 OFFCURVE",
"190 645 QCURVE SMOOTH",
"125 645 OFFCURVE",
"40 552 OFFCURVE",
"40 484 QCURVE SMOOTH"
);
},
{
closed = 1;
nodes = (
"559 121 OFFCURVE",
"552 79 OFFCURVE",
"536 41 OFFCURVE",
"506 18 OFFCURVE",
"485 18 QCURVE SMOOTH",
"449 18 OFFCURVE",
"392 111 OFFCURVE",
"392 164 QCURVE SMOOTH",
"392 196 OFFCURVE",
"408 250 OFFCURVE",
"447 289 OFFCURVE",
"475 289 QCURVE SMOOTH",
"500 289 OFFCURVE",
"540 244 OFFCURVE",
"559 179 OFFCURVE",
"559 144 QCURVE SMOOTH"
);
},
{
closed = 1;
nodes = (
"328 86 OFFCURVE",
"416 -7 OFFCURVE",
"478 -7 QCURVE SMOOTH",
"544 -7 OFFCURVE",
"625 89 OFFCURVE",
"625 152 QCURVE SMOOTH",
"625 219 OFFCURVE",
"543 313 OFFCURVE",
"479 313 QCURVE SMOOTH",
"413 313 OFFCURVE",
"328 220 OFFCURVE",
"328 152 QCURVE SMOOTH"
);
},
{
closed = 1;
nodes = (
"556 636 OFFCURVE",
"546 624 QCURVE",
"64 -1 LINE",
"70 -12 OFFCURVE",
"82 -12 QCURVE SMOOTH",
"91 -12 OFFCURVE",
"112 -4 OFFCURVE",
"115 0 QCURVE SMOOTH",
"598 624 LINE",
"596 626 OFFCURVE",
"591 633 OFFCURVE",
"588 635 OFFCURVE",
"577 636 OFFCURVE",
"566 636 QCURVE SMOOTH"
);
}
);
width = 667;
}
);
note = percent;
unicode = 0025;
changeCount = 1;
},
{
glyphname = ampersand;
lastChange = "2018-03-06 12:35:50 +0000";
layers = (
{
layerId = "A76CE8C3-CC1A-4246-BAA7-4C4431E1D24E";
paths = (
{
closed = 1;
nodes = (
"221 40 OFFCURVE",
"139 106 OFFCURVE",
"139 172 QCURVE SMOOTH",
"139 193 OFFCURVE",
"152 230 OFFCURVE",
"167 255 OFFCURVE",
"200 284 OFFCURVE",
"220 299 OFFCURVE",
"242 314 QCURVE",
"269 274 LINE SMOOTH",
"295 234 OFFCURVE",
"377 125 OFFCURVE",
"406 95 QCURVE",
"383 70 OFFCURVE",
"312 40 OFFCURVE",
"281 40 QCURVE SMOOTH"
);
},
{
closed = 1;
nodes = (
"385 493 OFFCURVE",
"360 439 OFFCURVE",
"321 405 OFFCURVE",
"286 385 QCURVE",
"234 479 OFFCURVE",
"234 543 QCURVE SMOOTH",
"234 577 OFFCURVE",
"280 620 OFFCURVE",
"313 620 QCURVE SMOOTH",
"345 620 OFFCURVE",
"385 566 OFFCURVE",
"385 530 QCURVE SMOOTH"
);
},
{
closed = 1;
nodes = (
"161 487 OFFCURVE",
"181 421 OFFCURVE",
"201 382 OFFCURVE",
"219 350 QCURVE",
"183 332 OFFCURVE",
"131 298 OFFCURVE",
"80 251 OFFCURVE",
"53 193 OFFCURVE",
"53 158 QCURVE SMOOTH",
"53 83 OFFCURVE",
"159 -3 OFFCURVE",
"247 -3 QCURVE SMOOTH",
"295 -3 OFFCURVE",
"391 39 OFFCURVE",
"429 72 QCURVE",
"435 65 LINE SMOOTH",
"441 57 OFFCURVE",
"464 36 OFFCURVE",
"492 15 OFFCURVE",
"528 0 OFFCURVE",
"544 0 QCURVE SMOOTH",
"566 0 OFFCURVE",
"604 14 OFFCURVE",
"626 32 OFFCURVE",
"645 56 OFFCURVE",
"651 67 OFFCURVE",
"653 73 QCURVE",
"653 79 OFFCURVE",
"638 91 OFFCURVE",
"630 91 QCURVE",
"625 79 OFFCURVE",
"592 45 OFFCURVE",
"578 45 QCURVE SMOOTH",
"570 45 OFFCURVE",
"551 54 OFFCURVE",
"521 81 OFFCURVE",
"503 99 OFFCURVE",
"480 123 QCURVE",
"507 154 OFFCURVE",
"557 228 OFFCURVE",
"583 271 OFFCURVE",
"584 272 QCURVE SMOOTH",
"592 277 OFFCURVE",
"640 289 OFFCURVE",
"653 289 QCURVE SMOOTH",
"656 289 OFFCURVE",
"656 316 OFFCURVE",
"654 317 QCURVE",
"637 317 OFFCURVE",
"593 314 OFFCURVE",
"560 312 OFFCURVE",
"544 312 QCURVE SMOOTH",
"465 312 LINE",
"462 309 OFFCURVE",
"462 294 OFFCURVE",
"464 289 QCURVE",
"465 289 OFFCURVE",
"491 288 OFFCURVE",
"509 280 OFFCURVE",
"509 271 QCURVE SMOOTH",
"509 262 OFFCURVE",
"477 192 OFFCURVE",
"452 154 QCURVE",
"363 255 OFFCURVE",
"304 353 QCURVE",
"338 374 OFFCURVE",
"383 408 OFFCURVE",
"430 456 OFFCURVE",
"453 512 OFFCURVE",
"453 544 QCURVE SMOOTH",
"453 598 OFFCURVE",
"375 656 OFFCURVE",
"308 656 QCURVE SMOOTH",
"246 656 OFFCURVE",
"161 577 OFFCURVE",
"161 519 QCURVE SMOOTH"
);
}
);
width = 683;
}
);
leftKerningGroup = ampersand;
note = ampersand;
rightKerningGroup = ampersand;
unicode = 0026;
changeCount = 1;
},
{
glyphname = quotesingle;
lastChange = "2018-03-06 12:35:50 +0000";
layers = (
{
layerId = "A76CE8C3-CC1A-4246-BAA7-4C4431E1D24E";
paths = (
{
closed = 1;
nodes = (
"39 599 OFFCURVE",
"74 479 QCURVE",
"77 473 OFFCURVE",
"83 473 QCURVE",
"97 480 OFFCURVE",
"103 492 QCURVE",
"108 531 OFFCURVE",
"117 664 OFFCURVE",
"117 686 QCURVE",
"107 699 OFFCURVE",
"91 699 QCURVE SMOOTH",
"69 699 OFFCURVE",
"39 653 OFFCURVE",
"39 629 QCURVE SMOOTH"
);
}
);
width = 160;
}
);
leftKerningGroup = quotedbl;
note = quotesingle;
rightKerningGroup = quotedbl;
unicode = 0027;
changeCount = 1;
},
{
glyphname = parenleft;
lastChange = "2018-03-06 12:35:50 +0000";
layers = (
{
layerId = "A76CE8C3-CC1A-4246-BAA7-4C4431E1D24E";
paths = (
{
closed = 1;
nodes = (
"317 627 OFFCURVE",
"425 713 QCURVE",
"410 735 LINE",
"350 687 OFFCURVE",
"301 626 QCURVE SMOOTH",
"150 440 OFFCURVE",
"150 170 QCURVE SMOOTH",
"150 44 OFFCURVE",
"187 -70 QCURVE SMOOTH",
"252 -271 OFFCURVE",
"410 -396 QCURVE",
"425 -378 OFFCURVE",
"425 -378 QCURVE",
"340 -305 OFFCURVE",
"290 -178 QCURVE SMOOTH",
"226 -13 OFFCURVE",
"226 170 QCURVE SMOOTH",
"226 307 OFFCURVE",
"263 437 QCURVE SMOOTH"
);
}
);
width = 470;
}
);
note = parenleft;
rightKerningGroup = parenleft;
unicode = 0028;
changeCount = 1;
},
{
glyphname = parenright;
lastChange = "2018-03-06 12:35:50 +0000";
layers = (
{
layerId = "A76CE8C3-CC1A-4246-BAA7-4C4431E1D24E";
paths = (
{
closed = 1;
nodes = (
"130 -305 OFFCURVE",
"45 -378 QCURVE",
"60 -396 LINE",
"218 -271 OFFCURVE",
"283 -70 QCURVE SMOOTH",
"320 44 OFFCURVE",
"320 170 QCURVE SMOOTH",
"320 440 OFFCURVE",
"169 626 QCURVE SMOOTH",
"120 687 OFFCURVE",
"60 735 QCURVE",
"45 713 LINE",
"153 627 OFFCURVE",
"207 437 QCURVE SMOOTH",
"244 307 OFFCURVE",
"244 170 QCURVE SMOOTH",
"244 -13 OFFCURVE",
"180 -178 QCURVE SMOOTH"
);
}
);
width = 470;
}
);
leftKerningGroup = parenright;
note = parenright;
unicode = 0029;
changeCount = 1;
},
{
glyphname = asterisk;
lastChange = "2018-03-06 12:35:50 +0000";
layers = (
{
layerId = "A76CE8C3-CC1A-4246-BAA7-4C4431E1D24E";
paths = (
{
closed = 1;
nodes = (
"234 513 OFFCURVE",
"228 514 QCURVE SMOOTH",
"223 515 OFFCURVE",
"218 525 QCURVE SMOOTH",
"210 542 OFFCURVE",
"197 615 OFFCURVE",
"187 637 QCURVE SMOOTH",
"178 655 OFFCURVE",
"151 668 OFFCURVE",
"136 660 QCURVE SMOOTH",
"123 653 OFFCURVE",
"120 620 OFFCURVE",
"130 604 QCURVE SMOOTH",
"142 582 OFFCURVE",
"190 532 OFFCURVE",
"199 516 QCURVE SMOOTH",
"203 509 OFFCURVE",
"201 502 QCURVE SMOOTH",
"199 497 OFFCURVE",
"190 494 QCURVE",
"171 492 OFFCURVE",
"99 502 OFFCURVE",
"74 499 QCURVE SMOOTH",
"55 497 OFFCURVE",
"33 473 OFFCURVE",
"36 457 QCURVE",
"38 442 OFFCURVE",
"69 430 OFFCURVE",
"88 434 QCURVE SMOOTH",
"113 440 OFFCURVE",
"176 470 OFFCURVE",
"193 473 QCURVE SMOOTH",
"202 475 OFFCURVE",
"206 470 QCURVE",
"210 466 OFFCURVE",
"209 457 QCURVE",
"205 439 OFFCURVE",
"172 372 OFFCURVE",
"168 347 QCURVE SMOOTH",
"164 328 OFFCURVE",
"179 301 OFFCURVE",
"196 299 QCURVE SMOOTH",
"211 297 OFFCURVE",
"231 322 OFFCURVE",
"234 341 QCURVE SMOOTH",
"236 366 OFFCURVE",
"228 434 OFFCURVE",
"230 452 QCURVE",
"230 453 OFFCURVE",
"231 458 OFFCURVE",
"231 461 OFFCURVE",
"234 464 OFFCURVE",
"236 465 QCURVE",
"237 467 OFFCURVE",
"246 464 OFFCURVE",
"249 463 OFFCURVE",
"250 462 QCURVE SMOOTH",
"266 454 OFFCURVE",
"319 402 OFFCURVE",
"341 390 QCURVE SMOOTH",
"357 381 OFFCURVE",
"388 387 OFFCURVE",
"396 402 QCURVE SMOOTH",
"402 416 OFFCURVE",
"385 443 OFFCURVE",
"367 451 QCURVE SMOOTH",
"344 462 OFFCURVE",
"276 474 OFFCURVE",
"260 481 QCURVE",
"251 485 OFFCURVE",
"250 491 QCURVE SMOOTH",
"249 493 OFFCURVE",
"252 501 OFFCURVE",
"254 504 OFFCURVE",
"255 505 QCURVE",
"268 518 OFFCURVE",
"334 553 OFFCURVE",
"352 569 QCURVE SMOOTH",
"366 582 OFFCURVE",
"370 613 OFFCURVE",
"358 625 QCURVE",
"346 636 OFFCURVE",
"315 628 OFFCURVE",
"302 613 QCURVE SMOOTH",
"285 595 OFFCURVE",
"253 534 OFFCURVE",
"241 520 QCURVE"
);
}
);
width = 443;
}
);
leftKerningGroup = asterisk;
note = asterisk;
rightKerningGroup = asterisk;
unicode = 002A;
changeCount = 1;
},
{
glyphname = plus;
lastChange = "2018-03-06 12:35:50 +0000";
layers = (
{
layerId = "A76CE8C3-CC1A-4246-BAA7-4C4431E1D24E";
paths = (
{
closed = 1;
nodes = (
"46 274 LINE",
"40 269 OFFCURVE",
"31 235 OFFCURVE",
"31 228 QCURVE SMOOTH",
"31 218 OFFCURVE",
"37 218 QCURVE SMOOTH",
"242 218 LINE",
"242 14 LINE SMOOTH",
"242 11 OFFCURVE",
"250 5 OFFCURVE",
"255 5 QCURVE SMOOTH",
"284 5 OFFCURVE",
"298 16 QCURVE",
"298 218 LINE",
"495 218 LINE",
"502 225 OFFCURVE",
"511 250 OFFCURVE",
"511 262 QCURVE SMOOTH",
"511 268 OFFCURVE",
"506 274 OFFCURVE",
"502 274 QCURVE SMOOTH",
"298 274 LINE",
"298 479 LINE",
"297 481 LINE SMOOTH",
"296 482 OFFCURVE",
"290 485 OFFCURVE",
"285 485 QCURVE SMOOTH",
"272 485 OFFCURVE",
"242 474 QCURVE",
"242 274 LINE"
);
}
);
width = 542;
}
);
note = plus;
unicode = 002B;
changeCount = 1;
},
{
glyphname = comma;
lastChange = "2018-03-06 12:35:50 +0000";
layers = (
{
layerId = "A76CE8C3-CC1A-4246-BAA7-4C4431E1D24E";
paths = (
{
closed = 1;
nodes = (
"47 54 OFFCURVE",
"80 9 OFFCURVE",
"80 -7 QCURVE SMOOTH",
"80 -30 OFFCURVE",
"68 -68 OFFCURVE",
"44 -96 OFFCURVE",
"29 -110 OFFCURVE",
"17 -118 QCURVE",
"17 -123 OFFCURVE",
"27 -139 OFFCURVE",
"32 -139 QCURVE",
"71 -118 OFFCURVE",
"150 4 OFFCURVE",
"150 46 QCURVE SMOOTH",
"150 85 OFFCURVE",
"132 116 QCURVE",
"120 123 OFFCURVE",
"106 123 QCURVE SMOOTH",
"81 123 OFFCURVE",
"47 92 OFFCURVE",
"47 74 QCURVE SMOOTH"
);
}
);
width = 201;
}
);
leftKerningGroup = comma;
note = comma;
rightKerningGroup = comma;
unicode = 002C;
changeCount = 1;
},
{
glyphname = hyphen;
lastChange = "2018-03-06 12:35:50 +0000";
layers = (
{
layerId = "A76CE8C3-CC1A-4246-BAA7-4C4431E1D24E";
paths = (
{
closed = 1;
nodes = (
"58 199 OFFCURVE",
"65 199 QCURVE",
"286 209 OFFCURVE",
"306 210 QCURVE",
"319 238 OFFCURVE",
"319 264 QCURVE SMOOTH",
"319 273 OFFCURVE",
"312 273 QCURVE SMOOTH",
"279 272 OFFCURVE",
"71 261 QCURVE",
"58 233 OFFCURVE",
"58 210 QCURVE SMOOTH"
);
}
);
width = 377;
}
);
leftKerningGroup = hyphen;
note = hyphen;
rightKerningGroup = hyphen;
unicode = 002D;
changeCount = 1;
},
{
glyphname = period;
lastChange = "2018-03-06 12:35:50 +0000";
layers = (
{
layerId = "A76CE8C3-CC1A-4246-BAA7-4C4431E1D24E";
paths = (
{
closed = 1;
nodes = (
"127 -11 OFFCURVE",
"158 23 OFFCURVE",
"158 68 OFFCURVE",
"127 99 OFFCURVE",
"82 99 OFFCURVE",
"48 68 OFFCURVE",
"48 23 OFFCURVE",
"82 -11 OFFCURVE"
);
}
);
width = 207;
}
);
leftKerningGroup = comma;
note = period;
rightKerningGroup = comma;
unicode = 002E;
changeCount = 1;
},
{
glyphname = slash;
lastChange = "2018-03-06 12:35:50 +0000";
layers = (
{
layerId = "A76CE8C3-CC1A-4246-BAA7-4C4431E1D24E";
paths = (
{
closed = 1;
nodes = (
"16 -184 LINE",
"17 -185 LINE",
"18 -187 OFFCURVE",
"27 -191 OFFCURVE",
"34 -191 QCURVE SMOOTH",
"49 -191 OFFCURVE",
"59 -183 QCURVE SMOOTH",
"71 -174 OFFCURVE",
"73 -168 QCURVE SMOOTH",
"322 710 LINE",
"319 719 OFFCURVE",
"309 719 QCURVE SMOOTH",
"298 719 OFFCURVE",
"279 713 OFFCURVE",
"270 706 OFFCURVE",
"269 704 QCURVE SMOOTH"
);
}
);
width = 353;
}
);
leftKerningGroup = slash;
note = slash;
rightKerningGroup = slash;
unicode = 002F;
changeCount = 1;
},
{
glyphname = zero;
lastChange = "2018-03-06 12:35:50 +0000";
layers = (
{
layerId = "A76CE8C3-CC1A-4246-BAA7-4C4431E1D24E";
paths = (
{
closed = 1;
nodes = (
"402 245 OFFCURVE",
"373 115 OFFCURVE",
"311 34 OFFCURVE",
"268 34 QCURVE SMOOTH",
"232 34 OFFCURVE",
"174 112 OFFCURVE",
"142 242 OFFCURVE",
"142 320 QCURVE SMOOTH",
"142 399 OFFCURVE",
"175 527 OFFCURVE",
"237 604 OFFCURVE",
"278 604 QCURVE SMOOTH",
"314 604 OFFCURVE",
"371 530 OFFCURVE",
"402 403 OFFCURVE",
"402 325 QCURVE SMOOTH"
);
},
{
closed = 1;
nodes = (
"339 -3 OFFCURVE",
"440 86 OFFCURVE",
"490 231 OFFCURVE",
"490 319 QCURVE SMOOTH",
"490 408 OFFCURVE",
"441 552 OFFCURVE",
"340 641 OFFCURVE",
"272 641 QCURVE SMOOTH",
"205 641 OFFCURVE",
"105 552 OFFCURVE",
"54 407 OFFCURVE",
"54 231 OFFCURVE",
"106 86 OFFCURVE",
"206 -3 OFFCURVE",
"272 -3 QCURVE SMOOTH"
);
}
);
width = 545;
}
);
leftKerningGroup = zero;
note = zero;
rightKerningGroup = zero;
unicode = 0030;
changeCount = 1;
},
{
glyphname = one;
lastChange = "2018-03-06 12:35:50 +0000";
layers = (
{
layerId = "A76CE8C3-CC1A-4246-BAA7-4C4431E1D24E";
paths = (
{
closed = 1;
nodes = (
"239 35 OFFCURVE",
"192 26 OFFCURVE",
"177 26 QCURVE",
"174 22 OFFCURVE",
"174 1 OFFCURVE",
"177 -3 QCURVE",
"280 2 OFFCURVE",
"284 2 QCURVE SMOOTH",
"293 2 OFFCURVE",
"395 -3 QCURVE",
"399 1 OFFCURVE",
"398 22 OFFCURVE",
"395 26 QCURVE",
"381 26 OFFCURVE",
"333 35 OFFCURVE",
"331 42 QCURVE SMOOTH",
"326 58 OFFCURVE",
"326 116 QCURVE SMOOTH",
"326 529 LINE SMOOTH",
"326 590 OFFCURVE",
"334 626 QCURVE",
"331 642 OFFCURVE",
"324 642 QCURVE SMOOTH",
"322 642 LINE SMOOTH",
"321 642 OFFCURVE",
"271 619 OFFCURVE",
"183 577 OFFCURVE",
"148 561 QCURVE",
"146 561 OFFCURVE",
"146 555 QCURVE SMOOTH",
"146 546 OFFCURVE",
"156 538 QCURVE",
"210 558 OFFCURVE",
"226 558 QCURVE SMOOTH",
"237 558 OFFCURVE",
"247 541 OFFCURVE",
"247 520 QCURVE SMOOTH",
"247 116 LINE SMOOTH",
"247 61 OFFCURVE",
"241 42 QCURVE SMOOTH"
);
}
);
width = 545;
}
);
note = one;
unicode = 0031;
changeCount = 1;
},
{
glyphname = two;
lastChange = "2018-03-06 12:35:50 +0000";
layers = (
{
layerId = "A76CE8C3-CC1A-4246-BAA7-4C4431E1D24E";
paths = (
{
closed = 1;
nodes = (
"449 156 OFFCURVE",
"446 150 QCURVE SMOOTH",
"430 110 OFFCURVE",
"391 73 OFFCURVE",
"362 73 QCURVE SMOOTH",
"164 73 LINE",
"305 230 OFFCURVE",
"382 324 QCURVE SMOOTH",
"439 394 OFFCURVE",
"439 475 QCURVE SMOOTH",
"439 540 OFFCURVE",
"337 642 OFFCURVE",
"266 642 QCURVE SMOOTH",
"230 642 OFFCURVE",
"160 608 OFFCURVE",
"114 560 OFFCURVE",
"85 519 OFFCURVE",
"82 507 QCURVE",
"82 504 OFFCURVE",
"96 491 OFFCURVE",
"101 491 QCURVE",
"107 501 OFFCURVE",
"129 526 OFFCURVE",
"165 557 OFFCURVE",
"216 577 OFFCURVE",
"244 577 QCURVE SMOOTH",
"292 577 OFFCURVE",
"354 508 OFFCURVE",
"354 456 QCURVE SMOOTH",
"354 415 OFFCURVE",
"335 348 OFFCURVE",
"306 306 QCURVE SMOOTH",
"227 190 OFFCURVE",
"68 14 QCURVE",
"68 11 OFFCURVE",
"75 2 OFFCURVE",
"78 0 QCURVE",
"424 0 OFFCURVE",
"424 0 QCURVE",
"456 97 OFFCURVE",
"478 150 QCURVE",
"470 156 OFFCURVE",
"458 156 QCURVE SMOOTH"
);
}
);
width = 545;
}
);
note = two;
unicode = 0032;
changeCount = 1;
},
{
glyphname = three;
lastChange = "2018-03-06 12:35:50 +0000";
layers = (
{
layerId = "A76CE8C3-CC1A-4246-BAA7-4C4431E1D24E";
paths = (
{
closed = 1;
nodes = (
"116 538 OFFCURVE",
"124 523 OFFCURVE",
"128 523 QCURVE",
"129 524 OFFCURVE",
"152 549 OFFCURVE",
"176 570 OFFCURVE",
"219 589 OFFCURVE",
"240 589 QCURVE SMOOTH",
"283 589 OFFCURVE",
"338 536 OFFCURVE",
"338 496 QCURVE SMOOTH",
"338 465 OFFCURVE",
"313 414 OFFCURVE",
"267 379 OFFCURVE",
"214 355 OFFCURVE",
"182 348 QCURVE",
"180 345 OFFCURVE",
"180 338 QCURVE SMOOTH",
"180 326 OFFCURVE",
"186 318 QCURVE",
"188 319 OFFCURVE",
"214 327 OFFCURVE",
"237 331 OFFCURVE",
"246 331 QCURVE SMOOTH",
"297 331 OFFCURVE",
"374 250 OFFCURVE",
"374 190 QCURVE SMOOTH",
"374 149 OFFCURVE",
"353 87 OFFCURVE",
"317 52 OFFCURVE",
"277 35 OFFCURVE",
"256 35 QCURVE SMOOTH",
"207 35 OFFCURVE",
"182 60 QCURVE SMOOTH",
"179 64 OFFCURVE",
"158 91 OFFCURVE",
"139 104 OFFCURVE",
"126 104 QCURVE SMOOTH",
"109 104 OFFCURVE",
"84 77 OFFCURVE",
"84 56 QCURVE SMOOTH",
"84 46 OFFCURVE",
"98 22 OFFCURVE",
"104 18 QCURVE",
"150 -5 OFFCURVE",
"206 -5 QCURVE SMOOTH",
"253 -5 OFFCURVE",
"344 27 OFFCURVE",
"416 83 OFFCURVE",
"460 169 OFFCURVE",
"460 218 QCURVE SMOOTH",
"460 253 OFFCURVE",
"433 313 OFFCURVE",
"390 352 OFFCURVE",
"343 376 OFFCURVE",
"320 379 QCURVE",
"335 388 OFFCURVE",
"364 413 OFFCURVE",
"395 447 OFFCURVE",
"413 491 OFFCURVE",
"413 514 QCURVE SMOOTH",
"413 543 OFFCURVE",
"387 594 OFFCURVE",
"347 625 OFFCURVE",
"302 642 OFFCURVE",
"282 642 QCURVE SMOOTH",
"229 642 OFFCURVE",
"144 586 OFFCURVE",
"116 545 QCURVE"
);
}
);
width = 545;
}
);
note = three;
unicode = 0033;
changeCount = 1;
},
{
glyphname = four;
lastChange = "2018-03-06 12:35:50 +0000";
layers = (
{
layerId = "A76CE8C3-CC1A-4246-BAA7-4C4431E1D24E";
paths = (
{
closed = 1;
nodes = (
"50 193 LINE",
"50 180 OFFCURVE",
"60 174 QCURVE",
"342 174 LINE",
"342 2 LINE SMOOTH",
"342 -6 OFFCURVE",
"378 -6 QCURVE SMOOTH",
"417 -6 OFFCURVE",
"421 -1 QCURVE",
"421 174 LINE",
"490 174 LINE",
"494 180 OFFCURVE",
"494 190 QCURVE SMOOTH",
"494 205 OFFCURVE",
"485 231 OFFCURVE",
"480 231 QCURVE SMOOTH",
"421 231 LINE",
"421 626 LINE SMOOTH",
"421 633 OFFCURVE",
"413 644 OFFCURVE",
"406 644 QCURVE SMOOTH",
"401 644 OFFCURVE",
"382 627 OFFCURVE",
"376 619 QCURVE SMOOTH"
);
},
{
closed = 1;
nodes = (
"118 231 LINE",
"342 524 LINE",
"342 231 LINE"
);
}
);
width = 545;
}
);
note = four;
unicode = 0034;
changeCount = 1;
},
{
glyphname = five;
lastChange = "2018-03-06 12:35:50 +0000";
layers = (
{
layerId = "A76CE8C3-CC1A-4246-BAA7-4C4431E1D24E";
paths = (
{
closed = 1;
nodes = (
"172 401 OFFCURVE",
"184 461 OFFCURVE",
"198 536 OFFCURVE",
"202 556 QCURVE",
"286 556 LINE SMOOTH",
"346 556 OFFCURVE",
"402 562 QCURVE",
"414 576 OFFCURVE",
"432 626 OFFCURVE",
"432 633 QCURVE SMOOTH",
"432 635 OFFCURVE",
"430 638 OFFCURVE",
"427 640 OFFCURVE",
"422 643 OFFCURVE",
"420 644 QCURVE",
"406 642 LINE SMOOTH",
"392 640 OFFCURVE",
"369 637 QCURVE",
"346 635 OFFCURVE",
"328 635 QCURVE SMOOTH",
"180 635 LINE",
"176 614 OFFCURVE",
"122 338 QCURVE",
"122 333 OFFCURVE",
"127 324 OFFCURVE",
"130 324 QCURVE",
"142 330 OFFCURVE",
"197 339 OFFCURVE",
"214 339 QCURVE SMOOTH",
"248 339 OFFCURVE",
"303 320 OFFCURVE",
"339 289 OFFCURVE",
"364 250 OFFCURVE",
"374 210 OFFCURVE",
"374 190 QCURVE SMOOTH",
"374 149 OFFCURVE",
"353 86 OFFCURVE",
"317 52 OFFCURVE",
"277 35 OFFCURVE",
"256 35 QCURVE SMOOTH",
"207 35 OFFCURVE",
"182 60 QCURVE SMOOTH",
"179 64 OFFCURVE",
"158 91 OFFCURVE",
"139 104 OFFCURVE",
"126 104 QCURVE SMOOTH",
"109 104 OFFCURVE",
"84 77 OFFCURVE",
"84 56 QCURVE SMOOTH",
"84 46 OFFCURVE",
"98 22 OFFCURVE",
"104 18 QCURVE",
"150 -5 OFFCURVE",
"206 -5 QCURVE SMOOTH",
"253 -5 OFFCURVE",
"344 27 OFFCURVE",
"416 83 OFFCURVE",
"460 169 OFFCURVE",
"460 218 QCURVE SMOOTH",
"460 250 OFFCURVE",
"434 313 OFFCURVE",
"387 364 OFFCURVE",
"315 395 OFFCURVE",
"272 395 QCURVE SMOOTH",
"251 395 OFFCURVE",
"186 384 OFFCURVE",
"166 376 QCURVE"
);
}
);
width = 545;
}
);
note = five;
unicode = 0035;
changeCount = 1;
},
{
glyphname = six;
lastChange = "2018-03-06 12:35:50 +0000";
layers = (
{
layerId = "A76CE8C3-CC1A-4246-BAA7-4C4431E1D24E";
paths = (
{
closed = 1;
nodes = (
"304 346 OFFCURVE",
"363 300 OFFCURVE",
"387 229 OFFCURVE",
"387 184 QCURVE SMOOTH",
"387 117 OFFCURVE",
"325 27 OFFCURVE",
"277 27 QCURVE SMOOTH",
"249 27 OFFCURVE",
"202 67 OFFCURVE",
"174 131 OFFCURVE",
"159 203 OFFCURVE",
"159 238 QCURVE SMOOTH",
"159 278 OFFCURVE",
"163 306 QCURVE",
"200 346 OFFCURVE",
"261 346 QCURVE SMOOTH"
);
},
{
closed = 1;
nodes = (
"221 545 OFFCURVE",
"449 618 QCURVE",
"449 626 OFFCURVE",
"443 647 OFFCURVE",
"437 647 QCURVE",
"371 630 OFFCURVE",
"220 541 OFFCURVE",
"169 485 QCURVE SMOOTH",
"122 434 OFFCURVE",
"73 297 OFFCURVE",
"73 220 QCURVE SMOOTH",
"73 179 OFFCURVE",
"101 99 OFFCURVE",
"150 34 OFFCURVE",
"226 -6 OFFCURVE",
"269 -6 QCURVE SMOOTH",
"354 -6 OFFCURVE",
"472 118 OFFCURVE",
"472 203 QCURVE SMOOTH",
"472 226 OFFCURVE",
"461 276 OFFCURVE",
"434 328 OFFCURVE",
"394 369 OFFCURVE",
"329 395 OFFCURVE",
"289 395 QCURVE SMOOTH",
"262 395 OFFCURVE",
"196 371 OFFCURVE",
"171 350 QCURVE"
);
}
);
width = 545;
}
);
note = six;
unicode = 0036;
changeCount = 1;
},
{
glyphname = seven;
lastChange = "2018-03-06 12:35:50 +0000";
layers = (
{
layerId = "A76CE8C3-CC1A-4246-BAA7-4C4431E1D24E";
paths = (
{
closed = 1;
nodes = (
"92 579 OFFCURVE",
"62 483 QCURVE",
"70 477 OFFCURVE",
"82 477 QCURVE SMOOTH",
"93 477 OFFCURVE",
"94 483 QCURVE",
"106 525 OFFCURVE",
"137 560 OFFCURVE",
"166 560 QCURVE SMOOTH",
"420 560 LINE",
"372 458 LINE SMOOTH",
"324 356 OFFCURVE",
"182 83 OFFCURVE",
"136 13 QCURVE",
"136 7 OFFCURVE",
"168 -5 OFFCURVE",
"180 -5 QCURVE SMOOTH",
"187 -5 OFFCURVE",
"190 -2 QCURVE",
"454 560 LINE SMOOTH",
"458 567 OFFCURVE",
"470 593 OFFCURVE",
"477 607 OFFCURVE",
"482 623 OFFCURVE",
"482 627 QCURVE SMOOTH",
"482 636 OFFCURVE",
"476 636 QCURVE SMOOTH",
"476 636 OFFCURVE",
"424 633 OFFCURVE",
"408 633 QCURVE SMOOTH",
"104 633 LINE"
);
}
);
width = 545;
}
);
leftKerningGroup = seven;
note = seven;
unicode = 0037;
changeCount = 1;
},
{
glyphname = eight;
lastChange = "2018-03-06 12:35:50 +0000";
layers = (
{
layerId = "A76CE8C3-CC1A-4246-BAA7-4C4431E1D24E";
paths = (
{
closed = 1;
nodes = (
"163 205 OFFCURVE",
"201 270 OFFCURVE",
"242 296 QCURVE",
"243 297 OFFCURVE",
"246 297 QCURVE SMOOTH",
"248 297 OFFCURVE",
"252 295 QCURVE",
"261 290 OFFCURVE",
"281 277 OFFCURVE",
"324 244 OFFCURVE",
"355 210 OFFCURVE",
"380 162 OFFCURVE",
"380 138 QCURVE SMOOTH",
"380 87 OFFCURVE",
"322 27 OFFCURVE",
"272 27 QCURVE SMOOTH",
"230 27 OFFCURVE",
"163 99 OFFCURVE",
"163 157 QCURVE SMOOTH"
);
},
{
closed = 1;
nodes = (
"370 409 OFFCURVE",
"302 364 QCURVE SMOOTH",
"299 362 OFFCURVE",
"296 362 QCURVE SMOOTH",
"294 362 OFFCURVE",
"290 364 QCURVE",
"289 365 OFFCURVE",
"286 367 QCURVE",
"266 378 OFFCURVE",
"240 396 OFFCURVE",
"205 429 OFFCURVE",
"186 472 OFFCURVE",
"186 498 QCURVE SMOOTH",
"186 543 OFFCURVE",
"236 608 OFFCURVE",
"272 608 QCURVE SMOOTH",
"315 608 OFFCURVE",
"370 533 OFFCURVE",
"370 486 QCURVE SMOOTH"
);
},
{
closed = 1;
nodes = (
"112 430 OFFCURVE",
"175 348 OFFCURVE",
"214 324 QCURVE",
"219 322 OFFCURVE",
"214 318 QCURVE",
"214 318 OFFCURVE",
"189 302 OFFCURVE",
"182 297 OFFCURVE",
"157 280 OFFCURVE",
"146 270 OFFCURVE",
"124 250 OFFCURVE",
"113 235 OFFCURVE",
"97 213 OFFCURVE",
"90 192 OFFCURVE",
"84 167 OFFCURVE",
"84 154 QCURVE SMOOTH",
"84 82 OFFCURVE",
"188 -9 OFFCURVE",
"270 -9 QCURVE SMOOTH",
"347 -9 OFFCURVE",
"461 94 OFFCURVE",
"461 167 QCURVE SMOOTH",
"461 217 OFFCURVE",
"383 309 OFFCURVE",
"330 338 QCURVE",
"324 343 OFFCURVE",
"330 344 QCURVE",
"353 358 OFFCURVE",
"383 382 OFFCURVE",
"422 420 OFFCURVE",
"442 469 OFFCURVE",
"442 496 QCURVE SMOOTH",
"442 564 OFFCURVE",
"348 643 OFFCURVE",
"278 643 QCURVE SMOOTH",
"212 643 OFFCURVE",
"112 544 OFFCURVE",
"112 480 QCURVE SMOOTH"
);
}
);
width = 545;
}
);
note = eight;
unicode = 0038;
changeCount = 1;
},
{
glyphname = nine;
lastChange = "2018-03-06 12:35:50 +0000";
layers = (
{
layerId = "A76CE8C3-CC1A-4246-BAA7-4C4431E1D24E";
paths = (
{
closed = 1;
nodes = (
"241 295 OFFCURVE",
"183 342 OFFCURVE",
"159 412 OFFCURVE",
"159 457 QCURVE SMOOTH",
"159 525 OFFCURVE",
"221 614 OFFCURVE",
"268 614 QCURVE SMOOTH",
"297 614 OFFCURVE",
"344 574 OFFCURVE",
"371 510 OFFCURVE",
"386 438 OFFCURVE",
"386 403 QCURVE SMOOTH",
"386 363 OFFCURVE",
"382 335 QCURVE",
"346 295 OFFCURVE",
"284 295 QCURVE SMOOTH"
);
},
{
closed = 1;
nodes = (
"175 12 OFFCURVE",
"325 100 OFFCURVE",
"376 156 QCURVE SMOOTH",
"423 208 OFFCURVE",
"472 344 OFFCURVE",
"472 421 QCURVE SMOOTH",
"472 462 OFFCURVE",
"444 542 OFFCURVE",
"395 607 OFFCURVE",
"320 647 OFFCURVE",
"276 647 QCURVE SMOOTH",
"192 647 OFFCURVE",
"74 523 OFFCURVE",
"74 438 QCURVE SMOOTH",
"74 415 OFFCURVE",
"85 366 OFFCURVE",
"112 313 OFFCURVE",
"151 273 OFFCURVE",
"216 246 OFFCURVE",
"256 246 QCURVE SMOOTH",
"283 246 OFFCURVE",
"349 270 OFFCURVE",
"374 291 QCURVE",
"325 97 OFFCURVE",
"96 23 QCURVE",
"96 16 OFFCURVE",
"102 -6 OFFCURVE",
"108 -6 QCURVE"
);
}
);
width = 545;
}
);
note = nine;
unicode = 0039;
changeCount = 1;
},
{
glyphname = colon;
lastChange = "2018-03-06 12:35:50 +0000";
layers = (
{
layerId = "A76CE8C3-CC1A-4246-BAA7-4C4431E1D24E";
paths = (
{
closed = 1;
nodes = (
"137 -11 OFFCURVE",
"168 23 OFFCURVE",
"168 68 OFFCURVE",
"137 99 OFFCURVE",
"92 99 OFFCURVE",
"58 68 OFFCURVE",
"58 23 OFFCURVE",
"92 -11 OFFCURVE"
);
},
{
closed = 1;
nodes = (
"137 321 OFFCURVE",
"168 355 OFFCURVE",
"168 400 OFFCURVE",
"137 431 OFFCURVE",
"92 431 OFFCURVE",
"58 400 OFFCURVE",
"58 355 OFFCURVE",
"92 321 OFFCURVE"
);
}
);
width = 226;
}
);
leftKerningGroup = colon;
note = colon;
rightKerningGroup = colon;
unicode = 003A;
changeCount = 1;
},
{
glyphname = semicolon;
lastChange = "2018-03-06 12:35:50 +0000";
layers = (
{
layerId = "A76CE8C3-CC1A-4246-BAA7-4C4431E1D24E";
paths = (
{
closed = 1;
nodes = (
"68 54 OFFCURVE",
"101 9 OFFCURVE",
"101 -7 QCURVE SMOOTH",
"101 -30 OFFCURVE",
"89 -68 OFFCURVE",
"65 -96 OFFCURVE",
"50 -110 OFFCURVE",
"38 -118 QCURVE",
"38 -123 OFFCURVE",
"48 -139 OFFCURVE",
"53 -139 QCURVE",
"92 -118 OFFCURVE",
"171 4 OFFCURVE",
"171 46 QCURVE SMOOTH",
"171 85 OFFCURVE",
"153 116 QCURVE",
"141 123 OFFCURVE",
"127 123 QCURVE SMOOTH",
"102 123 OFFCURVE",
"68 92 OFFCURVE",
"68 74 QCURVE SMOOTH"
);
},
{
closed = 1;
nodes = (
"140 321 OFFCURVE",
"171 355 OFFCURVE",
"171 400 OFFCURVE",
"140 431 OFFCURVE",
"95 431 OFFCURVE",
"61 400 OFFCURVE",
"61 355 OFFCURVE",
"95 321 OFFCURVE"
);
}
);
width = 232;
}
);
leftKerningGroup = colon;
note = semicolon;
rightKerningGroup = colon;
unicode = 003B;
changeCount = 1;
},
{
glyphname = less;
lastChange = "2018-03-06 12:35:50 +0000";
layers = (
{
layerId = "A76CE8C3-CC1A-4246-BAA7-4C4431E1D24E";
paths = (
{
closed = 1;
nodes = (
"110 209 LINE",
"436 374 LINE",
"437 375 LINE SMOOTH",
"438 376 OFFCURVE",
"440 381 OFFCURVE",
"439 383 QCURVE SMOOTH",
"430 430 OFFCURVE",
"422 430 QCURVE SMOOTH",
"421 430 OFFCURVE",
"417 428 QCURVE SMOOTH",
"48 241 LINE SMOOTH",
"30 232 OFFCURVE",
"30 217 QCURVE SMOOTH",
"30 187 OFFCURVE",
"48 177 QCURVE SMOOTH",
"423 -13 LINE SMOOTH",
"427 -15 OFFCURVE",
"428 -15 QCURVE SMOOTH",
"432 -15 OFFCURVE",
"444 28 OFFCURVE",
"444 35 QCURVE SMOOTH",
"444 40 OFFCURVE",
"441 41 QCURVE"
);
}
);
width = 492;
}
);
note = less;
unicode = 003C;
changeCount = 1;
},
{
glyphname = equal;
lastChange = "2018-03-06 12:35:50 +0000";
layers = (
{
layerId = "A76CE8C3-CC1A-4246-BAA7-4C4431E1D24E";
paths = (
{
closed = 1;
nodes = (
"89 175 LINE",
"82 173 OFFCURVE",
"69 145 OFFCURVE",
"68 122 OFFCURVE",
"73 120 QCURVE",
"479 120 OFFCURVE",
"479 120 QCURVE",
"485 124 OFFCURVE",
"497 152 OFFCURVE",
"498 173 OFFCURVE",
"492 175 QCURVE"
);
},
{
closed = 1;
nodes = (
"89 319 LINE",
"82 317 OFFCURVE",
"69 289 OFFCURVE",
"68 266 OFFCURVE",
"73 264 QCURVE",
"479 264 LINE",
"485 268 OFFCURVE",
"497 296 OFFCURVE",
"498 317 OFFCURVE",
"492 319 QCURVE"
);
}
);
width = 565;
}
);
note = equal;
unicode = 003D;
changeCount = 1;
},
{
glyphname = greater;
lastChange = "2018-03-06 12:35:50 +0000";
layers = (
{
layerId = "A76CE8C3-CC1A-4246-BAA7-4C4431E1D24E";
paths = (
{
closed = 1;
nodes = (
"66 -15 OFFCURVE",
"70 -13 QCURVE SMOOTH",
"445 177 LINE SMOOTH",
"462 186 OFFCURVE",
"462 217 QCURVE SMOOTH",
"462 233 OFFCURVE",
"445 241 QCURVE SMOOTH",
"75 428 LINE SMOOTH",
"71 430 OFFCURVE",
"70 430 QCURVE SMOOTH",
"67 430 OFFCURVE",
"54 395 OFFCURVE",
"54 382 QCURVE SMOOTH",
"54 375 OFFCURVE",
"57 374 QCURVE",
"382 209 LINE",
"51 41 LINE",
"50 41 LINE SMOOTH",
"49 40 OFFCURVE",
"49 39 QCURVE",
"48 37 OFFCURVE",
"48 35 QCURVE SMOOTH",
"48 28 OFFCURVE",
"61 -15 OFFCURVE",
"65 -15 QCURVE SMOOTH"
);
}
);
width = 493;
}
);
note = greater;
unicode = 003E;
changeCount = 1;
},
{
glyphname = question;
lastChange = "2018-03-06 12:35:50 +0000";
layers = (
{
layerId = "A76CE8C3-CC1A-4246-BAA7-4C4431E1D24E";
paths = (
{
closed = 1;
nodes = (
"142 -11 OFFCURVE",
"173 23 OFFCURVE",
"173 68 OFFCURVE",
"142 99 OFFCURVE",
"97 99 OFFCURVE",
"63 68 OFFCURVE",
"63 23 OFFCURVE",
"97 -11 OFFCURVE"
);
},
{
closed = 1;
nodes = (
"260 473 OFFCURVE",
"250 448 OFFCURVE",
"239 432 OFFCURVE",
"210 409 OFFCURVE",
"194 398 OFFCURVE",
"173 385 QCURVE",
"171 384 OFFCURVE",
"166 381 QCURVE SMOOTH",
"152 372 OFFCURVE",
"136 361 OFFCURVE",
"111 338 OFFCURVE",
"99 316 OFFCURVE",
"88 281 OFFCURVE",
"88 261 QCURVE SMOOTH",
"88 204 OFFCURVE",
"96 170 QCURVE",
"100 163 OFFCURVE",
"109 159 QCURVE",
"119 160 OFFCURVE",
"125 172 QCURVE",
"125 176 OFFCURVE",
"125 204 OFFCURVE",
"125 217 OFFCURVE",
"128 237 OFFCURVE",
"131 242 QCURVE SMOOTH",
"136 250 OFFCURVE",
"188 292 OFFCURVE",
"209 304 QCURVE SMOOTH",
"265 336 OFFCURVE",
"310 406 OFFCURVE",
"310 457 QCURVE SMOOTH",
"310 491 OFFCURVE",
"282 552 OFFCURVE",
"238 595 OFFCURVE",
"185 627 OFFCURVE",
"134 642 OFFCURVE",
"113 642 QCURVE SMOOTH",
"79 642 OFFCURVE",
"65 635 QCURVE",
"56 623 OFFCURVE",
"56 598 QCURVE SMOOTH",
"56 576 OFFCURVE",
"87 548 OFFCURVE",
"100 548 QCURVE SMOOTH",
"110 548 OFFCURVE",
"156 569 OFFCURVE",
"216 569 OFFCURVE",
"260 525 OFFCURVE",
"260 487 QCURVE SMOOTH"
);
}
);
width = 356;
}
);
leftKerningGroup = question;
note = question;
unicode = 003F;
changeCount = 1;
},
{
glyphname = at;
lastChange = "2018-03-06 12:35:50 +0000";
layers = (
{
layerId = "A76CE8C3-CC1A-4246-BAA7-4C4431E1D24E";
paths = (
{
closed = 1;
nodes = (
"49 68 OFFCURVE",
"150 -92 OFFCURVE",
"222 -118 QCURVE SMOOTH",
"238 -124 OFFCURVE",
"261 -124 QCURVE SMOOTH",
"271 -124 OFFCURVE",
"297 -112 OFFCURVE",
"297 -106 QCURVE",
"260 -100 OFFCURVE",
"222 -78 QCURVE SMOOTH",
"165 -45 OFFCURVE",
"89 87 OFFCURVE",
"89 170 QCURVE SMOOTH",
"89 223 OFFCURVE",
"118 328 OFFCURVE",
"175 422 OFFCURVE",
"253 495 OFFCURVE",
"359 538 OFFCURVE",
"418 538 QCURVE SMOOTH",
"469 538 OFFCURVE",
"554 508 OFFCURVE",
"612 456 OFFCURVE",
"653 386 OFFCURVE",
"672 309 OFFCURVE",
"672 267 QCURVE SMOOTH",
"672 222 OFFCURVE",
"648 135 OFFCURVE",
"609 74 OFFCURVE",
"561 36 OFFCURVE",
"537 36 QCURVE SMOOTH",
"516 36 OFFCURVE",
"489 58 OFFCURVE",
"489 81 QCURVE SMOOTH",
"489 94 OFFCURVE",
"492 106 QCURVE",
"553 422 LINE",
"518 435 OFFCURVE",
"480 435 QCURVE SMOOTH",
"430 435 OFFCURVE",
"326 381 OFFCURVE",
"246 295 OFFCURVE",
"194 184 OFFCURVE",
"194 130 QCURVE SMOOTH",
"194 74 OFFCURVE",
"245 -5 OFFCURVE",
"289 -5 QCURVE SMOOTH",
"310 -5 OFFCURVE",
"356 25 OFFCURVE",
"394 69 OFFCURVE",
"422 109 OFFCURVE",
"430 125 QCURVE",
"423 107 OFFCURVE",
"423 79 QCURVE SMOOTH",
"423 35 OFFCURVE",
"468 -7 OFFCURVE",
"506 -7 QCURVE SMOOTH",
"564 -7 OFFCURVE",
"659 68 OFFCURVE",
"712 195 OFFCURVE",
"712 270 QCURVE SMOOTH",
"712 318 OFFCURVE",
"689 407 OFFCURVE",
"641 485 OFFCURVE",
"572 544 OFFCURVE",
"475 578 OFFCURVE",
"418 578 QCURVE SMOOTH",
"351 578 OFFCURVE",
"231 531 OFFCURVE",
"144 451 OFFCURVE",
"81 346 OFFCURVE",
"49 229 OFFCURVE",
"49 170 QCURVE SMOOTH"
);
},
{
closed = 1;
nodes = (
"459 274 LINE SMOOTH",
"450 226 OFFCURVE",
"403 124 OFFCURVE",
"343 53 OFFCURVE",
"319 53 QCURVE SMOOTH",
"268 53 OFFCURVE",
"268 151 QCURVE SMOOTH",
"268 193 OFFCURVE",
"300 280 OFFCURVE",
"349 347 OFFCURVE",
"410 389 OFFCURVE",
"438 389 QCURVE SMOOTH",
"468 389 OFFCURVE",
"479 376 QCURVE"
);
}
);
width = 748;
}
);
leftKerningGroup = at;
note = at;
unicode = 0040;
changeCount = 1;
},
{
glyphname = A;
lastChange = "2018-03-06 12:35:50 +0000";
layers = (
{
layerId = "A76CE8C3-CC1A-4246-BAA7-4C4431E1D24E";
paths = (
{
closed = 1;
nodes = (
"42 37 OFFCURVE",
"1 26 OFFCURVE",
"-12 26 QCURVE",
"-14 21 OFFCURVE",
"-14 -1 OFFCURVE",
"-12 -3 QCURVE",
"5 -3 OFFCURVE",
"43 1 OFFCURVE",
"75 2 OFFCURVE",
"95 2 QCURVE SMOOTH",
"115 2 OFFCURVE",
"144 1 OFFCURVE",
"178 -3 OFFCURVE",
"192 -3 QCURVE",
"194 2 OFFCURVE",
"192 24 OFFCURVE",
"190 26 QCURVE",
"185 26 OFFCURVE",
"166 28 OFFCURVE",
"140 34 OFFCURVE",
"121 46 OFFCURVE",
"121 54 QCURVE SMOOTH",
"121 84 OFFCURVE",
"135 125 QCURVE SMOOTH",
"152 173 OFFCURVE",
"180 247 QCURVE",
"185 250 LINE",
"230 253 OFFCURVE",
"293 253 QCURVE SMOOTH",
"379 253 OFFCURVE",
"392 252 QCURVE",
"395 252 OFFCURVE",
"398 248 QCURVE",
"415 206 LINE SMOOTH",
"432 164 OFFCURVE",
"466 67 OFFCURVE",
"466 53 QCURVE SMOOTH",
"466 43 OFFCURVE",
"462 39 QCURVE",
"456 34 OFFCURVE",
"418 26 OFFCURVE",
"406 26 QCURVE",
"402 22 OFFCURVE",
"402 1 OFFCURVE",
"405 -3 QCURVE",
"421 -3 OFFCURVE",
"465 1 OFFCURVE",
"501 2 OFFCURVE",
"521 2 QCURVE SMOOTH",
"531 2 OFFCURVE",
"631 -3 QCURVE",
"632 1 OFFCURVE",
"632 22 OFFCURVE",
"629 26 QCURVE",
"617 26 OFFCURVE",
"568 45 OFFCURVE",
"561 60 QCURVE",
"561 62 OFFCURVE",
"536 126 QCURVE SMOOTH",
"332 660 LINE",
"331 661 OFFCURVE",
"328 663 OFFCURVE",
"326 663 QCURVE SMOOTH",
"320 663 OFFCURVE",
"292 642 OFFCURVE",
"288 634 QCURVE",
"227 479 OFFCURVE",
"95 139 QCURVE SMOOTH",
"69 73 OFFCURVE",
"48 45 QCURVE SMOOTH"
);
},
{
closed = 1;
nodes = (
"379 299 LINE SMOOTH",
"379 298 OFFCURVE",
"378 296 QCURVE",
"377 295 OFFCURVE",
"376 295 QCURVE",
"330 292 OFFCURVE",
"292 292 QCURVE SMOOTH",
"253 292 OFFCURVE",
"201 294 QCURVE",
"199 294 OFFCURVE",
"199 298 QCURVE",
"291 542 LINE",
"379 300 LINE"
);
}
);
width = 627;
}
);
leftKerningGroup = A;
note = A;
rightKerningGroup = A;
unicode = 0041;
changeCount = 1;
},
{
glyphname = B;
lastChange = "2018-03-06 12:35:50 +0000";
layers = (
{
layerId = "A76CE8C3-CC1A-4246-BAA7-4C4431E1D24E";
paths = (
{
closed = 1;
nodes = (
"454 332 OFFCURVE",
"454 176 QCURVE SMOOTH",
"454 29 OFFCURVE",
"295 29 QCURVE SMOOTH",
"263 29 OFFCURVE",
"226 36 OFFCURVE",
"216 47 QCURVE SMOOTH",
"211 52 OFFCURVE",
"206 101 OFFCURVE",
"207 115 QCURVE SMOOTH",
"207 332 LINE",
"268 332 LINE SMOOTH"
);
},
{
closed = 1;
nodes = (
"206 603 OFFCURVE",
"212 617 QCURVE SMOOTH",
"216 627 OFFCURVE",
"262 627 QCURVE SMOOTH",
"332 627 OFFCURVE",
"416 553 OFFCURVE",
"416 487 QCURVE SMOOTH",
"416 439 OFFCURVE",
"353 370 OFFCURVE",
"290 370 QCURVE SMOOTH",
"207 370 LINE",
"207 542 LINE"
);
},
{
closed = 1;
nodes = (
"148 657 OFFCURVE",
"46 662 QCURVE",
"42 658 OFFCURVE",
"43 637 OFFCURVE",
"46 633 QCURVE",
"61 633 OFFCURVE",
"113 624 OFFCURVE",
"115 617 QCURVE SMOOTH",
"120 601 OFFCURVE",
"120 543 QCURVE SMOOTH",
"120 116 LINE SMOOTH",
"120 58 OFFCURVE",
"115 42 QCURVE SMOOTH",
"113 35 OFFCURVE",
"61 26 OFFCURVE",
"46 26 QCURVE",
"43 22 OFFCURVE",
"42 1 OFFCURVE",
"46 -3 QCURVE",
"276 -3 LINE SMOOTH",
"423 -1 OFFCURVE",
"485 51 QCURVE SMOOTH",
"553 108 OFFCURVE",
"553 199 QCURVE SMOOTH",
"553 234 OFFCURVE",
"521 297 OFFCURVE",
"474 336 OFFCURVE",
"425 359 OFFCURVE",
"406 360 QCURVE",
"401 363 OFFCURVE",
"406 365 QCURVE",
"439 378 OFFCURVE",
"507 459 OFFCURVE",
"507 510 QCURVE SMOOTH",
"507 543 OFFCURVE",
"482 596 OFFCURVE",
"443 629 OFFCURVE",
"389 650 OFFCURVE",
"335 659 OFFCURVE",
"306 659 QCURVE SMOOTH",
"274 659 OFFCURVE",
"181 657 OFFCURVE",
"164 657 QCURVE SMOOTH"
);
}
);
width = 596;
}
);
leftKerningGroup = B;
note = B;
rightKerningGroup = B;
unicode = 0042;
changeCount = 1;
},
{
glyphname = C;
lastChange = "2018-03-06 12:35:50 +0000";
layers = (
{
layerId = "A76CE8C3-CC1A-4246-BAA7-4C4431E1D24E";
paths = (
{
closed = 1;
nodes = (
"48 256 OFFCURVE",
"98 136 OFFCURVE",
"184 47 OFFCURVE",
"310 -6 OFFCURVE",
"382 -6 QCURVE SMOOTH",
"517 -6 OFFCURVE",
"597 39 QCURVE",
"607 47 OFFCURVE",
"632 164 OFFCURVE",
"632 183 QCURVE",
"618 193 OFFCURVE",
"600 191 QCURVE",
"584 116 OFFCURVE",
"539 75 QCURVE SMOOTH",
"485 27 OFFCURVE",
"407 27 QCURVE SMOOTH",
"357 27 OFFCURVE",
"271 63 OFFCURVE",
"210 124 OFFCURVE",
"168 205 OFFCURVE",
"147 296 OFFCURVE",
"147 343 QCURVE SMOOTH",
"147 414 OFFCURVE",
"206 546 OFFCURVE",
"320 634 OFFCURVE",
"391 634 QCURVE SMOOTH",
"559 634 OFFCURVE",
"587 488 QCURVE",
"592 485 OFFCURVE",
"607 485 OFFCURVE",
"622 494 OFFCURVE",
"621 498 QCURVE",
"621 508 OFFCURVE",
"598 646 QCURVE",
"501 667 OFFCURVE",
"386 667 QCURVE SMOOTH",
"314 667 OFFCURVE",
"187 612 OFFCURVE",
"99 518 OFFCURVE",
"48 392 OFFCURVE",
"48 322 QCURVE SMOOTH"
);
}
);
width = 674;
}
);
leftKerningGroup = C;
note = C;
rightKerningGroup = C;
unicode = 0043;
changeCount = 1;
},
{
glyphname = D;
lastChange = "2018-03-06 12:35:50 +0000";
layers = (
{
layerId = "A76CE8C3-CC1A-4246-BAA7-4C4431E1D24E";
paths = (
{
closed = 1;
nodes = (
"216 626 OFFCURVE",
"282 626 QCURVE SMOOTH",
"326 626 OFFCURVE",
"406 605 OFFCURVE",
"478 557 OFFCURVE",
"530 486 OFFCURVE",
"561 379 OFFCURVE",
"561 313 QCURVE SMOOTH",
"561 242 OFFCURVE",
"518 132 OFFCURVE",
"444 64 OFFCURVE",
"350 29 OFFCURVE",
"296 29 QCURVE SMOOTH",
"224 29 OFFCURVE",
"214 43 QCURVE",
"208 50 OFFCURVE",
"208 115 QCURVE SMOOTH",
"208 541 LINE",
"207 596 OFFCURVE",
"213 615 QCURVE SMOOTH"
);
},
{
closed = 1;
nodes = (
"148 657 OFFCURVE",
"46 662 QCURVE",
"42 658 OFFCURVE",
"43 637 OFFCURVE",
"46 633 QCURVE",
"61 633 OFFCURVE",
"113 624 OFFCURVE",
"115 617 QCURVE SMOOTH",
"120 601 OFFCURVE",
"120 543 QCURVE SMOOTH",
"120 116 LINE SMOOTH",
"120 58 OFFCURVE",
"115 42 QCURVE SMOOTH",
"113 35 OFFCURVE",
"61 26 OFFCURVE",
"46 26 QCURVE",
"43 22 OFFCURVE",
"42 1 OFFCURVE",
"46 -3 QCURVE",
"296 -3 LINE SMOOTH",
"378 -3 OFFCURVE",
"506 35 OFFCURVE",
"586 98 OFFCURVE",
"639 187 OFFCURVE",
"660 281 OFFCURVE",
"660 334 QCURVE SMOOTH",
"660 403 OFFCURVE",
"611 522 OFFCURVE",
"522 609 OFFCURVE",
"389 658 OFFCURVE",
"309 658 QCURVE SMOOTH",
"286 658 OFFCURVE",
"183 657 OFFCURVE",
"164 657 QCURVE SMOOTH"
);
}
);
width = 710;
}
);
leftKerningGroup = B;
note = D;
rightKerningGroup = D;
unicode = 0044;
changeCount = 1;
},
{
glyphname = E;
lastChange = "2018-03-06 12:35:50 +0000";
layers = (
{
layerId = "A76CE8C3-CC1A-4246-BAA7-4C4431E1D24E";
paths = (
{
closed = 1;
nodes = (
"42 658 OFFCURVE",
"43 637 OFFCURVE",
"46 633 QCURVE",
"61 633 OFFCURVE",
"113 624 OFFCURVE",
"115 617 QCURVE SMOOTH",
"120 601 OFFCURVE",
"120 543 QCURVE SMOOTH",
"120 116 LINE SMOOTH",
"120 58 OFFCURVE",
"115 42 QCURVE SMOOTH",
"113 35 OFFCURVE",
"61 26 OFFCURVE",
"46 26 QCURVE",
"43 22 OFFCURVE",
"42 1 OFFCURVE",
"46 -3 QCURVE",
"64 -3 OFFCURVE",
"140 0 OFFCURVE",
"165 0 QCURVE SMOOTH",
"234 0 OFFCURVE",
"454 -4 OFFCURVE",
"506 -4 QCURVE",
"508 12 OFFCURVE",
"522 57 OFFCURVE",
"534 92 OFFCURVE",
"555 149 OFFCURVE",
"560 162 QCURVE",
"554 168 OFFCURVE",
"535 168 QCURVE SMOOTH",
"522 168 OFFCURVE",
"521 162 QCURVE",
"505 121 OFFCURVE",
"479 74 OFFCURVE",
"458 61 QCURVE SMOOTH",
"437 49 OFFCURVE",
"368 34 OFFCURVE",
"332 34 QCURVE SMOOTH",
"284 34 LINE SMOOTH",
"248 34 OFFCURVE",
"222 37 OFFCURVE",
"213 44 QCURVE",
"209 48 OFFCURVE",
"206 96 OFFCURVE",
"207 113 QCURVE SMOOTH",
"207 303 LINE SMOOTH",
"207 305 OFFCURVE",
"213 309 OFFCURVE",
"226 311 OFFCURVE",
"238 312 OFFCURVE",
"258 312 OFFCURVE",
"269 312 OFFCURVE",
"279 312 QCURVE SMOOTH",
"372 312 OFFCURVE",
"385 304 QCURVE SMOOTH",
"392 299 OFFCURVE",
"402 278 OFFCURVE",
"413 238 QCURVE",
"416 230 OFFCURVE",
"429 230 QCURVE SMOOTH",
"441 230 OFFCURVE",
"445 234 QCURVE",
"445 423 LINE",
"440 428 OFFCURVE",
"428 428 QCURVE SMOOTH",
"414 428 OFFCURVE",
"413 421 QCURVE",
"412 418 OFFCURVE",
"411 413 QCURVE",
"407 398 OFFCURVE",
"401 378 OFFCURVE",
"391 363 OFFCURVE",
"380 355 OFFCURVE",
"356 350 OFFCURVE",
"328 349 OFFCURVE",
"303 349 QCURVE SMOOTH",
"250 349 LINE SMOOTH",
"230 349 OFFCURVE",
"206 352 OFFCURVE",
"207 355 QCURVE",
"207 542 LINE",
"206 594 OFFCURVE",
"212 613 QCURVE SMOOTH",
"215 624 OFFCURVE",
"281 624 QCURVE SMOOTH",
"367 624 LINE SMOOTH",
"412 624 OFFCURVE",
"467 586 OFFCURVE",
"483 530 QCURVE",
"484 523 OFFCURVE",
"497 523 QCURVE SMOOTH",
"510 523 OFFCURVE",
"515 528 QCURVE",
"512 540 OFFCURVE",
"490 635 OFFCURVE",
"486 664 QCURVE",
"429 664 OFFCURVE",
"209 657 OFFCURVE",
"164 657 QCURVE SMOOTH",
"148 657 OFFCURVE",
"46 662 QCURVE"
);
}
);
width = 587;
}
);
leftKerningGroup = B;
note = E;
rightKerningGroup = E;
unicode = 0045;
changeCount = 1;
},
{
glyphname = F;
lastChange = "2018-03-06 12:35:50 +0000";
layers = (
{
layerId = "A76CE8C3-CC1A-4246-BAA7-4C4431E1D24E";
paths = (
{
closed = 1;
nodes = (
"42 658 OFFCURVE",
"43 637 OFFCURVE",
"46 633 QCURVE",
"61 633 OFFCURVE",
"113 624 OFFCURVE",
"115 617 QCURVE SMOOTH",
"120 601 OFFCURVE",
"120 543 QCURVE SMOOTH",
"120 116 LINE SMOOTH",
"120 58 OFFCURVE",
"115 42 QCURVE SMOOTH",
"113 35 OFFCURVE",
"61 26 OFFCURVE",
"46 26 QCURVE",
"43 22 OFFCURVE",
"42 1 OFFCURVE",
"46 -3 QCURVE",
"64 -3 OFFCURVE",
"139 2 OFFCURVE",
"188 2 OFFCURVE",
"291 -3 QCURVE",
"294 1 OFFCURVE",
"294 22 OFFCURVE",
"291 26 QCURVE",
"274 26 OFFCURVE",
"214 35 OFFCURVE",
"212 42 QCURVE SMOOTH",
"207 58 OFFCURVE",
"207 116 QCURVE SMOOTH",
"207 303 LINE SMOOTH",
"207 312 OFFCURVE",
"279 312 QCURVE SMOOTH",
"372 312 OFFCURVE",
"385 304 QCURVE SMOOTH",
"392 299 OFFCURVE",
"402 278 OFFCURVE",
"413 238 QCURVE",
"416 230 OFFCURVE",
"429 230 QCURVE SMOOTH",
"441 230 OFFCURVE",
"445 234 QCURVE",
"445 423 LINE",
"440 428 OFFCURVE",
"428 428 QCURVE SMOOTH",
"414 428 OFFCURVE",
"413 421 QCURVE",
"412 418 OFFCURVE",
"411 413 QCURVE",
"407 398 OFFCURVE",
"401 378 OFFCURVE",
"391 363 OFFCURVE",
"380 355 OFFCURVE",
"356 350 OFFCURVE",
"328 349 OFFCURVE",
"303 349 QCURVE SMOOTH",
"250 349 LINE SMOOTH",
"230 349 OFFCURVE",
"206 352 OFFCURVE",
"207 355 QCURVE",
"207 542 LINE SMOOTH",
"207 597 OFFCURVE",
"212 613 QCURVE SMOOTH",
"215 624 OFFCURVE",
"281 624 QCURVE SMOOTH",
"367 624 LINE SMOOTH",
"412 624 OFFCURVE",
"467 586 OFFCURVE",
"483 530 QCURVE",
"484 523 OFFCURVE",
"497 523 QCURVE SMOOTH",
"510 523 OFFCURVE",
"515 528 QCURVE",
"512 540 OFFCURVE",
"490 635 OFFCURVE",
"486 664 QCURVE",
"429 664 OFFCURVE",
"209 657 OFFCURVE",
"164 657 QCURVE SMOOTH",
"148 657 OFFCURVE",
"46 662 QCURVE"
);
}
);
width = 535;
}
);
leftKerningGroup = B;
note = F;
rightKerningGroup = F;
unicode = 0046;
changeCount = 1;
},
{
glyphname = G;
lastChange = "2018-03-06 12:35:50 +0000";
layers = (
{
layerId = "A76CE8C3-CC1A-4246-BAA7-4C4431E1D24E";
paths = (
{
closed = 1;
nodes = (
"535 63 OFFCURVE",
"528 59 QCURVE SMOOTH",
"464 27 OFFCURVE",
"407 27 QCURVE SMOOTH",
"356 27 OFFCURVE",
"270 63 OFFCURVE",
"210 124 OFFCURVE",
"167 205 OFFCURVE",
"147 296 OFFCURVE",
"147 343 QCURVE SMOOTH",
"147 414 OFFCURVE",
"206 546 OFFCURVE",
"320 634 OFFCURVE",
"391 634 QCURVE SMOOTH",
"559 634 OFFCURVE",
"587 488 QCURVE",
"592 485 OFFCURVE",
"607 485 OFFCURVE",
"622 494 OFFCURVE",
"621 498 QCURVE",
"621 508 OFFCURVE",
"598 646 QCURVE",
"501 667 OFFCURVE",
"386 667 QCURVE SMOOTH",
"314 667 OFFCURVE",
"187 612 OFFCURVE",
"99 518 OFFCURVE",
"48 392 OFFCURVE",
"48 322 QCURVE SMOOTH",
"48 256 OFFCURVE",
"98 136 OFFCURVE",
"184 47 OFFCURVE",
"310 -6 OFFCURVE",
"382 -6 QCURVE SMOOTH",
"443 -6 OFFCURVE",
"541 13 OFFCURVE",
"581 30 OFFCURVE",
"611 46 QCURVE SMOOTH",
"624 53 OFFCURVE",
"631 60 OFFCURVE",
"631 64 QCURVE SMOOTH",
"631 68 OFFCURVE",
"621 92 OFFCURVE",
"621 104 QCURVE SMOOTH",
"621 175 LINE SMOOTH",
"621 233 OFFCURVE",
"626 249 QCURVE SMOOTH",
"628 256 OFFCURVE",
"677 265 OFFCURVE",
"691 265 QCURVE",
"694 269 OFFCURVE",
"695 290 OFFCURVE",
"691 294 QCURVE",
"589 289 OFFCURVE",
"579 289 QCURVE SMOOTH",
"565 289 OFFCURVE",
"462 294 QCURVE",
"459 290 OFFCURVE",
"459 269 OFFCURVE",
"462 265 QCURVE",
"477 265 OFFCURVE",
"528 256 OFFCURVE",
"530 249 QCURVE SMOOTH",
"535 233 OFFCURVE",
"535 175 QCURVE SMOOTH",
"535 74 LINE SMOOTH"
);
}
);
width = 720;
}
);
leftKerningGroup = C;
note = G;
rightKerningGroup = G;
unicode = 0047;
changeCount = 1;
},
{
glyphname = H;
lastChange = "2018-03-06 12:35:50 +0000";
layers = (
{
layerId = "A76CE8C3-CC1A-4246-BAA7-4C4431E1D24E";
paths = (
{
closed = 1;
nodes = (
"42 658 OFFCURVE",
"43 634 OFFCURVE",
"46 630 QCURVE",
"61 630 OFFCURVE",
"113 621 OFFCURVE",
"115 614 QCURVE SMOOTH",
"120 598 OFFCURVE",
"120 540 QCURVE SMOOTH",
"120 119 LINE SMOOTH",
"120 61 OFFCURVE",
"115 45 QCURVE SMOOTH",
"113 38 OFFCURVE",
"61 29 OFFCURVE",
"46 29 QCURVE",
"43 25 OFFCURVE",
"42 1 OFFCURVE",
"46 -3 QCURVE",
"148 2 OFFCURVE",
"164 2 QCURVE SMOOTH",
"178 2 OFFCURVE",
"281 -3 QCURVE",
"284 1 OFFCURVE",
"284 25 OFFCURVE",
"281 29 QCURVE",
"266 29 OFFCURVE",
"214 38 OFFCURVE",
"212 45 QCURVE SMOOTH",
"207 61 OFFCURVE",
"207 119 QCURVE SMOOTH",
"207 317 LINE",
"208 319 LINE",
"220 325 OFFCURVE",
"366 325 QCURVE SMOOTH",
"395 325 OFFCURVE",
"507 322 OFFCURVE",
"519 321 QCURVE",
"521 317 LINE",
"521 119 LINE SMOOTH",
"521 61 OFFCURVE",
"516 45 QCURVE SMOOTH",
"514 38 OFFCURVE",
"462 29 OFFCURVE",
"447 29 QCURVE",
"444 25 OFFCURVE",
"443 1 OFFCURVE",
"447 -3 QCURVE",
"549 2 OFFCURVE",
"565 2 QCURVE SMOOTH",
"579 2 OFFCURVE",
"682 -3 QCURVE",
"685 1 OFFCURVE",
"685 25 OFFCURVE",
"682 29 QCURVE",
"667 29 OFFCURVE",
"615 38 OFFCURVE",
"613 45 QCURVE SMOOTH",
"608 61 OFFCURVE",
"608 119 QCURVE SMOOTH",
"608 540 LINE SMOOTH",
"608 598 OFFCURVE",
"613 614 QCURVE SMOOTH",
"615 621 OFFCURVE",
"667 630 OFFCURVE",
"682 630 QCURVE",
"685 634 OFFCURVE",
"685 658 OFFCURVE",
"682 662 QCURVE",
"579 657 OFFCURVE",
"565 657 QCURVE SMOOTH",
"549 657 OFFCURVE",
"447 662 QCURVE",
"443 658 OFFCURVE",
"444 634 OFFCURVE",
"447 630 QCURVE",
"462 630 OFFCURVE",
"514 621 OFFCURVE",
"516 614 QCURVE SMOOTH",
"521 598 OFFCURVE",
"521 540 QCURVE SMOOTH",
"521 366 LINE SMOOTH",
"521 364 OFFCURVE",
"519 362 QCURVE",
"384 359 OFFCURVE",
"366 359 QCURVE SMOOTH",
"356 359 OFFCURVE",
"209 362 QCURVE",
"207 365 LINE",
"207 540 LINE SMOOTH",
"207 598 OFFCURVE",
"212 614 QCURVE SMOOTH",
"214 621 OFFCURVE",
"266 630 OFFCURVE",
"281 630 QCURVE",
"284 634 OFFCURVE",
"284 658 OFFCURVE",
"281 662 QCURVE",
"178 657 OFFCURVE",
"164 657 QCURVE SMOOTH",
"148 657 OFFCURVE",
"46 662 QCURVE"
);
}
);
width = 726;
}
);
leftKerningGroup = B;
note = H;
rightKerningGroup = H;
unicode = 0048;
changeCount = 1;
},
{
glyphname = I;
lastChange = "2018-03-06 12:35:50 +0000";
layers = (
{
layerId = "A76CE8C3-CC1A-4246-BAA7-4C4431E1D24E";
paths = (
{
closed = 1;
nodes = (
"42 658 OFFCURVE",
"43 637 OFFCURVE",
"46 633 QCURVE",
"61 633 OFFCURVE",
"113 624 OFFCURVE",
"115 617 QCURVE SMOOTH",
"120 601 OFFCURVE",
"120 543 QCURVE SMOOTH",
"120 116 LINE SMOOTH",
"120 58 OFFCURVE",
"115 42 QCURVE SMOOTH",
"113 35 OFFCURVE",
"61 26 OFFCURVE",
"46 26 QCURVE",
"43 22 OFFCURVE",
"42 1 OFFCURVE",
"46 -3 QCURVE",
"148 2 OFFCURVE",
"164 2 QCURVE SMOOTH",
"178 2 OFFCURVE",
"281 -3 QCURVE",
"284 1 OFFCURVE",
"284 22 OFFCURVE",
"281 26 QCURVE",
"266 26 OFFCURVE",
"214 35 OFFCURVE",
"212 42 QCURVE SMOOTH",
"207 58 OFFCURVE",
"207 116 QCURVE SMOOTH",
"207 543 LINE SMOOTH",
"207 601 OFFCURVE",
"212 617 QCURVE SMOOTH",
"214 624 OFFCURVE",
"266 633 OFFCURVE",
"281 633 QCURVE",
"284 637 OFFCURVE",
"284 658 OFFCURVE",
"281 662 QCURVE",
"178 657 OFFCURVE",
"164 657 QCURVE SMOOTH",
"148 657 OFFCURVE",
"46 662 QCURVE"
);
}
);
width = 324;
}
);
leftKerningGroup = B;
note = I;
rightKerningGroup = H;
unicode = 0049;
changeCount = 1;
},
{
glyphname = J;
lastChange = "2018-03-06 12:35:50 +0000";
layers = (
{
layerId = "A76CE8C3-CC1A-4246-BAA7-4C4431E1D24E";
paths = (
{
closed = 1;
nodes = (
"37 658 OFFCURVE",
"37 637 OFFCURVE",
"40 633 QCURVE",
"55 633 OFFCURVE",
"107 624 OFFCURVE",
"109 617 QCURVE SMOOTH",
"114 601 OFFCURVE",
"114 543 QCURVE SMOOTH",
"114 116 LINE SMOOTH",
"114 29 OFFCURVE",
"102 -92 OFFCURVE",
"80 -155 OFFCURVE",
"54 -180 OFFCURVE",
"37 -180 QCURVE SMOOTH",
"15 -180 OFFCURVE",
"-8 -159 QCURVE",
"-9 -158 OFFCURVE",
"-19 -149 OFFCURVE",
"-23 -146 OFFCURVE",
"-32 -139 OFFCURVE",
"-37 -136 OFFCURVE",
"-45 -132 OFFCURVE",
"-53 -130 OFFCURVE",
"-56 -130 QCURVE SMOOTH",
"-79 -130 OFFCURVE",
"-104 -162 OFFCURVE",
"-104 -186 QCURVE SMOOTH",
"-104 -201 OFFCURVE",
"-96 -209 QCURVE",
"-88 -216 OFFCURVE",
"-45 -227 OFFCURVE",
"-33 -227 QCURVE SMOOTH",
"19 -227 OFFCURVE",
"103 -188 OFFCURVE",
"167 -107 OFFCURVE",
"201 30 OFFCURVE",
"201 121 QCURVE SMOOTH",
"201 543 LINE SMOOTH",
"201 601 OFFCURVE",
"206 617 QCURVE SMOOTH",
"208 624 OFFCURVE",
"260 633 OFFCURVE",
"275 633 QCURVE",
"278 637 OFFCURVE",
"279 658 OFFCURVE",
"275 662 QCURVE",
"173 657 OFFCURVE",
"158 657 QCURVE SMOOTH",
"143 657 OFFCURVE",
"40 662 QCURVE"
);
}
);
width = 313;
}
);
leftKerningGroup = J;
note = J;
rightKerningGroup = J;
unicode = 004A;
changeCount = 1;
},
{
glyphname = K;
lastChange = "2018-03-06 12:35:50 +0000";
layers = (
{
layerId = "A76CE8C3-CC1A-4246-BAA7-4C4431E1D24E";
paths = (
{
closed = 1;
nodes = (
"42 658 OFFCURVE",
"43 634 OFFCURVE",
"46 630 QCURVE",
"61 630 OFFCURVE",
"113 621 OFFCURVE",
"115 614 QCURVE SMOOTH",
"120 598 OFFCURVE",
"120 540 QCURVE SMOOTH",
"120 119 LINE SMOOTH",
"120 61 OFFCURVE",
"115 45 QCURVE SMOOTH",
"113 38 OFFCURVE",
"61 29 OFFCURVE",
"46 29 QCURVE",
"43 25 OFFCURVE",
"42 1 OFFCURVE",
"46 -3 QCURVE",
"148 2 OFFCURVE",
"164 2 QCURVE SMOOTH",
"178 2 OFFCURVE",
"281 -3 QCURVE",
"284 1 OFFCURVE",
"284 25 OFFCURVE",
"281 29 QCURVE",
"266 29 OFFCURVE",
"214 38 OFFCURVE",
"212 45 QCURVE SMOOTH",
"207 61 OFFCURVE",
"207 119 QCURVE SMOOTH",
"207 305 LINE",
"211 307 OFFCURVE",
"216 307 QCURVE SMOOTH",
"223 307 OFFCURVE",
"225 304 QCURVE",
"422 78 OFFCURVE",
"450 51 QCURVE SMOOTH",
"479 22 OFFCURVE",
"518 8 QCURVE SMOOTH",
"549 -3 OFFCURVE",
"660 -3 QCURVE",
"661 0 OFFCURVE",
"664 21 OFFCURVE",
"661 26 QCURVE",
"623 29 OFFCURVE",
"573 52 OFFCURVE",
"552 72 QCURVE SMOOTH",
"540 83 OFFCURVE",
"516 108 OFFCURVE",
"495 129 OFFCURVE",
"466 161 OFFCURVE",
"447 181 OFFCURVE",
"413 219 OFFCURVE",
"397 238 OFFCURVE",
"359 282 OFFCURVE",
"345 298 OFFCURVE",
"302 349 OFFCURVE",
"295 356 QCURVE",
"293 360 OFFCURVE",
"295 364 QCURVE",
"316 384 OFFCURVE",
"393 458 OFFCURVE",
"433 497 OFFCURVE",
"496 561 OFFCURVE",
"527 594 QCURVE SMOOTH",
"535 603 OFFCURVE",
"556 616 OFFCURVE",
"575 624 OFFCURVE",
"597 629 OFFCURVE",
"610 630 OFFCURVE",
"618 631 QCURVE SMOOTH",
"626 631 LINE",
"629 631 OFFCURVE",
"630 658 OFFCURVE",
"628 662 QCURVE",
"619 662 OFFCURVE",
"546 656 OFFCURVE",
"520 656 QCURVE SMOOTH",
"503 656 OFFCURVE",
"465 658 OFFCURVE",
"416 662 OFFCURVE",
"405 662 QCURVE",
"402 655 OFFCURVE",
"402 636 OFFCURVE",
"405 631 QCURVE",
"405 631 OFFCURVE",
"413 631 OFFCURVE",
"418 631 OFFCURVE",
"428 631 OFFCURVE",
"436 630 OFFCURVE",
"445 628 OFFCURVE",
"452 624 OFFCURVE",
"458 620 OFFCURVE",
"461 613 OFFCURVE",
"461 609 QCURVE SMOOTH",
"461 597 OFFCURVE",
"447 578 QCURVE SMOOTH",
"424 549 OFFCURVE",
"378 500 OFFCURVE",
"320 442 QCURVE SMOOTH",
"233 357 OFFCURVE",
"207 341 QCURVE",
"207 540 LINE",
"206 595 OFFCURVE",
"212 614 QCURVE SMOOTH",
"214 621 OFFCURVE",
"266 630 OFFCURVE",
"281 630 QCURVE",
"284 634 OFFCURVE",
"284 658 OFFCURVE",
"281 662 QCURVE",
"178 657 OFFCURVE",
"164 657 QCURVE SMOOTH",
"148 657 OFFCURVE",
"46 662 QCURVE"
);
}
);
width = 657;
}
);
leftKerningGroup = B;
note = K;
rightKerningGroup = K;
unicode = 004B;
changeCount = 1;
},
{
glyphname = L;
lastChange = "2018-03-06 12:35:50 +0000";
layers = (
{
layerId = "A76CE8C3-CC1A-4246-BAA7-4C4431E1D24E";
paths = (
{
closed = 1;
nodes = (
"206 598 OFFCURVE",
"212 617 QCURVE SMOOTH",
"214 624 OFFCURVE",
"266 633 OFFCURVE",
"281 633 QCURVE",
"284 637 OFFCURVE",
"284 658 OFFCURVE",
"281 662 QCURVE",
"178 657 OFFCURVE",
"164 657 QCURVE SMOOTH",
"148 657 OFFCURVE",
"46 662 QCURVE",
"42 658 OFFCURVE",
"43 637 OFFCURVE",
"46 633 QCURVE",
"61 633 OFFCURVE",
"113 624 OFFCURVE",
"115 617 QCURVE SMOOTH",
"120 601 OFFCURVE",
"120 543 QCURVE SMOOTH",
"120 116 LINE SMOOTH",
"120 58 OFFCURVE",
"115 42 QCURVE SMOOTH",
"113 35 OFFCURVE",
"61 26 OFFCURVE",
"46 26 QCURVE",
"43 22 OFFCURVE",
"42 1 OFFCURVE",
"46 -3 QCURVE",
"64 -3 OFFCURVE",
"140 0 OFFCURVE",
"165 0 QCURVE SMOOTH",
"234 0 OFFCURVE",
"454 -4 OFFCURVE",
"506 -4 QCURVE",
"508 12 OFFCURVE",
"522 57 OFFCURVE",
"534 92 OFFCURVE",
"555 149 OFFCURVE",
"560 162 QCURVE",
"554 168 OFFCURVE",
"535 168 QCURVE SMOOTH",
"522 168 OFFCURVE",
"521 162 QCURVE",
"499 89 OFFCURVE",
"458 61 QCURVE SMOOTH",
"438 48 OFFCURVE",
"372 34 OFFCURVE",
"341 34 QCURVE SMOOTH",
"284 34 LINE SMOOTH",
"248 34 OFFCURVE",
"222 37 OFFCURVE",
"213 44 QCURVE SMOOTH",
"207 49 OFFCURVE",
"207 116 QCURVE SMOOTH",
"207 543 LINE"
);
}
);
width = 564;
}
);
leftKerningGroup = B;
note = L;
rightKerningGroup = L;
unicode = 004C;
changeCount = 1;
},
{
glyphname = M;
lastChange = "2018-03-06 12:35:50 +0000";
layers = (
{
layerId = "A76CE8C3-CC1A-4246-BAA7-4C4431E1D24E";
paths = (
{
closed = 1;
nodes = (
"58 661 OFFCURVE",
"58 633 OFFCURVE",
"60 633 QCURVE SMOOTH",
"73 633 OFFCURVE",
"127 620 OFFCURVE",
"130 612 QCURVE",
"134 601 OFFCURVE",
"134 572 QCURVE SMOOTH",
"134 468 OFFCURVE",
"120 94 QCURVE SMOOTH",
"118 59 OFFCURVE",
"108 44 QCURVE SMOOTH",
"102 36 OFFCURVE",
"43 26 OFFCURVE",
"27 26 QCURVE",
"24 20 OFFCURVE",
"25 -1 OFFCURVE",
"27 -3 QCURVE",
"43 -3 OFFCURVE",
"88 1 OFFCURVE",
"123 2 OFFCURVE",
"144 2 QCURVE SMOOTH",
"163 2 OFFCURVE",
"196 1 OFFCURVE",
"236 -3 OFFCURVE",
"250 -3 QCURVE",
"251 1 OFFCURVE",
"251 22 OFFCURVE",
"248 26 QCURVE",
"231 26 OFFCURVE",
"173 35 OFFCURVE",
"169 44 QCURVE SMOOTH",
"165 55 OFFCURVE",
"165 75 QCURVE SMOOTH",
"165 77 OFFCURVE",
"169 238 OFFCURVE",
"176 488 OFFCURVE",
"178 584 QCURVE",
"422 0 LINE",
"429 -3 OFFCURVE",
"431 -2 QCURVE",
"438 -1 OFFCURVE",
"464 38 OFFCURVE",
"469 49 QCURVE",
"657 521 OFFCURVE",
"680 578 QCURVE SMOOTH",
"683 585 OFFCURVE",
"685 585 QCURVE SMOOTH",
"689 585 OFFCURVE",
"694 571 OFFCURVE",
"694 565 QCURVE",
"698 445 OFFCURVE",
"707 137 QCURVE SMOOTH",
"707 130 OFFCURVE",
"709 86 OFFCURVE",
"709 79 QCURVE SMOOTH",
"709 42 OFFCURVE",
"700 37 QCURVE SMOOTH",
"692 33 OFFCURVE",
"647 26 OFFCURVE",
"635 26 QCURVE",
"632 20 OFFCURVE",
"633 -1 OFFCURVE",
"635 -3 QCURVE",
"650 -3 OFFCURVE",
"697 1 OFFCURVE",
"734 2 OFFCURVE",
"755 2 QCURVE SMOOTH",
"774 2 OFFCURVE",
"874 -3 QCURVE",
"875 1 OFFCURVE",
"875 20 OFFCURVE",
"872 26 QCURVE",
"856 26 OFFCURVE",
"805 34 OFFCURVE",
"802 43 QCURVE SMOOTH",
"792 70 OFFCURVE",
"790 140 QCURVE SMOOTH",
"789 185 OFFCURVE",
"784 392 OFFCURVE",
"781 547 OFFCURVE",
"780 577 QCURVE",
"780 604 OFFCURVE",
"785 615 QCURVE",
"788 622 OFFCURVE",
"842 633 OFFCURVE",
"856 633 QCURVE",
"853 662 LINE",
"803 658 OFFCURVE",
"741 658 QCURVE SMOOTH",
"726 658 OFFCURVE",
"662 662 QCURVE",
"618 542 LINE SMOOTH",
"611 525 OFFCURVE",
"465 148 QCURVE SMOOTH",
"463 144 OFFCURVE",
"460 144 QCURVE SMOOTH",
"457 144 OFFCURVE",
"456 146 QCURVE",
"428 217 OFFCURVE",
"326 459 OFFCURVE",
"252 635 OFFCURVE",
"244 662 QCURVE",
"189 657 OFFCURVE",
"163 657 QCURVE SMOOTH",
"142 657 OFFCURVE",
"113 659 OFFCURVE",
"77 661 OFFCURVE",
"60 662 QCURVE"
);
}
);
width = 907;
}
);
leftKerningGroup = M;
note = M;
rightKerningGroup = M;
unicode = 004D;
changeCount = 1;
},
{
glyphname = N;
lastChange = "2018-03-06 12:35:50 +0000";
layers = (
{
layerId = "A76CE8C3-CC1A-4246-BAA7-4C4431E1D24E";
paths = (
{
closed = 1;
nodes = (
"34 653 OFFCURVE",
"41 636 QCURVE",
"55 636 OFFCURVE",
"115 624 OFFCURVE",
"119 616 QCURVE",
"126 606 OFFCURVE",
"129 579 OFFCURVE",
"129 548 QCURVE SMOOTH",
"129 114 LINE SMOOTH",
"129 84 OFFCURVE",
"126 57 OFFCURVE",
"119 46 QCURVE",
"115 38 OFFCURVE",
"55 26 OFFCURVE",
"41 26 QCURVE",
"34 10 OFFCURVE",
"41 -3 QCURVE",
"58 -3 OFFCURVE",
"96 1 OFFCURVE",
"128 2 OFFCURVE",
"148 2 QCURVE SMOOTH",
"162 2 OFFCURVE",
"262 -3 QCURVE",
"264 1 OFFCURVE",
"264 21 OFFCURVE",
"260 26 QCURVE",
"246 26 OFFCURVE",
"189 39 OFFCURVE",
"185 46 QCURVE",
"178 57 OFFCURVE",
"175 84 OFFCURVE",
"175 115 QCURVE SMOOTH",
"175 569 LINE",
"611 18 LINE SMOOTH",
"620 6 OFFCURVE",
"641 -5 OFFCURVE",
"646 -5 QCURVE SMOOTH",
"658 -5 OFFCURVE",
"659 1 QCURVE",
"657 53 OFFCURVE",
"657 139 QCURVE SMOOTH",
"657 546 LINE SMOOTH",
"657 577 OFFCURVE",
"661 604 OFFCURVE",
"667 614 QCURVE",
"672 622 OFFCURVE",
"731 634 OFFCURVE",
"745 634 QCURVE",
"753 651 OFFCURVE",
"745 663 QCURVE",
"728 663 OFFCURVE",
"690 660 OFFCURVE",
"659 658 OFFCURVE",
"638 658 QCURVE SMOOTH",
"623 658 OFFCURVE",
"523 663 QCURVE",
"521 659 OFFCURVE",
"522 639 OFFCURVE",
"525 634 QCURVE",
"540 634 OFFCURVE",
"597 621 OFFCURVE",
"601 614 QCURVE",
"608 603 OFFCURVE",
"611 576 OFFCURVE",
"611 545 QCURVE SMOOTH",
"611 224 LINE",
"611 166 LINE",
"554 246 OFFCURVE",
"244 623 OFFCURVE",
"219 662 QCURVE",
"191 660 OFFCURVE",
"143 660 QCURVE SMOOTH",
"124 660 OFFCURVE",
"57 665 OFFCURVE",
"41 665 QCURVE"
);
}
);
width = 776;
}
);
leftKerningGroup = N;
note = N;
rightKerningGroup = N;
unicode = 004E;
changeCount = 1;
},
{
glyphname = O;
lastChange = "2018-03-06 12:35:50 +0000";
layers = (
{
layerId = "A76CE8C3-CC1A-4246-BAA7-4C4431E1D24E";
paths = (
{
closed = 1;
nodes = (
"600 268 OFFCURVE",
"586 188 OFFCURVE",
"552 113 OFFCURVE",
"505 58 OFFCURVE",
"433 24 OFFCURVE",
"389 24 QCURVE SMOOTH",
"333 24 OFFCURVE",
"240 82 OFFCURVE",
"181 176 OFFCURVE",
"148 291 OFFCURVE",
"148 350 QCURVE SMOOTH",
"148 392 OFFCURVE",
"163 471 OFFCURVE",
"196 545 OFFCURVE",
"243 600 OFFCURVE",
"315 633 OFFCURVE",
"358 633 QCURVE SMOOTH",
"414 633 OFFCURVE",
"508 576 OFFCURVE",
"567 483 OFFCURVE",
"600 368 OFFCURVE",
"600 309 QCURVE SMOOTH"
);
},
{
closed = 1;
nodes = (
"49 256 OFFCURVE",
"101 129 OFFCURVE",
"189 41 OFFCURVE",
"308 -10 OFFCURVE",
"373 -10 QCURVE SMOOTH",
"438 -10 OFFCURVE",
"558 44 OFFCURVE",
"647 134 OFFCURVE",
"699 260 OFFCURVE",
"699 328 QCURVE SMOOTH",
"699 401 OFFCURVE",
"647 529 OFFCURVE",
"558 617 OFFCURVE",
"439 667 OFFCURVE",
"373 667 QCURVE SMOOTH",
"308 667 OFFCURVE",
"189 613 OFFCURVE",
"101 523 OFFCURVE",
"49 397 OFFCURVE",
"49 328 QCURVE SMOOTH"
);
}
);
width = 748;
}
);
leftKerningGroup = C;
note = O;
rightKerningGroup = D;
unicode = 004F;
changeCount = 1;
},
{
glyphname = P;
lastChange = "2018-03-06 12:35:50 +0000";
layers = (
{
layerId = "A76CE8C3-CC1A-4246-BAA7-4C4431E1D24E";
paths = (
{
closed = 1;
nodes = (
"273 659 OFFCURVE",
"180 657 OFFCURVE",
"163 657 QCURVE SMOOTH",
"148 657 OFFCURVE",
"45 662 QCURVE",
"42 658 OFFCURVE",
"42 637 OFFCURVE",
"45 633 QCURVE",
"60 633 OFFCURVE",
"112 624 OFFCURVE",
"114 617 QCURVE SMOOTH",
"119 601 OFFCURVE",
"119 543 QCURVE SMOOTH",
"119 116 LINE SMOOTH",
"119 58 OFFCURVE",
"114 42 QCURVE SMOOTH",
"112 35 OFFCURVE",
"60 26 OFFCURVE",
"45 26 QCURVE",
"42 22 OFFCURVE",
"42 1 OFFCURVE",
"45 -3 QCURVE",
"148 2 OFFCURVE",
"163 2 QCURVE SMOOTH",
"178 2 OFFCURVE",
"280 -3 QCURVE",
"284 1 OFFCURVE",
"283 22 OFFCURVE",
"280 26 QCURVE",
"265 26 OFFCURVE",
"213 35 OFFCURVE",
"211 42 QCURVE SMOOTH",
"206 58 OFFCURVE",
"206 116 QCURVE SMOOTH",
"206 542 LINE SMOOTH",
"206 605 OFFCURVE",
"211 617 QCURVE SMOOTH",
"216 627 OFFCURVE",
"261 627 QCURVE SMOOTH",
"342 627 OFFCURVE",
"426 539 OFFCURVE",
"426 462 QCURVE SMOOTH",
"426 389 OFFCURVE",
"346 306 OFFCURVE",
"284 306 QCURVE SMOOTH",
"272 306 OFFCURVE",
"246 313 QCURVE SMOOTH",
"244 314 OFFCURVE",
"242 312 OFFCURVE",
"241 309 OFFCURVE",
"241 308 QCURVE SMOOTH",
"241 296 OFFCURVE",
"255 286 QCURVE",
"271 278 OFFCURVE",
"298 278 QCURVE SMOOTH",
"397 278 OFFCURVE",
"518 388 OFFCURVE",
"518 479 QCURVE SMOOTH",
"518 535 OFFCURVE",
"455 619 OFFCURVE",
"360 659 OFFCURVE",
"305 659 QCURVE SMOOTH"
);
}
);
width = 548;
}
);
leftKerningGroup = B;
note = P;
rightKerningGroup = P;
unicode = 0050;
changeCount = 1;
},
{
glyphname = Q;
lastChange = "2018-03-06 12:35:50 +0000";
layers = (
{
layerId = "A76CE8C3-CC1A-4246-BAA7-4C4431E1D24E";
paths = (
{
closed = 1;
nodes = (
"600 268 OFFCURVE",
"586 188 OFFCURVE",
"552 113 OFFCURVE",
"505 58 OFFCURVE",
"433 24 OFFCURVE",
"389 24 QCURVE SMOOTH",
"333 24 OFFCURVE",
"240 82 OFFCURVE",
"181 176 OFFCURVE",
"148 291 OFFCURVE",
"148 350 QCURVE SMOOTH",
"148 392 OFFCURVE",
"163 471 OFFCURVE",
"196 545 OFFCURVE",
"243 600 OFFCURVE",
"315 633 OFFCURVE",
"358 633 QCURVE SMOOTH",
"414 633 OFFCURVE",
"508 576 OFFCURVE",
"567 483 OFFCURVE",
"600 368 OFFCURVE",
"600 309 QCURVE SMOOTH"
);
},
{
closed = 1;
nodes = (
"49 206 OFFCURVE",
"186 27 OFFCURVE",
"293 0 QCURVE SMOOTH",
"329 -9 OFFCURVE",
"402 -45 OFFCURVE",
"460 -81 OFFCURVE",
"518 -115 OFFCURVE",
"579 -136 OFFCURVE",
"609 -136 QCURVE SMOOTH",
"651 -136 OFFCURVE",
"727 -111 OFFCURVE",
"775 -85 QCURVE",
"775 -84 OFFCURVE",
"774 -82 QCURVE",
"770 -75 OFFCURVE",
"756 -75 QCURVE",
"735 -81 OFFCURVE",
"685 -81 QCURVE SMOOTH",
"649 -81 OFFCURVE",
"591 -66 OFFCURVE",
"557 -47 OFFCURVE",
"494 -9 OFFCURVE",
"466 4 QCURVE",
"568 36 OFFCURVE",
"699 215 OFFCURVE",
"699 328 QCURVE SMOOTH",
"699 401 OFFCURVE",
"647 529 OFFCURVE",
"558 617 OFFCURVE",
"439 667 OFFCURVE",
"373 667 QCURVE SMOOTH",
"308 667 OFFCURVE",
"189 613 OFFCURVE",
"101 523 OFFCURVE",
"49 397 OFFCURVE",
"49 328 QCURVE SMOOTH"
);
}
);
width = 747;
}
);
leftKerningGroup = C;
note = Q;
rightKerningGroup = D;
unicode = 0051;
changeCount = 1;
},
{
glyphname = R;
lastChange = "2018-03-06 12:35:50 +0000";
layers = (
{
layerId = "A76CE8C3-CC1A-4246-BAA7-4C4431E1D24E";
paths = (
{
closed = 1;
nodes = (
"148 657 OFFCURVE",
"45 662 QCURVE",
"42 658 OFFCURVE",
"42 637 OFFCURVE",
"45 633 QCURVE",
"60 633 OFFCURVE",
"112 624 OFFCURVE",
"114 617 QCURVE SMOOTH",
"119 601 OFFCURVE",
"119 543 QCURVE SMOOTH",
"120 116 LINE SMOOTH",
"119 55 OFFCURVE",
"115 42 QCURVE SMOOTH",
"113 35 OFFCURVE",
"61 26 OFFCURVE",
"46 26 QCURVE",
"43 22 OFFCURVE",
"42 1 OFFCURVE",
"46 -3 QCURVE",
"148 2 OFFCURVE",
"164 2 QCURVE SMOOTH",
"178 2 OFFCURVE",
"281 -3 QCURVE",
"284 1 OFFCURVE",
"284 22 OFFCURVE",
"281 26 QCURVE",
"266 26 OFFCURVE",
"214 35 OFFCURVE",
"212 42 QCURVE SMOOTH",
"207 58 OFFCURVE",
"207 116 QCURVE SMOOTH",
"207 302 LINE",
"260 302 LINE SMOOTH",
"282 302 OFFCURVE",
"290 290 QCURVE SMOOTH",
"333 223 OFFCURVE",
"436 71 OFFCURVE",
"449 53 QCURVE SMOOTH",
"456 44 OFFCURVE",
"465 36 QCURVE SMOOTH",
"482 21 OFFCURVE",
"514 9 QCURVE SMOOTH",
"548 -3 OFFCURVE",
"646 -3 QCURVE",
"647 0 OFFCURVE",
"650 21 OFFCURVE",
"647 26 QCURVE",
"607 29 OFFCURVE",
"556 57 OFFCURVE",
"534 86 QCURVE SMOOTH",
"437 214 OFFCURVE",
"372 321 QCURVE",
"425 339 OFFCURVE",
"509 435 OFFCURVE",
"509 486 QCURVE SMOOTH",
"509 527 OFFCURVE",
"471 595 OFFCURVE",
"411 637 OFFCURVE",
"340 659 OFFCURVE",
"305 659 QCURVE SMOOTH",
"273 659 OFFCURVE",
"180 657 OFFCURVE",
"163 657 QCURVE SMOOTH"
);
},
{
closed = 1;
nodes = (
"207 333 LINE",
"206 542 LINE",
"206 605 OFFCURVE",
"211 617 QCURVE SMOOTH",
"216 627 OFFCURVE",
"261 627 QCURVE SMOOTH",
"341 627 OFFCURVE",
"415 547 OFFCURVE",
"415 477 QCURVE SMOOTH",
"415 414 OFFCURVE",
"322 333 OFFCURVE",
"260 333 QCURVE SMOOTH"
);
}
);
width = 621;
}
);
leftKerningGroup = B;
note = R;
rightKerningGroup = R;
unicode = 0052;
changeCount = 1;
},
{
glyphname = S;
lastChange = "2018-03-06 12:35:50 +0000";
layers = (
{
layerId = "A76CE8C3-CC1A-4246-BAA7-4C4431E1D24E";
paths = (
{
closed = 1;
nodes = (
"65 474 OFFCURVE",
"73 442 OFFCURVE",
"83 417 OFFCURVE",
"105 389 OFFCURVE",
"119 372 OFFCURVE",
"152 346 OFFCURVE",
"167 334 OFFCURVE",
"207 309 OFFCURVE",
"218 303 OFFCURVE",
"239 290 QCURVE SMOOTH",
"249 285 OFFCURVE",
"280 268 OFFCURVE",
"299 257 OFFCURVE",
"324 241 OFFCURVE",
"339 228 OFFCURVE",
"357 208 OFFCURVE",
"366 188 OFFCURVE",
"372 161 OFFCURVE",
"372 146 QCURVE SMOOTH",
"372 90 OFFCURVE",
"303 24 OFFCURVE",
"252 24 QCURVE SMOOTH",
"218 24 OFFCURVE",
"161 49 OFFCURVE",
"127 84 OFFCURVE",
"101 130 OFFCURVE",
"89 163 OFFCURVE",
"86 177 QCURVE",
"85 186 OFFCURVE",
"75 186 QCURVE SMOOTH",
"61 186 OFFCURVE",
"49 174 QCURVE",
"49 162 OFFCURVE",
"62 59 OFFCURVE",
"70 19 QCURVE",
"81 17 OFFCURVE",
"136 4 OFFCURVE",
"172 -3 OFFCURVE",
"227 -10 OFFCURVE",
"250 -10 QCURVE SMOOTH",
"290 -10 OFFCURVE",
"366 17 OFFCURVE",
"424 64 OFFCURVE",
"459 133 OFFCURVE",
"459 173 QCURVE SMOOTH",
"459 191 OFFCURVE",
"449 226 OFFCURVE",
"434 253 OFFCURVE",
"408 281 OFFCURVE",
"386 301 OFFCURVE",
"352 325 OFFCURVE",
"329 339 OFFCURVE",
"293 361 OFFCURVE",
"285 366 QCURVE SMOOTH",
"277 372 OFFCURVE",
"244 391 OFFCURVE",
"226 403 OFFCURVE",
"198 422 OFFCURVE",
"182 437 OFFCURVE",
"163 459 OFFCURVE",
"152 480 OFFCURVE",
"145 507 OFFCURVE",
"145 521 QCURVE SMOOTH",
"145 541 OFFCURVE",
"157 578 OFFCURVE",
"181 612 OFFCURVE",
"225 632 OFFCURVE",
"254 632 QCURVE SMOOTH",
"279 632 OFFCURVE",
"323 612 OFFCURVE",
"354 581 OFFCURVE",
"379 542 OFFCURVE",
"392 505 OFFCURVE",
"394 489 QCURVE",
"398 485 OFFCURVE",
"405 485 QCURVE SMOOTH",
"412 485 OFFCURVE",
"427 492 OFFCURVE",
"426 496 QCURVE SMOOTH",
"419 595 OFFCURVE",
"412 638 QCURVE",
"394 642 OFFCURVE",
"347 655 OFFCURVE",
"322 661 OFFCURVE",
"283 666 OFFCURVE",
"261 666 QCURVE SMOOTH",
"211 666 OFFCURVE",
"122 623 OFFCURVE",
"65 541 OFFCURVE",
"65 490 QCURVE SMOOTH"
);
}
);
width = 502;
}
);
leftKerningGroup = S;
note = S;
rightKerningGroup = S;
unicode = 0053;
changeCount = 1;
},
{
glyphname = T;
lastChange = "2018-03-06 12:35:50 +0000";
layers = (
{
layerId = "A76CE8C3-CC1A-4246-BAA7-4C4431E1D24E";
paths = (
{
closed = 1;
nodes = (
"106 661 OFFCURVE",
"71 670 OFFCURVE",
"61 675 QCURVE SMOOTH",
"47 682 OFFCURVE",
"38 678 QCURVE",
"26 574 OFFCURVE",
"12 506 QCURVE",
"20 498 OFFCURVE",
"31 499 QCURVE",
"42 499 OFFCURVE",
"45 504 QCURVE",
"56 560 OFFCURVE",
"105 626 OFFCURVE",
"141 626 QCURVE SMOOTH",
"270 626 LINE",
"270 116 LINE SMOOTH",
"270 58 OFFCURVE",
"265 42 QCURVE SMOOTH",
"263 35 OFFCURVE",
"211 26 OFFCURVE",
"196 26 QCURVE",
"193 22 OFFCURVE",
"193 1 OFFCURVE",
"196 -3 QCURVE",
"299 2 OFFCURVE",
"314 2 QCURVE SMOOTH",
"329 2 OFFCURVE",
"431 -3 QCURVE",
"435 1 OFFCURVE",
"434 22 OFFCURVE",
"431 26 QCURVE",
"416 26 OFFCURVE",
"364 35 OFFCURVE",
"362 42 QCURVE SMOOTH",
"357 58 OFFCURVE",
"357 116 QCURVE SMOOTH",
"357 626 LINE",
"484 626 LINE SMOOTH",
"520 626 OFFCURVE",
"569 560 OFFCURVE",
"580 504 QCURVE",
"584 499 OFFCURVE",
"594 499 QCURVE",
"605 498 OFFCURVE",
"613 506 QCURVE",
"599 574 OFFCURVE",
"587 678 QCURVE",
"580 682 OFFCURVE",
"568 676 QCURVE SMOOTH",
"559 671 OFFCURVE",
"520 661 OFFCURVE",
"508 661 QCURVE SMOOTH",
"117 661 LINE SMOOTH"
);
}
);
width = 626;
}
);
leftKerningGroup = T;
note = T;
rightKerningGroup = T;
unicode = 0054;
changeCount = 1;
},
{
glyphname = U;
lastChange = "2018-03-06 12:35:50 +0000";
layers = (
{
layerId = "A76CE8C3-CC1A-4246-BAA7-4C4431E1D24E";
paths = (
{
closed = 1;
nodes = (
"26 658 OFFCURVE",
"27 637 OFFCURVE",
"30 633 QCURVE",
"45 633 OFFCURVE",
"97 624 OFFCURVE",
"99 617 QCURVE SMOOTH",
"104 601 OFFCURVE",
"104 543 QCURVE SMOOTH",
"104 251 LINE SMOOTH",
"104 132 OFFCURVE",
"177 62 QCURVE SMOOTH",
"246 -4 OFFCURVE",
"356 -4 QCURVE SMOOTH",
"479 -4 OFFCURVE",
"617 132 OFFCURVE",
"617 276 QCURVE SMOOTH",
"617 546 LINE SMOOTH",
"617 577 OFFCURVE",
"620 604 OFFCURVE",
"627 614 QCURVE",
"631 622 OFFCURVE",
"691 634 OFFCURVE",
"705 634 QCURVE",
"712 651 OFFCURVE",
"705 663 QCURVE",
"688 663 OFFCURVE",
"650 660 OFFCURVE",
"618 658 OFFCURVE",
"598 658 QCURVE SMOOTH",
"587 658 OFFCURVE",
"487 663 QCURVE",
"485 659 OFFCURVE",
"485 639 OFFCURVE",
"489 634 QCURVE",
"503 634 OFFCURVE",
"557 621 OFFCURVE",
"561 614 QCURVE",
"568 603 OFFCURVE",
"571 576 OFFCURVE",
"571 545 QCURVE SMOOTH",
"571 274 LINE SMOOTH",
"567 54 OFFCURVE",
"377 54 QCURVE SMOOTH",
"287 54 OFFCURVE",
"240 112 QCURVE SMOOTH",
"191 173 OFFCURVE",
"191 296 QCURVE SMOOTH",
"191 543 LINE SMOOTH",
"191 601 OFFCURVE",
"196 617 QCURVE SMOOTH",
"198 624 OFFCURVE",
"250 633 OFFCURVE",
"265 633 QCURVE",
"268 637 OFFCURVE",
"268 658 OFFCURVE",
"265 662 QCURVE",
"162 657 OFFCURVE",
"148 657 QCURVE SMOOTH",
"132 657 OFFCURVE",
"30 662 QCURVE"
);
}
);
width = 723;
}
);
leftKerningGroup = U;
note = U;
rightKerningGroup = U;
unicode = 0055;
changeCount = 1;
},
{
glyphname = V;
lastChange = "2018-03-06 12:35:50 +0000";
layers = (
{
layerId = "A76CE8C3-CC1A-4246-BAA7-4C4431E1D24E";
paths = (
{
closed = 1;
nodes = (
"-8 661 OFFCURVE",
"-8 633 OFFCURVE",
"-7 633 QCURVE SMOOTH",
"7 633 OFFCURVE",
"51 621 OFFCURVE",
"58 610 QCURVE SMOOTH",
"80 577 OFFCURVE",
"104 514 QCURVE SMOOTH",
"147 403 OFFCURVE",
"274 66 OFFCURVE",
"294 14 QCURVE",
"296 9 LINE",
"298 4 OFFCURVE",
"302 -2 OFFCURVE",
"304 -2 QCURVE SMOOTH",
"328 -2 OFFCURVE",
"342 32 QCURVE SMOOTH",
"452 295 OFFCURVE",
"536 506 QCURVE SMOOTH",
"567 585 OFFCURVE",
"586 607 QCURVE SMOOTH",
"597 620 OFFCURVE",
"639 633 OFFCURVE",
"650 633 QCURVE SMOOTH",
"652 633 OFFCURVE",
"654 658 OFFCURVE",
"652 662 QCURVE",
"637 662 OFFCURVE",
"604 659 OFFCURVE",
"574 657 OFFCURVE",
"554 657 QCURVE SMOOTH",
"524 657 OFFCURVE",
"450 661 QCURVE",
"446 657 OFFCURVE",
"446 634 OFFCURVE",
"450 632 QCURVE",
"456 632 OFFCURVE",
"475 629 OFFCURVE",
"499 621 OFFCURVE",
"516 604 OFFCURVE",
"516 593 QCURVE SMOOTH",
"516 569 OFFCURVE",
"498 523 QCURVE SMOOTH",
"470 453 OFFCURVE",
"394 264 OFFCURVE",
"342 136 OFFCURVE",
"338 129 QCURVE",
"283 277 OFFCURVE",
"189 532 QCURVE SMOOTH",
"172 580 OFFCURVE",
"172 600 QCURVE SMOOTH",
"172 610 OFFCURVE",
"188 624 OFFCURVE",
"210 631 OFFCURVE",
"227 633 OFFCURVE",
"232 633 QCURVE",
"235 634 OFFCURVE",
"235 658 OFFCURVE",
"234 662 QCURVE",
"134 657 OFFCURVE",
"110 657 QCURVE SMOOTH",
"89 657 OFFCURVE",
"54 659 OFFCURVE",
"10 662 OFFCURVE",
"-7 662 QCURVE"
);
}
);
width = 638;
}
);
leftKerningGroup = V;
note = V;
rightKerningGroup = V;
unicode = 0056;
changeCount = 1;
},
{
glyphname = W;
lastChange = "2018-03-06 12:35:50 +0000";
layers = (
{
layerId = "A76CE8C3-CC1A-4246-BAA7-4C4431E1D24E";
paths = (
{
closed = 1;
nodes = (
"-6 661 OFFCURVE",
"-6 633 OFFCURVE",
"-5 633 QCURVE SMOOTH",
"7 633 OFFCURVE",
"44 622 OFFCURVE",
"54 613 QCURVE SMOOTH",
"58 609 OFFCURVE",
"64 602 OFFCURVE",
"70 590 OFFCURVE",
"74 584 OFFCURVE",
"80 566 OFFCURVE",
"82 560 OFFCURVE",
"89 536 OFFCURVE",
"90 532 QCURVE",
"109 471 OFFCURVE",
"216 121 OFFCURVE",
"250 14 QCURVE",
"251 10 OFFCURVE",
"257 -2 OFFCURVE",
"260 -2 QCURVE SMOOTH",
"270 -2 OFFCURVE",
"294 19 OFFCURVE",
"298 32 QCURVE SMOOTH",
"325 124 OFFCURVE",
"422 421 OFFCURVE",
"448 508 QCURVE",
"448 510 OFFCURVE",
"473 434 OFFCURVE",
"511 318 OFFCURVE",
"554 186 OFFCURVE",
"598 55 OFFCURVE",
"612 14 QCURVE",
"613 10 OFFCURVE",
"619 -2 OFFCURVE",
"622 -2 QCURVE SMOOTH",
"632 -2 OFFCURVE",
"656 19 OFFCURVE",
"660 32 QCURVE SMOOTH",
"689 131 OFFCURVE",
"780 452 OFFCURVE",
"803 531 QCURVE SMOOTH",
"821 592 OFFCURVE",
"839 607 QCURVE SMOOTH",
"852 618 OFFCURVE",
"894 633 OFFCURVE",
"903 633 QCURVE SMOOTH",
"905 633 OFFCURVE",
"907 658 OFFCURVE",
"905 662 QCURVE",
"890 662 OFFCURVE",
"858 659 OFFCURVE",
"830 657 OFFCURVE",
"810 657 QCURVE SMOOTH",
"794 657 OFFCURVE",
"702 662 QCURVE",
"698 658 OFFCURVE",
"698 635 OFFCURVE",
"702 633 QCURVE",
"708 633 OFFCURVE",
"728 630 OFFCURVE",
"752 622 OFFCURVE",
"770 605 OFFCURVE",
"770 594 QCURVE SMOOTH",
"770 572 OFFCURVE",
"758 524 QCURVE SMOOTH",
"741 461 OFFCURVE",
"710 351 OFFCURVE",
"668 203 OFFCURVE",
"653 151 QCURVE",
"626 232 OFFCURVE",
"494 646 QCURVE",
"487 662 OFFCURVE",
"482 662 QCURVE SMOOTH",
"473 662 OFFCURVE",
"450 643 OFFCURVE",
"446 629 QCURVE SMOOTH",
"433 585 OFFCURVE",
"320 231 OFFCURVE",
"295 148 QCURVE",
"277 209 OFFCURVE",
"191 490 OFFCURVE",
"179 535 QCURVE SMOOTH",
"164 591 OFFCURVE",
"164 610 OFFCURVE",
"180 624 OFFCURVE",
"202 631 OFFCURVE",
"219 633 OFFCURVE",
"224 633 QCURVE",
"227 634 OFFCURVE",
"227 658 OFFCURVE",
"226 662 QCURVE",
"213 662 OFFCURVE",
"171 659 OFFCURVE",
"137 657 OFFCURVE",
"118 657 QCURVE SMOOTH",
"111 657 OFFCURVE",
"-5 662 QCURVE"
);
}
);
width = 900;
}
);
leftKerningGroup = W;
note = W;
rightKerningGroup = W;
unicode = 0057;
changeCount = 1;
},
{
glyphname = X;
lastChange = "2018-03-06 12:35:50 +0000";
layers = (
{
layerId = "A76CE8C3-CC1A-4246-BAA7-4C4431E1D24E";
paths = (
{
closed = 1;
nodes = (
"31 658 OFFCURVE",
"31 633 OFFCURVE",
"35 633 QCURVE SMOOTH",
"45 633 OFFCURVE",
"79 624 OFFCURVE",
"91 617 QCURVE SMOOTH",
"111 606 OFFCURVE",
"139 576 OFFCURVE",
"157 548 QCURVE SMOOTH",
"298 332 LINE",
"272 298 OFFCURVE",
"198 198 OFFCURVE",
"135 113 OFFCURVE",
"102 70 QCURVE SMOOTH",
"84 47 OFFCURVE",
"12 26 OFFCURVE",
"-6 26 QCURVE",
"-8 24 OFFCURVE",
"-10 2 OFFCURVE",
"-8 -3 QCURVE",
"93 2 OFFCURVE",
"116 2 QCURVE SMOOTH",
"136 2 OFFCURVE",
"229 -3 QCURVE",
"230 -1 OFFCURVE",
"230 22 OFFCURVE",
"227 26 QCURVE",
"200 26 OFFCURVE",
"164 33 OFFCURVE",
"150 44 OFFCURVE",
"150 50 QCURVE SMOOTH",
"150 51 OFFCURVE",
"155 66 QCURVE",
"165 86 OFFCURVE",
"272 237 OFFCURVE",
"320 301 QCURVE",
"473 66 LINE",
"478 56 OFFCURVE",
"478 54 QCURVE SMOOTH",
"478 42 OFFCURVE",
"433 26 OFFCURVE",
"420 26 QCURVE SMOOTH",
"416 26 OFFCURVE",
"416 1 OFFCURVE",
"420 -3 QCURVE",
"439 -3 OFFCURVE",
"496 1 OFFCURVE",
"541 2 OFFCURVE",
"566 2 QCURVE SMOOTH",
"584 2 OFFCURVE",
"616 1 OFFCURVE",
"655 -3 OFFCURVE",
"669 -3 QCURVE",
"670 -1 OFFCURVE",
"670 22 OFFCURVE",
"668 26 QCURVE",
"639 26 OFFCURVE",
"583 46 OFFCURVE",
"570 66 QCURVE SMOOTH",
"373 360 LINE",
"466 484 OFFCURVE",
"557 592 QCURVE SMOOTH",
"570 608 OFFCURVE",
"613 628 OFFCURVE",
"638 632 OFFCURVE",
"646 632 QCURVE",
"650 636 OFFCURVE",
"650 658 OFFCURVE",
"648 661 QCURVE",
"588 656 OFFCURVE",
"538 656 QCURVE SMOOTH",
"501 656 OFFCURVE",
"434 661 QCURVE",
"432 656 OFFCURVE",
"433 633 OFFCURVE",
"436 632 QCURVE",
"462 632 OFFCURVE",
"494 622 OFFCURVE",
"504 612 OFFCURVE",
"504 606 QCURVE SMOOTH",
"504 597 OFFCURVE",
"499 590 QCURVE SMOOTH",
"490 576 OFFCURVE",
"456 529 OFFCURVE",
"425 487 OFFCURVE",
"370 415 OFFCURVE",
"354 393 QCURVE",
"238 571 LINE",
"226 588 OFFCURVE",
"226 601 QCURVE SMOOTH",
"226 613 OFFCURVE",
"251 629 OFFCURVE",
"276 633 OFFCURVE",
"286 633 QCURVE SMOOTH",
"289 633 OFFCURVE",
"290 658 OFFCURVE",
"288 662 QCURVE",
"188 657 OFFCURVE",
"160 657 QCURVE SMOOTH",
"138 657 OFFCURVE",
"100 659 OFFCURVE",
"52 662 OFFCURVE",
"35 662 QCURVE"
);
}
);
width = 668;
}
);
leftKerningGroup = X;
note = X;
rightKerningGroup = X;
unicode = 0058;
changeCount = 1;
},
{
glyphname = Y;
lastChange = "2018-03-06 12:35:50 +0000";
layers = (
{
layerId = "A76CE8C3-CC1A-4246-BAA7-4C4431E1D24E";
paths = (
{
closed = 1;
nodes = (
"254 35 OFFCURVE",
"202 26 OFFCURVE",
"187 26 QCURVE",
"184 22 OFFCURVE",
"184 1 OFFCURVE",
"187 -3 QCURVE",
"290 2 OFFCURVE",
"305 2 QCURVE SMOOTH",
"320 2 OFFCURVE",
"422 -3 QCURVE",
"426 1 OFFCURVE",
"425 22 OFFCURVE",
"422 26 QCURVE",
"407 26 OFFCURVE",
"355 35 OFFCURVE",
"353 42 QCURVE SMOOTH",
"348 58 OFFCURVE",
"348 116 QCURVE SMOOTH",
"349 270 LINE SMOOTH",
"349 292 OFFCURVE",
"354 301 QCURVE SMOOTH",
"482 539 OFFCURVE",
"512 592 QCURVE SMOOTH",
"520 606 OFFCURVE",
"548 624 OFFCURVE",
"579 631 OFFCURVE",
"594 632 OFFCURVE",
"601 632 QCURVE SMOOTH",
"603 632 OFFCURVE",
"605 657 OFFCURVE",
"603 661 QCURVE",
"590 661 OFFCURVE",
"551 658 OFFCURVE",
"517 656 OFFCURVE",
"493 656 QCURVE SMOOTH",
"486 656 OFFCURVE",
"393 661 QCURVE",
"392 659 OFFCURVE",
"393 632 OFFCURVE",
"395 632 QCURVE SMOOTH",
"421 632 OFFCURVE",
"455 622 OFFCURVE",
"465 611 OFFCURVE",
"465 605 QCURVE SMOOTH",
"465 597 OFFCURVE",
"462 590 QCURVE SMOOTH",
"450 560 OFFCURVE",
"366 392 OFFCURVE",
"332 331 QCURVE",
"193 571 LINE SMOOTH",
"181 591 OFFCURVE",
"181 601 QCURVE SMOOTH",
"181 613 OFFCURVE",
"207 629 OFFCURVE",
"232 633 OFFCURVE",
"241 633 QCURVE SMOOTH",
"245 633 OFFCURVE",
"245 658 OFFCURVE",
"243 662 QCURVE",
"143 657 OFFCURVE",
"115 657 QCURVE SMOOTH",
"93 657 OFFCURVE",
"55 659 OFFCURVE",
"7 662 OFFCURVE",
"-10 662 QCURVE",
"-14 658 OFFCURVE",
"-14 633 OFFCURVE",
"-10 633 QCURVE SMOOTH",
"0 633 OFFCURVE",
"34 624 OFFCURVE",
"46 617 QCURVE SMOOTH",
"68 605 OFFCURVE",
"97 575 OFFCURVE",
"112 548 QCURVE SMOOTH",
"139 501 OFFCURVE",
"223 352 OFFCURVE",
"254 295 QCURVE",
"261 281 OFFCURVE",
"261 267 QCURVE SMOOTH",
"261 116 LINE SMOOTH",
"261 58 OFFCURVE",
"256 42 QCURVE SMOOTH"
);
}
);
width = 598;
}
);
leftKerningGroup = Y;
note = Y;
rightKerningGroup = Y;
unicode = 0059;
changeCount = 1;
},
{
glyphname = Z;
lastChange = "2018-03-06 12:35:50 +0000";
layers = (
{
layerId = "A76CE8C3-CC1A-4246-BAA7-4C4431E1D24E";
paths = (
{
closed = 1;
nodes = (
"35 14 LINE SMOOTH",
"32 10 OFFCURVE",
"45 0 OFFCURVE",
"53 0 QCURVE SMOOTH",
"554 0 LINE",
"558 18 OFFCURVE",
"569 56 OFFCURVE",
"578 84 OFFCURVE",
"595 141 OFFCURVE",
"602 163 QCURVE",
"593 172 OFFCURVE",
"578 172 QCURVE SMOOTH",
"566 172 OFFCURVE",
"564 169 QCURVE",
"564 169 OFFCURVE",
"556 148 OFFCURVE",
"554 143 OFFCURVE",
"546 124 OFFCURVE",
"542 116 OFFCURVE",
"533 99 OFFCURVE",
"526 89 OFFCURVE",
"516 76 OFFCURVE",
"511 71 QCURVE SMOOTH",
"477 35 OFFCURVE",
"418 35 QCURVE SMOOTH",
"157 35 LINE",
"262 187 LINE SMOOTH",
"367 339 OFFCURVE",
"473 492 QCURVE SMOOTH",
"579 646 OFFCURVE",
"580 649 QCURVE",
"580 655 OFFCURVE",
"566 670 OFFCURVE",
"562 671 QCURVE",
"422 661 OFFCURVE",
"352 661 QCURVE SMOOTH",
"158 661 LINE SMOOTH",
"132 661 OFFCURVE",
"76 669 QCURVE",
"67 563 OFFCURVE",
"43 499 QCURVE",
"46 497 OFFCURVE",
"63 491 OFFCURVE",
"69 491 QCURVE SMOOTH",
"78 491 OFFCURVE",
"80 495 QCURVE",
"97 558 OFFCURVE",
"166 626 OFFCURVE",
"216 626 QCURVE SMOOTH",
"460 626 LINE"
);
}
);
width = 633;
}
);
leftKerningGroup = Z;
note = Z;
rightKerningGroup = Z;
unicode = 005A;
changeCount = 1;
},
{
glyphname = bracketleft;
lastChange = "2018-03-06 12:35:50 +0000";
layers = (
{
layerId = "A76CE8C3-CC1A-4246-BAA7-4C4431E1D24E";
paths = (
{
closed = 1;
nodes = (
"150 719 OFFCURVE",
"150 704 QCURVE SMOOTH",
"150 -366 LINE",
"153 -387 OFFCURVE",
"169 -389 QCURVE",
"199 -389 OFFCURVE",
"232 -390 QCURVE SMOOTH",
"322 -395 LINE",
"323 -394 LINE",
"324 -391 OFFCURVE",
"324 -391 QCURVE",
"325 -389 OFFCURVE",
"325 -386 QCURVE SMOOTH",
"325 -376 OFFCURVE",
"315 -370 QCURVE",
"298 -364 OFFCURVE",
"265 -358 QCURVE",
"198 -347 OFFCURVE",
"198 -347 QCURVE",
"198 685 LINE",
"277 695 OFFCURVE",
"315 708 QCURVE",
"316 708 OFFCURVE",
"317 709 QCURVE SMOOTH",
"325 713 OFFCURVE",
"325 724 QCURVE SMOOTH",
"325 726 OFFCURVE",
"325 728 QCURVE",
"322 733 OFFCURVE",
"322 733 QCURVE",
"169 727 OFFCURVE",
"169 727 QCURVE SMOOTH",
"164 727 OFFCURVE",
"160 725 QCURVE SMOOTH"
);
}
);
width = 370;
}
);
note = bracketleft;
rightKerningGroup = bracketleft;
unicode = 005B;
changeCount = 1;
},
{
glyphname = backslash;
lastChange = "2018-03-06 12:35:50 +0000";
layers = (
{
layerId = "A76CE8C3-CC1A-4246-BAA7-4C4431E1D24E";
paths = (
{
closed = 1;
nodes = (
"281 -168 LINE SMOOTH",
"283 -175 OFFCURVE",
"294 -183 QCURVE SMOOTH",
"305 -191 OFFCURVE",
"320 -191 QCURVE SMOOTH",
"326 -191 OFFCURVE",
"335 -187 OFFCURVE",
"336 -185 QCURVE",
"338 -184 LINE",
"84 704 LINE SMOOTH",
"84 706 OFFCURVE",
"74 713 OFFCURVE",
"55 719 OFFCURVE",
"44 719 QCURVE SMOOTH",
"34 719 OFFCURVE",
"31 710 QCURVE"
);
}
);
width = 353;
}
);
leftKerningGroup = backslash;
note = backslash;
rightKerningGroup = backslash;
unicode = 005C;
changeCount = 1;
},
{
glyphname = bracketright;
lastChange = "2018-03-06 12:35:50 +0000";
layers = (
{
layerId = "A76CE8C3-CC1A-4246-BAA7-4C4431E1D24E";
paths = (
{
closed = 1;
nodes = (
"46 728 LINE",
"45 726 OFFCURVE",
"45 724 QCURVE SMOOTH",
"45 713 OFFCURVE",
"54 709 QCURVE SMOOTH",
"55 708 OFFCURVE",
"55 708 QCURVE",
"93 695 OFFCURVE",
"172 685 QCURVE",
"172 -347 LINE",
"105 -358 LINE",
"73 -364 OFFCURVE",
"55 -370 QCURVE",
"45 -376 OFFCURVE",
"45 -386 QCURVE SMOOTH",
"45 -389 OFFCURVE",
"46 -391 QCURVE",
"47 -394 LINE",
"48 -395 LINE",
"138 -390 LINE SMOOTH",
"171 -389 OFFCURVE",
"201 -389 QCURVE",
"218 -387 OFFCURVE",
"220 -366 QCURVE",
"220 704 LINE SMOOTH",
"220 719 OFFCURVE",
"211 725 QCURVE SMOOTH",
"207 727 OFFCURVE",
"201 727 QCURVE",
"48 733 LINE"
);
}
);
width = 370;
}
);
leftKerningGroup = bracketright;
note = bracketright;
unicode = 005D;
changeCount = 1;
},
{
glyphname = asciicircum;
lastChange = "2018-03-06 12:35:50 +0000";
layers = (
{
layerId = "A76CE8C3-CC1A-4246-BAA7-4C4431E1D24E";
paths = (
{
closed = 1;
nodes = (
"153 597 OFFCURVE",
"120 538 OFFCURVE",
"76 464 OFFCURVE",
"61 439 QCURVE",
"61 432 OFFCURVE",
"72 423 OFFCURVE",
"77 423 QCURVE",
"123 471 OFFCURVE",
"186 552 QCURVE",
"203 531 LINE SMOOTH",
"220 509 OFFCURVE",
"248 477 QCURVE SMOOTH",
"276 445 OFFCURVE",
"296 423 QCURVE",
"301 423 OFFCURVE",
"311 432 OFFCURVE",
"311 439 QCURVE",
"298 462 OFFCURVE",
"252 540 OFFCURVE",
"220 597 OFFCURVE",
"202 632 QCURVE SMOOTH",
"196 645 OFFCURVE",
"186 645 QCURVE SMOOTH",
"178 645 OFFCURVE",
"171 632 QCURVE SMOOTH"
);
}
);
width = 390;
}
);
note = asciicircum;
unicode = 005E;
changeCount = 1;
},
{
glyphname = underscore;
lastChange = "2018-03-06 12:35:50 +0000";
layers = (
{
layerId = "A76CE8C3-CC1A-4246-BAA7-4C4431E1D24E";
paths = (
{
closed = 1;
nodes = (
"466 -43 LINE",
"467 -43 LINE SMOOTH",
"468 -43 OFFCURVE",
"471 -40 OFFCURVE",
"472 -37 QCURVE",
"482 -1 OFFCURVE",
"482 8 QCURVE SMOOTH",
"482 13 OFFCURVE",
"478 13 QCURVE SMOOTH",
"29 13 LINE SMOOTH",
"19 13 OFFCURVE",
"14 -33 QCURVE",
"14 -43 OFFCURVE",
"21 -43 QCURVE SMOOTH"
);
}
);
width = 505;
}
);
note = underscore;
unicode = 005F;
changeCount = 1;
},
{
glyphname = a;
lastChange = "2018-03-06 12:35:50 +0000";
layers = (
{
layerId = "A76CE8C3-CC1A-4246-BAA7-4C4431E1D24E";
paths = (
{
closed = 1;
nodes = (
"120 144 OFFCURVE",
"153 183 OFFCURVE",
"181 194 QCURVE SMOOTH",
"197 200 OFFCURVE",
"274 223 QCURVE",
"274 87 LINE SMOOTH",
"274 79 OFFCURVE",
"212 46 OFFCURVE",
"187 46 QCURVE SMOOTH",
"159 46 OFFCURVE",
"120 88 OFFCURVE",
"120 116 QCURVE SMOOTH"
);
},
{
closed = 1;
nodes = (
"57 351 OFFCURVE",
"52 334 OFFCURVE",
"52 330 QCURVE SMOOTH",
"52 314 OFFCURVE",
"71 288 OFFCURVE",
"86 288 QCURVE SMOOTH",
"125 288 OFFCURVE",
"133 336 QCURVE SMOOTH",
"139 368 OFFCURVE",
"163 398 OFFCURVE",
"188 398 QCURVE SMOOTH",
"224 398 OFFCURVE",
"274 338 OFFCURVE",
"274 302 QCURVE SMOOTH",
"274 275 LINE SMOOTH",
"274 262 OFFCURVE",
"270 253 OFFCURVE",
"262 250 QCURVE",
"249 244 OFFCURVE",
"191 223 OFFCURVE",
"104 193 OFFCURVE",
"87 187 QCURVE SMOOTH",
"69 180 OFFCURVE",
"37 136 OFFCURVE",
"37 107 QCURVE SMOOTH",
"37 59 OFFCURVE",
"105 -8 OFFCURVE",
"154 -8 QCURVE SMOOTH",
"177 -8 OFFCURVE",
"263 45 OFFCURVE",
"277 59 QCURVE",
"282 35 OFFCURVE",
"317 -6 OFFCURVE",
"338 -6 QCURVE SMOOTH",
"352 -6 OFFCURVE",
"402 22 OFFCURVE",
"413 32 QCURVE",
"418 41 OFFCURVE",
"418 51 QCURVE SMOOTH",
"418 59 OFFCURVE",
"414 59 QCURVE SMOOTH",
"414 59 OFFCURVE",
"410 56 OFFCURVE",
"407 54 OFFCURVE",
"400 50 OFFCURVE",
"394 48 OFFCURVE",
"386 46 OFFCURVE",
"381 46 QCURVE SMOOTH",
"350 46 OFFCURVE",
"350 93 QCURVE SMOOTH",
"350 299 LINE SMOOTH",
"350 356 OFFCURVE",
"285 436 OFFCURVE",
"241 436 QCURVE SMOOTH",
"193 436 OFFCURVE",
"90 383 OFFCURVE",
"59 354 QCURVE"
);
}
);
width = 431;
}
);
leftKerningGroup = a;
note = a;
rightKerningGroup = a;
unicode = 0061;
changeCount = 1;
},
{
glyphname = b;
lastChange = "2018-03-06 12:35:50 +0000";
layers = (
{
layerId = "A76CE8C3-CC1A-4246-BAA7-4C4431E1D24E";
paths = (
{
closed = 1;
nodes = (
"459 268 OFFCURVE",
"435 339 OFFCURVE",
"390 400 OFFCURVE",
"319 438 OFFCURVE",
"276 438 QCURVE SMOOTH",
"251 438 OFFCURVE",
"175 399 OFFCURVE",
"155 384 QCURVE",
"152 383 OFFCURVE",
"150 383 OFFCURVE",
"149 388 OFFCURVE",
"149 391 OFFCURVE",
"149 394 QCURVE SMOOTH",
"149 591 LINE SMOOTH",
"149 646 OFFCURVE",
"160 678 QCURVE",
"160 684 OFFCURVE",
"152 694 OFFCURVE",
"149 694 QCURVE",
"76 661 OFFCURVE",
"7 654 QCURVE",
"5 654 OFFCURVE",
"4 641 OFFCURVE",
"5 628 OFFCURVE",
"6 628 QCURVE SMOOTH",
"59 628 OFFCURVE",
"67 610 QCURVE SMOOTH",
"72 598 OFFCURVE",
"72 558 QCURVE SMOOTH",
"72 110 LINE SMOOTH",
"72 63 OFFCURVE",
"60 36 QCURVE",
"60 32 OFFCURVE",
"69 14 OFFCURVE",
"73 14 QCURVE",
"78 16 OFFCURVE",
"90 18 OFFCURVE",
"99 18 OFFCURVE",
"113 15 OFFCURVE",
"119 14 OFFCURVE",
"135 9 OFFCURVE",
"138 8 QCURVE",
"190 -7 OFFCURVE",
"212 -7 QCURVE SMOOTH",
"264 -7 OFFCURVE",
"356 32 OFFCURVE",
"421 96 OFFCURVE",
"459 185 OFFCURVE",
"459 233 QCURVE SMOOTH"
);
},
{
closed = 1;
nodes = (
"375 154 OFFCURVE",
"339 77 OFFCURVE",
"277 27 OFFCURVE",
"207 27 OFFCURVE",
"149 68 OFFCURVE",
"149 98 QCURVE SMOOTH",
"149 341 LINE SMOOTH",
"149 347 OFFCURVE",
"154 352 QCURVE SMOOTH",
"162 360 OFFCURVE",
"210 379 OFFCURVE",
"228 379 QCURVE SMOOTH",
"295 379 OFFCURVE",
"375 281 OFFCURVE",
"375 194 QCURVE SMOOTH"
);
}
);
width = 498;
}
);
leftKerningGroup = b;
note = b;
rightKerningGroup = b;
unicode = 0062;
changeCount = 1;
},
{
glyphname = c;
lastChange = "2018-03-06 12:35:50 +0000";
layers = (
{
layerId = "A76CE8C3-CC1A-4246-BAA7-4C4431E1D24E";
paths = (
{
closed = 1;
nodes = (
"336 438 OFFCURVE",
"282 438 QCURVE SMOOTH",
"251 438 OFFCURVE",
"183 416 OFFCURVE",
"120 372 OFFCURVE",
"70 314 OFFCURVE",
"39 236 OFFCURVE",
"39 194 QCURVE SMOOTH",
"39 142 OFFCURVE",
"89 50 OFFCURVE",
"183 -8 OFFCURVE",
"241 -8 QCURVE SMOOTH",
"269 -8 OFFCURVE",
"319 10 OFFCURVE",
"355 38 OFFCURVE",
"379 64 OFFCURVE",
"387 77 QCURVE SMOOTH",
"393 87 OFFCURVE",
"393 95 QCURVE SMOOTH",
"393 99 OFFCURVE",
"390 106 OFFCURVE",
"386 109 OFFCURVE",
"385 109 QCURVE",
"370 91 OFFCURVE",
"315 58 OFFCURVE",
"279 58 QCURVE SMOOTH",
"208 58 OFFCURVE",
"117 143 OFFCURVE",
"117 227 QCURVE SMOOTH",
"117 302 OFFCURVE",
"186 394 OFFCURVE",
"229 394 QCURVE SMOOTH",
"248 394 OFFCURVE",
"269 387 OFFCURVE",
"286 375 QCURVE SMOOTH",
"292 372 OFFCURVE",
"314 351 OFFCURVE",
"334 338 OFFCURVE",
"344 338 QCURVE SMOOTH",
"359 338 OFFCURVE",
"382 362 OFFCURVE",
"382 386 QCURVE SMOOTH",
"382 393 OFFCURVE",
"376 411 OFFCURVE",
"372 414 QCURVE"
);
}
);
width = 423;
}
);
leftKerningGroup = c;
note = c;
rightKerningGroup = c;
unicode = 0063;
changeCount = 1;
},
{
glyphname = d;
lastChange = "2018-03-06 12:35:50 +0000";
layers = (
{
layerId = "A76CE8C3-CC1A-4246-BAA7-4C4431E1D24E";
paths = (
{
closed = 1;
nodes = (
"39 117 OFFCURVE",
"145 -8 OFFCURVE",
"215 -8 QCURVE SMOOTH",
"247 -8 OFFCURVE",
"333 36 OFFCURVE",
"348 52 QCURVE",
"350 53 OFFCURVE",
"351 46 QCURVE",
"351 11 LINE SMOOTH",
"351 -8 OFFCURVE",
"359 -8 QCURVE",
"368 -6 LINE SMOOTH",
"377 -3 OFFCURVE",
"391 1 QCURVE SMOOTH",
"405 5 OFFCURVE",
"437 13 OFFCURVE",
"475 19 OFFCURVE",
"489 20 QCURVE",
"492 20 OFFCURVE",
"497 32 OFFCURVE",
"497 35 QCURVE SMOOTH",
"497 46 OFFCURVE",
"494 47 QCURVE",
"494 47 OFFCURVE",
"476 49 OFFCURVE",
"457 51 OFFCURVE",
"438 59 OFFCURVE",
"435 65 QCURVE",
"428 82 OFFCURVE",
"428 163 QCURVE SMOOTH",
"428 591 LINE SMOOTH",
"428 646 OFFCURVE",
"439 678 QCURVE",
"439 684 OFFCURVE",
"432 694 OFFCURVE",
"428 694 QCURVE",
"355 661 OFFCURVE",
"286 654 QCURVE",
"284 654 OFFCURVE",
"284 641 OFFCURVE",
"285 628 OFFCURVE",
"285 628 QCURVE SMOOTH",
"339 628 OFFCURVE",
"346 610 QCURVE SMOOTH",
"351 598 OFFCURVE",
"351 558 QCURVE SMOOTH",
"351 449 LINE SMOOTH",
"351 428 OFFCURVE",
"346 428 QCURVE",
"338 431 OFFCURVE",
"292 438 OFFCURVE",
"277 438 QCURVE SMOOTH",
"243 438 OFFCURVE",
"161 402 OFFCURVE",
"88 342 OFFCURVE",
"39 253 OFFCURVE",
"39 206 QCURVE SMOOTH"
);
},
{
closed = 1;
nodes = (
"351 94 LINE SMOOTH",
"351 81 OFFCURVE",
"296 54 OFFCURVE",
"264 54 QCURVE SMOOTH",
"199 54 OFFCURVE",
"123 156 OFFCURVE",
"123 230 QCURVE SMOOTH",
"123 297 OFFCURVE",
"191 396 OFFCURVE",
"245 396 QCURVE SMOOTH",
"286 396 OFFCURVE",
"351 365 OFFCURVE",
"351 347 QCURVE SMOOTH"
);
}
);
width = 515;
}
);
leftKerningGroup = d;
note = d;
rightKerningGroup = d;
unicode = 0064;
changeCount = 1;
},
{
glyphname = e;
lastChange = "2018-03-06 12:35:50 +0000";
layers = (
{
layerId = "A76CE8C3-CC1A-4246-BAA7-4C4431E1D24E";
paths = (
{
closed = 1;
nodes = (
"242 402 OFFCURVE",
"276 380 OFFCURVE",
"294 348 OFFCURVE",
"303 318 OFFCURVE",
"302 308 QCURVE SMOOTH",
"301 285 OFFCURVE",
"279 285 QCURVE SMOOTH",
"116 285 OFFCURVE",
"116 285 QCURVE SMOOTH",
"115 285 OFFCURVE",
"121 309 OFFCURVE",
"135 344 OFFCURVE",
"158 378 OFFCURVE",
"197 402 OFFCURVE",
"220 402 QCURVE SMOOTH"
);
},
{
closed = 1;
nodes = (
"377 256 OFFCURVE",
"387 279 OFFCURVE",
"387 302 QCURVE SMOOTH",
"387 316 OFFCURVE",
"379 348 OFFCURVE",
"358 387 OFFCURVE",
"326 417 OFFCURVE",
"271 438 OFFCURVE",
"237 438 QCURVE SMOOTH",
"204 438 OFFCURVE",
"134 401 OFFCURVE",
"77 339 OFFCURVE",
"40 249 OFFCURVE",
"40 200 QCURVE SMOOTH",
"40 111 OFFCURVE",
"153 -8 OFFCURVE",
"240 -8 QCURVE SMOOTH",
"268 -8 OFFCURVE",
"318 10 OFFCURVE",
"354 38 OFFCURVE",
"378 64 OFFCURVE",
"386 77 QCURVE SMOOTH",
"392 87 OFFCURVE",
"392 95 QCURVE SMOOTH",
"392 99 OFFCURVE",
"389 106 OFFCURVE",
"385 109 OFFCURVE",
"384 109 QCURVE",
"369 91 OFFCURVE",
"310 56 OFFCURVE",
"274 56 QCURVE SMOOTH",
"204 56 OFFCURVE",
"109 157 OFFCURVE",
"111 248 QCURVE",
"124 248 OFFCURVE",
"343 254 OFFCURVE",
"363 255 QCURVE"
);
}
);
width = 430;
}
);
leftKerningGroup = e;
note = e;
rightKerningGroup = e;
unicode = 0065;
changeCount = 1;
},
{
glyphname = f;
lastChange = "2018-03-06 12:35:50 +0000";
layers = (
{
layerId = "A76CE8C3-CC1A-4246-BAA7-4C4431E1D24E";
paths = (
{
closed = 1;
nodes = (
"97 419 LINE",
"60 419 LINE",
"56 415 OFFCURVE",
"34 390 OFFCURVE",
"34 387 QCURVE SMOOTH",
"34 378 OFFCURVE",
"39 378 QCURVE SMOOTH",
"97 378 LINE",
"97 116 LINE SMOOTH",
"97 58 OFFCURVE",
"92 42 QCURVE SMOOTH",
"90 35 OFFCURVE",
"43 26 OFFCURVE",
"29 26 QCURVE",
"26 22 OFFCURVE",
"25 1 OFFCURVE",
"29 -3 QCURVE",
"43 -3 OFFCURVE",
"85 1 OFFCURVE",
"117 2 OFFCURVE",
"135 2 QCURVE SMOOTH",
"143 2 OFFCURVE",
"246 -3 QCURVE",
"249 1 OFFCURVE",
"249 22 OFFCURVE",
"246 26 QCURVE",
"231 26 OFFCURVE",
"181 35 OFFCURVE",
"179 42 QCURVE SMOOTH",
"174 58 OFFCURVE",
"174 116 QCURVE SMOOTH",
"174 378 LINE",
"283 378 LINE",
"297 392 OFFCURVE",
"297 408 QCURVE SMOOTH",
"297 419 OFFCURVE",
"292 419 QCURVE SMOOTH",
"174 419 LINE",
"174 543 LINE",
"173 588 OFFCURVE",
"204 637 OFFCURVE",
"229 637 QCURVE SMOOTH",
"241 637 OFFCURVE",
"258 628 QCURVE SMOOTH",
"278 617 OFFCURVE",
"287 617 QCURVE SMOOTH",
"293 617 OFFCURVE",
"304 620 OFFCURVE",
"318 627 OFFCURVE",
"327 645 OFFCURVE",
"327 657 QCURVE SMOOTH",
"327 664 OFFCURVE",
"320 682 OFFCURVE",
"317 685 QCURVE",
"305 693 OFFCURVE",
"291 697 OFFCURVE",
"270 697 QCURVE SMOOTH",
"247 697 OFFCURVE",
"187 656 OFFCURVE",
"134 589 OFFCURVE",
"97 490 OFFCURVE",
"97 438 QCURVE SMOOTH"
);
}
);
width = 308;
}
);
leftKerningGroup = f;
note = f;
rightKerningGroup = f;
unicode = 0066;
changeCount = 1;
},
{
glyphname = g;
lastChange = "2018-03-06 12:35:50 +0000";
layers = (
{
layerId = "A76CE8C3-CC1A-4246-BAA7-4C4431E1D24E";
paths = (
{
closed = 1;
nodes = (
"308 237 OFFCURVE",
"262 167 OFFCURVE",
"223 167 QCURVE SMOOTH",
"180 167 OFFCURVE",
"127 243 OFFCURVE",
"127 292 QCURVE SMOOTH",
"127 338 OFFCURVE",
"175 409 OFFCURVE",
"215 409 QCURVE SMOOTH",
"259 409 OFFCURVE",
"308 332 OFFCURVE",
"308 281 QCURVE SMOOTH"
);
},
{
closed = 1;
nodes = (
"387 -108 OFFCURVE",
"341 -158 OFFCURVE",
"270 -188 OFFCURVE",
"236 -188 QCURVE SMOOTH",
"174 -188 OFFCURVE",
"102 -126 OFFCURVE",
"102 -76 QCURVE SMOOTH",
"102 -59 OFFCURVE",
"140 -22 OFFCURVE",
"162 -9 QCURVE SMOOTH",
"171 -4 OFFCURVE",
"255 -4 QCURVE SMOOTH",
"289 -4 OFFCURVE",
"342 -20 OFFCURVE",
"372 -44 OFFCURVE",
"387 -70 OFFCURVE",
"387 -81 QCURVE SMOOTH"
);
},
{
closed = 1;
nodes = (
"157 67 OFFCURVE",
"123 92 OFFCURVE",
"123 102 QCURVE SMOOTH",
"123 113 OFFCURVE",
"145 138 OFFCURVE",
"160 146 QCURVE",
"168 143 OFFCURVE",
"204 137 OFFCURVE",
"216 137 QCURVE SMOOTH",
"286 137 OFFCURVE",
"385 229 OFFCURVE",
"385 284 QCURVE SMOOTH",
"385 314 OFFCURVE",
"364 368 OFFCURVE",
"357 375 QCURVE",
"357 378 OFFCURVE",
"361 378 QCURVE",
"427 374 LINE",
"434 378 OFFCURVE",
"450 409 OFFCURVE",
"450 415 QCURVE SMOOTH",
"450 422 OFFCURVE",
"440 425 QCURVE",
"333 410 LINE",
"323 412 OFFCURVE",
"310 417 QCURVE",
"299 422 LINE SMOOTH",
"287 427 OFFCURVE",
"282 428 QCURVE",
"277 430 OFFCURVE",
"265 433 QCURVE SMOOTH",
"254 437 OFFCURVE",
"231 439 OFFCURVE",
"219 439 QCURVE SMOOTH",
"149 439 OFFCURVE",
"50 349 OFFCURVE",
"50 288 QCURVE SMOOTH",
"50 252 OFFCURVE",
"96 181 OFFCURVE",
"133 160 QCURVE",
"116 150 OFFCURVE",
"59 106 OFFCURVE",
"47 92 QCURVE",
"47 58 OFFCURVE",
"98 9 OFFCURVE",
"129 -1 QCURVE",
"114 -9 OFFCURVE",
"82 -29 OFFCURVE",
"46 -57 OFFCURVE",
"23 -90 OFFCURVE",
"23 -105 QCURVE SMOOTH",
"23 -144 OFFCURVE",
"77 -202 OFFCURVE",
"154 -228 OFFCURVE",
"196 -227 QCURVE SMOOTH",
"246 -227 OFFCURVE",
"344 -191 OFFCURVE",
"413 -136 OFFCURVE",
"456 -69 OFFCURVE",
"456 -38 QCURVE SMOOTH",
"456 4 OFFCURVE",
"361 67 OFFCURVE",
"301 67 QCURVE SMOOTH",
"183 67 LINE SMOOTH"
);
}
);
width = 466;
}
);
leftKerningGroup = g;
note = g;
rightKerningGroup = g;
unicode = 0067;
changeCount = 1;
},
{
glyphname = h;
lastChange = "2018-03-06 12:35:50 +0000";
layers = (
{
layerId = "A76CE8C3-CC1A-4246-BAA7-4C4431E1D24E";
paths = (
{
closed = 1;
nodes = (
"171 363 OFFCURVE",
"170 363 QCURVE SMOOTH",
"167 363 OFFCURVE",
"167 365 QCURVE SMOOTH",
"167 591 LINE SMOOTH",
"167 646 OFFCURVE",
"178 678 QCURVE",
"178 684 OFFCURVE",
"170 694 OFFCURVE",
"167 694 QCURVE",
"94 661 OFFCURVE",
"25 654 QCURVE",
"23 654 OFFCURVE",
"22 641 OFFCURVE",
"23 628 OFFCURVE",
"24 628 QCURVE SMOOTH",
"77 628 OFFCURVE",
"85 610 QCURVE SMOOTH",
"90 598 OFFCURVE",
"90 558 QCURVE SMOOTH",
"90 116 LINE SMOOTH",
"90 58 OFFCURVE",
"85 42 QCURVE SMOOTH",
"83 35 OFFCURVE",
"36 26 OFFCURVE",
"22 26 QCURVE",
"19 22 OFFCURVE",
"18 1 OFFCURVE",
"22 -3 QCURVE",
"36 -3 OFFCURVE",
"78 1 OFFCURVE",
"110 2 OFFCURVE",
"128 2 QCURVE SMOOTH",
"132 2 OFFCURVE",
"235 -3 QCURVE",
"238 1 OFFCURVE",
"238 22 OFFCURVE",
"235 26 QCURVE",
"220 26 OFFCURVE",
"174 35 OFFCURVE",
"172 42 QCURVE SMOOTH",
"167 58 OFFCURVE",
"167 116 QCURVE SMOOTH",
"167 325 LINE SMOOTH",
"167 330 OFFCURVE",
"198 356 OFFCURVE",
"245 380 OFFCURVE",
"262 380 QCURVE SMOOTH",
"319 380 OFFCURVE",
"360 311 OFFCURVE",
"360 216 QCURVE SMOOTH",
"360 116 LINE SMOOTH",
"360 58 OFFCURVE",
"355 42 QCURVE SMOOTH",
"353 35 OFFCURVE",
"306 26 OFFCURVE",
"292 26 QCURVE",
"289 22 OFFCURVE",
"288 1 OFFCURVE",
"292 -3 QCURVE",
"306 -3 OFFCURVE",
"348 1 OFFCURVE",
"380 2 OFFCURVE",
"398 2 QCURVE SMOOTH",
"402 2 OFFCURVE",
"505 -3 QCURVE",
"508 1 OFFCURVE",
"508 22 OFFCURVE",
"505 26 QCURVE",
"490 26 OFFCURVE",
"444 35 OFFCURVE",
"442 42 QCURVE SMOOTH",
"437 58 OFFCURVE",
"437 116 QCURVE SMOOTH",
"437 226 LINE SMOOTH",
"437 272 OFFCURVE",
"431 336 OFFCURVE",
"414 390 OFFCURVE",
"385 421 OFFCURVE",
"340 438 OFFCURVE",
"308 438 QCURVE SMOOTH",
"276 438 OFFCURVE",
"193 387 OFFCURVE",
"173 365 QCURVE"
);
}
);
width = 516;
}
);
leftKerningGroup = h;
note = h;
rightKerningGroup = h;
unicode = 0068;
changeCount = 1;
},
{
glyphname = k;
lastChange = "2018-03-06 12:35:50 +0000";
layers = (
{
layerId = "A76CE8C3-CC1A-4246-BAA7-4C4431E1D24E";
paths = (
{
closed = 1;
nodes = (
"169 203 LINE",
"172 202 OFFCURVE",
"176 199 QCURVE",
"180 197 OFFCURVE",
"182 195 QCURVE",
"239 133 OFFCURVE",
"325 40 QCURVE SMOOTH",
"339 25 OFFCURVE",
"408 -4 OFFCURVE",
"448 -4 QCURVE SMOOTH",
"499 -4 OFFCURVE",
"513 2 QCURVE",
"515 6 OFFCURVE",
"513 24 OFFCURVE",
"512 26 QCURVE",
"489 25 OFFCURVE",
"438 39 OFFCURVE",
"420 53 QCURVE SMOOTH",
"409 62 OFFCURVE",
"355 121 OFFCURVE",
"268 219 OFFCURVE",
"240 249 QCURVE",
"291 293 OFFCURVE",
"402 373 QCURVE SMOOTH",
"416 383 OFFCURVE",
"465 396 OFFCURVE",
"479 396 QCURVE",
"481 399 OFFCURVE",
"482 421 OFFCURVE",
"479 425 QCURVE",
"442 420 OFFCURVE",
"391 420 QCURVE SMOOTH",
"343 420 OFFCURVE",
"295 425 QCURVE",
"291 424 OFFCURVE",
"289 402 OFFCURVE",
"293 396 QCURVE",
"294 396 OFFCURVE",
"303 395 OFFCURVE",
"310 395 OFFCURVE",
"321 393 OFFCURVE",
"329 391 OFFCURVE",
"337 387 OFFCURVE",
"341 382 OFFCURVE",
"341 376 OFFCURVE",
"332 366 OFFCURVE",
"314 350 OFFCURVE",
"294 334 OFFCURVE",
"261 307 OFFCURVE",
"249 296 QCURVE SMOOTH",
"185 242 OFFCURVE",
"167 235 QCURVE",
"167 591 LINE SMOOTH",
"167 646 OFFCURVE",
"178 678 QCURVE",
"178 684 OFFCURVE",
"170 694 OFFCURVE",
"167 694 QCURVE",
"94 661 OFFCURVE",
"25 654 QCURVE",
"23 654 OFFCURVE",
"22 641 OFFCURVE",
"23 628 OFFCURVE",
"24 628 QCURVE SMOOTH",
"77 628 OFFCURVE",
"85 610 QCURVE SMOOTH",
"90 598 OFFCURVE",
"90 558 QCURVE SMOOTH",
"90 116 LINE SMOOTH",
"90 58 OFFCURVE",
"85 42 QCURVE SMOOTH",
"83 35 OFFCURVE",
"36 26 OFFCURVE",
"22 26 QCURVE",
"19 22 OFFCURVE",
"18 1 OFFCURVE",
"22 -3 QCURVE",
"36 -3 OFFCURVE",
"78 1 OFFCURVE",
"110 2 OFFCURVE",
"128 2 QCURVE SMOOTH",
"132 2 OFFCURVE",
"235 -3 QCURVE",
"238 1 OFFCURVE",
"238 22 OFFCURVE",
"235 26 QCURVE",
"220 26 OFFCURVE",
"174 35 OFFCURVE",
"172 42 QCURVE SMOOTH",
"167 58 OFFCURVE",
"167 116 QCURVE SMOOTH",
"167 204 LINE"
);
}
);
width = 518;
}
);
leftKerningGroup = h;
note = k;
rightKerningGroup = k;
unicode = 006B;
changeCount = 1;
},
{
glyphname = l;
lastChange = "2018-03-06 12:35:50 +0000";
layers = (
{
layerId = "A76CE8C3-CC1A-4246-BAA7-4C4431E1D24E";
paths = (
{
closed = 1;
nodes = (
"90 58 OFFCURVE",
"85 42 QCURVE SMOOTH",
"83 35 OFFCURVE",
"36 26 OFFCURVE",
"22 26 QCURVE",
"19 22 OFFCURVE",
"18 1 OFFCURVE",
"22 -3 QCURVE",
"36 -3 OFFCURVE",
"78 1 OFFCURVE",
"110 2 OFFCURVE",
"128 2 QCURVE SMOOTH",
"132 2 OFFCURVE",
"235 -3 QCURVE",
"238 1 OFFCURVE",
"238 22 OFFCURVE",
"235 26 QCURVE",
"220 26 OFFCURVE",
"174 35 OFFCURVE",
"172 42 QCURVE SMOOTH",
"167 58 OFFCURVE",
"167 116 QCURVE SMOOTH",
"167 591 LINE SMOOTH",
"167 646 OFFCURVE",
"178 678 QCURVE",
"178 684 OFFCURVE",
"170 694 OFFCURVE",
"167 694 QCURVE",
"94 661 OFFCURVE",
"25 654 QCURVE",
"23 654 OFFCURVE",
"22 641 OFFCURVE",
"23 628 OFFCURVE",
"24 628 QCURVE SMOOTH",
"77 628 OFFCURVE",
"85 610 QCURVE SMOOTH",
"90 598 OFFCURVE",
"90 558 QCURVE SMOOTH",
"90 116 LINE SMOOTH"
);
}
);
width = 255;
}
);
leftKerningGroup = l;
note = l;
rightKerningGroup = l;
unicode = 006C;
changeCount = 1;
},
{
glyphname = m;
lastChange = "2018-03-06 12:35:50 +0000";
layers = (
{
layerId = "A76CE8C3-CC1A-4246-BAA7-4C4431E1D24E";
paths = (
{
closed = 1;
nodes = (
"234 409 OFFCURVE",
"188 370 QCURVE",
"186 368 OFFCURVE",
"185 368 QCURVE SMOOTH",
"183 368 OFFCURVE",
"183 372 QCURVE SMOOTH",
"183 382 OFFCURVE",
"189 424 QCURVE",
"189 428 OFFCURVE",
"181 440 OFFCURVE",
"178 440 QCURVE",
"120 410 OFFCURVE",
"35 398 QCURVE",
"32 394 OFFCURVE",
"33 374 OFFCURVE",
"35 372 QCURVE",
"43 372 OFFCURVE",
"65 371 OFFCURVE",
"97 362 OFFCURVE",
"100 354 QCURVE SMOOTH",
"105 342 OFFCURVE",
"105 298 QCURVE SMOOTH",
"105 116 LINE SMOOTH",
"105 58 OFFCURVE",
"100 42 QCURVE SMOOTH",
"98 35 OFFCURVE",
"51 26 OFFCURVE",
"37 26 QCURVE",
"34 22 OFFCURVE",
"33 1 OFFCURVE",
"37 -3 QCURVE",
"51 -3 OFFCURVE",
"93 1 OFFCURVE",
"125 2 OFFCURVE",
"143 2 QCURVE SMOOTH",
"147 2 OFFCURVE",
"250 -3 QCURVE",
"253 1 OFFCURVE",
"253 22 OFFCURVE",
"250 26 QCURVE",
"235 26 OFFCURVE",
"189 35 OFFCURVE",
"187 42 QCURVE SMOOTH",
"182 58 OFFCURVE",
"182 116 QCURVE SMOOTH",
"182 325 LINE SMOOTH",
"182 337 OFFCURVE",
"244 380 OFFCURVE",
"275 380 QCURVE SMOOTH",
"329 380 OFFCURVE",
"369 310 OFFCURVE",
"369 218 QCURVE SMOOTH",
"369 116 LINE SMOOTH",
"369 58 OFFCURVE",
"364 42 QCURVE SMOOTH",
"362 35 OFFCURVE",
"315 26 OFFCURVE",
"301 26 QCURVE",
"298 22 OFFCURVE",
"297 1 OFFCURVE",
"301 -3 QCURVE",
"315 -3 OFFCURVE",
"357 1 OFFCURVE",
"389 2 OFFCURVE",
"407 2 QCURVE SMOOTH",
"411 2 OFFCURVE",
"514 -3 QCURVE",
"517 1 OFFCURVE",
"517 22 OFFCURVE",
"514 26 QCURVE",
"499 26 OFFCURVE",
"453 35 OFFCURVE",
"451 42 QCURVE SMOOTH",
"446 58 OFFCURVE",
"446 116 QCURVE SMOOTH",
"446 239 LINE SMOOTH",
"446 285 OFFCURVE",
"442 310 QCURVE",
"442 311 OFFCURVE",
"441 323 OFFCURVE",
"441 323 QCURVE SMOOTH",
"441 328 OFFCURVE",
"468 354 OFFCURVE",
"517 380 OFFCURVE",
"539 380 QCURVE SMOOTH",
"563 380 OFFCURVE",
"597 366 OFFCURVE",
"617 342 OFFCURVE",
"629 300 OFFCURVE",
"633 255 OFFCURVE",
"633 223 QCURVE SMOOTH",
"633 116 LINE SMOOTH",
"633 58 OFFCURVE",
"628 42 QCURVE SMOOTH",
"626 35 OFFCURVE",
"579 26 OFFCURVE",
"565 26 QCURVE",
"562 22 OFFCURVE",
"561 1 OFFCURVE",
"565 -3 QCURVE",
"579 -3 OFFCURVE",
"621 1 OFFCURVE",
"653 2 OFFCURVE",
"671 2 QCURVE SMOOTH",
"675 2 OFFCURVE",
"778 -3 QCURVE",
"781 1 OFFCURVE",
"781 22 OFFCURVE",
"778 26 QCURVE",
"763 26 OFFCURVE",
"717 35 OFFCURVE",
"715 42 QCURVE SMOOTH",
"710 58 OFFCURVE",
"710 116 QCURVE SMOOTH",
"710 226 LINE SMOOTH",
"710 272 OFFCURVE",
"704 336 OFFCURVE",
"687 390 OFFCURVE",
"658 421 OFFCURVE",
"613 438 OFFCURVE",
"581 438 QCURVE SMOOTH",
"525 438 OFFCURVE",
"434 355 QCURVE",
"422 399 OFFCURVE",
"365 438 OFFCURVE",
"320 438 QCURVE SMOOTH",
"294 438 OFFCURVE",
"264 424 QCURVE SMOOTH"
);
}
);
width = 790;
}
);
leftKerningGroup = m;
note = m;
rightKerningGroup = h;
unicode = 006D;
changeCount = 1;
},
{
glyphname = n;
lastChange = "2018-03-06 12:35:50 +0000";
layers = (
{
layerId = "A76CE8C3-CC1A-4246-BAA7-4C4431E1D24E";
paths = (
{
closed = 1;
nodes = (
"186 363 OFFCURVE",
"185 363 QCURVE SMOOTH",
"183 363 OFFCURVE",
"183 367 QCURVE SMOOTH",
"183 382 OFFCURVE",
"189 424 QCURVE",
"189 428 OFFCURVE",
"181 440 OFFCURVE",
"178 440 QCURVE",
"120 410 OFFCURVE",
"35 398 QCURVE",
"32 394 OFFCURVE",
"33 374 OFFCURVE",
"35 372 QCURVE",
"43 372 OFFCURVE",
"65 371 OFFCURVE",
"97 362 OFFCURVE",
"100 354 QCURVE SMOOTH",
"105 342 OFFCURVE",
"105 298 QCURVE SMOOTH",
"105 116 LINE SMOOTH",
"105 58 OFFCURVE",
"100 42 QCURVE SMOOTH",
"98 35 OFFCURVE",
"51 26 OFFCURVE",
"37 26 QCURVE",
"34 22 OFFCURVE",
"33 1 OFFCURVE",
"37 -3 QCURVE",
"51 -3 OFFCURVE",
"93 1 OFFCURVE",
"125 2 OFFCURVE",
"143 2 QCURVE SMOOTH",
"147 2 OFFCURVE",
"250 -3 QCURVE",
"253 1 OFFCURVE",
"253 22 OFFCURVE",
"250 26 QCURVE",
"235 26 OFFCURVE",
"189 35 OFFCURVE",
"187 42 QCURVE SMOOTH",
"182 58 OFFCURVE",
"182 116 QCURVE SMOOTH",
"182 325 LINE SMOOTH",
"182 330 OFFCURVE",
"213 356 OFFCURVE",
"260 380 OFFCURVE",
"277 380 QCURVE SMOOTH",
"334 380 OFFCURVE",
"375 311 OFFCURVE",
"375 216 QCURVE SMOOTH",
"375 116 LINE SMOOTH",
"375 58 OFFCURVE",
"370 42 QCURVE SMOOTH",
"368 35 OFFCURVE",
"321 26 OFFCURVE",
"307 26 QCURVE",
"304 22 OFFCURVE",
"303 1 OFFCURVE",
"307 -3 QCURVE",
"321 -3 OFFCURVE",
"363 1 OFFCURVE",
"395 2 OFFCURVE",
"413 2 QCURVE SMOOTH",
"417 2 OFFCURVE",
"520 -3 QCURVE",
"523 1 OFFCURVE",
"523 22 OFFCURVE",
"520 26 QCURVE",
"505 26 OFFCURVE",
"459 35 OFFCURVE",
"457 42 QCURVE SMOOTH",
"452 58 OFFCURVE",
"452 116 QCURVE SMOOTH",
"452 226 LINE SMOOTH",
"452 272 OFFCURVE",
"446 336 OFFCURVE",
"429 390 OFFCURVE",
"400 421 OFFCURVE",
"355 438 OFFCURVE",
"323 438 QCURVE SMOOTH",
"291 438 OFFCURVE",
"208 387 OFFCURVE",
"188 365 QCURVE"
);
}
);
width = 532;
}
);
leftKerningGroup = m;
note = n;
rightKerningGroup = h;
unicode = 006E;
changeCount = 1;
},
{
glyphname = o;
lastChange = "2018-03-06 12:35:50 +0000";
layers = (
{
layerId = "A76CE8C3-CC1A-4246-BAA7-4C4431E1D24E";
paths = (
{
closed = 1;
nodes = (
"382 153 OFFCURVE",
"361 78 OFFCURVE",
"307 26 OFFCURVE",
"266 26 QCURVE SMOOTH",
"223 26 OFFCURVE",
"158 90 OFFCURVE",
"127 183 OFFCURVE",
"127 233 QCURVE SMOOTH",
"127 279 OFFCURVE",
"149 354 OFFCURVE",
"203 406 OFFCURVE",
"243 406 QCURVE SMOOTH",
"286 406 OFFCURVE",
"351 342 OFFCURVE",
"382 248 OFFCURVE",
"382 198 QCURVE SMOOTH"
);
},
{
closed = 1;
nodes = (
"41 118 OFFCURVE",
"159 -7 OFFCURVE",
"256 -7 QCURVE SMOOTH",
"347 -7 OFFCURVE",
"468 124 OFFCURVE",
"468 221 QCURVE SMOOTH",
"468 317 OFFCURVE",
"352 439 OFFCURVE",
"254 439 QCURVE SMOOTH",
"163 439 OFFCURVE",
"41 310 OFFCURVE",
"41 213 QCURVE SMOOTH"
);
}
);
width = 509;
}
);
leftKerningGroup = e;
note = o;
rightKerningGroup = o;
unicode = 006F;
changeCount = 1;
},
{
glyphname = p;
lastChange = "2018-03-06 12:35:50 +0000";
layers = (
{
layerId = "A76CE8C3-CC1A-4246-BAA7-4C4431E1D24E";
paths = (
{
closed = 1;
nodes = (
"167 379 OFFCURVE",
"166 379 QCURVE SMOOTH",
"164 379 OFFCURVE",
"164 383 QCURVE SMOOTH",
"164 388 OFFCURVE",
"171 424 OFFCURVE",
"171 424 QCURVE SMOOTH",
"171 428 OFFCURVE",
"163 440 OFFCURVE",
"160 440 QCURVE",
"102 410 OFFCURVE",
"17 398 QCURVE",
"14 394 OFFCURVE",
"15 374 OFFCURVE",
"17 372 QCURVE",
"25 372 OFFCURVE",
"47 371 OFFCURVE",
"79 362 OFFCURVE",
"82 354 QCURVE SMOOTH",
"87 342 OFFCURVE",
"87 302 QCURVE SMOOTH",
"87 -107 LINE SMOOTH",
"86 -169 OFFCURVE",
"82 -181 QCURVE SMOOTH",
"80 -188 OFFCURVE",
"33 -197 OFFCURVE",
"19 -197 QCURVE",
"16 -201 OFFCURVE",
"15 -222 OFFCURVE",
"19 -226 QCURVE",
"33 -226 OFFCURVE",
"75 -223 OFFCURVE",
"107 -221 OFFCURVE",
"125 -221 QCURVE SMOOTH",
"129 -221 OFFCURVE",
"232 -226 QCURVE",
"235 -222 OFFCURVE",
"235 -201 OFFCURVE",
"232 -197 QCURVE",
"217 -197 OFFCURVE",
"171 -188 OFFCURVE",
"169 -181 QCURVE SMOOTH",
"164 -165 OFFCURVE",
"164 -107 QCURVE SMOOTH",
"164 -10 LINE SMOOTH",
"164 -2 OFFCURVE",
"168 3 QCURVE",
"203 -8 OFFCURVE",
"238 -8 QCURVE SMOOTH",
"280 -8 OFFCURVE",
"364 31 OFFCURVE",
"430 96 OFFCURVE",
"472 185 OFFCURVE",
"472 232 QCURVE SMOOTH",
"472 266 OFFCURVE",
"449 336 OFFCURVE",
"407 399 OFFCURVE",
"335 438 OFFCURVE",
"291 438 QCURVE SMOOTH",
"264 438 OFFCURVE",
"192 401 OFFCURVE",
"169 381 QCURVE"
);
},
{
closed = 1;
nodes = (
"388 154 OFFCURVE",
"358 78 OFFCURVE",
"296 27 OFFCURVE",
"257 27 QCURVE SMOOTH",
"224 27 OFFCURVE",
"164 65 OFFCURVE",
"164 100 QCURVE SMOOTH",
"164 340 LINE SMOOTH",
"164 352 OFFCURVE",
"219 379 OFFCURVE",
"248 379 QCURVE SMOOTH",
"307 379 OFFCURVE",
"388 281 OFFCURVE",
"388 195 QCURVE SMOOTH"
);
}
);
width = 510;
}
);
leftKerningGroup = p;
note = p;
rightKerningGroup = p;
unicode = 0070;
changeCount = 1;
},
{
glyphname = q;
lastChange = "2018-03-06 12:35:50 +0000";
layers = (
{
layerId = "A76CE8C3-CC1A-4246-BAA7-4C4431E1D24E";
paths = (
{
closed = 1;
nodes = (
"349 93 LINE SMOOTH",
"349 81 OFFCURVE",
"298 53 OFFCURVE",
"269 53 QCURVE SMOOTH",
"205 53 OFFCURVE",
"123 149 OFFCURVE",
"123 235 QCURVE SMOOTH",
"123 260 OFFCURVE",
"139 315 OFFCURVE",
"169 368 OFFCURVE",
"223 402 OFFCURVE",
"256 402 QCURVE SMOOTH",
"292 402 OFFCURVE",
"349 363 OFFCURVE",
"349 332 QCURVE SMOOTH"
);
},
{
closed = 1;
nodes = (
"39 172 OFFCURVE",
"54 115 OFFCURVE",
"84 61 OFFCURVE",
"125 19 OFFCURVE",
"184 -7 OFFCURVE",
"217 -7 QCURVE SMOOTH",
"245 -7 OFFCURVE",
"325 35 OFFCURVE",
"342 50 QCURVE",
"346 53 OFFCURVE",
"349 45 OFFCURVE",
"349 40 QCURVE SMOOTH",
"349 -108 LINE SMOOTH",
"349 -166 OFFCURVE",
"344 -182 QCURVE SMOOTH",
"342 -189 OFFCURVE",
"296 -198 OFFCURVE",
"281 -198 QCURVE",
"278 -202 OFFCURVE",
"278 -223 OFFCURVE",
"281 -227 QCURVE",
"295 -227 OFFCURVE",
"337 -224 OFFCURVE",
"370 -222 OFFCURVE",
"387 -222 QCURVE SMOOTH",
"392 -222 OFFCURVE",
"494 -227 QCURVE",
"498 -223 OFFCURVE",
"497 -202 OFFCURVE",
"494 -198 QCURVE",
"480 -198 OFFCURVE",
"433 -189 OFFCURVE",
"431 -182 QCURVE SMOOTH",
"426 -166 OFFCURVE",
"426 -108 QCURVE SMOOTH",
"426 320 LINE SMOOTH",
"426 368 OFFCURVE",
"438 394 QCURVE",
"438 399 OFFCURVE",
"429 416 OFFCURVE",
"425 416 QCURVE",
"416 413 OFFCURVE",
"405 413 QCURVE SMOOTH",
"388 413 OFFCURVE",
"301 438 OFFCURVE",
"286 438 QCURVE SMOOTH",
"254 438 OFFCURVE",
"185 415 OFFCURVE",
"121 371 OFFCURVE",
"70 314 OFFCURVE",
"39 239 OFFCURVE",
"39 199 QCURVE SMOOTH"
);
}
);
width = 497;
}
);
leftKerningGroup = q;
note = q;
rightKerningGroup = q;
unicode = 0071;
changeCount = 1;
},
{
glyphname = r;
lastChange = "2018-03-06 12:35:50 +0000";
layers = (
{
layerId = "A76CE8C3-CC1A-4246-BAA7-4C4431E1D24E";
paths = (
{
closed = 1;
nodes = (
"185 329 OFFCURVE",
"184 329 OFFCURVE",
"182 330 OFFCURVE",
"182 332 QCURVE SMOOTH",
"182 340 OFFCURVE",
"188 418 OFFCURVE",
"189 424 QCURVE",
"189 428 OFFCURVE",
"181 440 OFFCURVE",
"178 440 QCURVE",
"120 410 OFFCURVE",
"35 398 QCURVE",
"32 394 OFFCURVE",
"33 374 OFFCURVE",
"35 372 QCURVE",
"43 372 OFFCURVE",
"65 371 OFFCURVE",
"97 362 OFFCURVE",
"100 354 QCURVE SMOOTH",
"105 342 OFFCURVE",
"105 302 QCURVE SMOOTH",
"105 116 LINE SMOOTH",
"104 55 OFFCURVE",
"100 42 QCURVE SMOOTH",
"98 35 OFFCURVE",
"51 26 OFFCURVE",
"37 26 QCURVE",
"34 22 OFFCURVE",
"33 1 OFFCURVE",
"37 -3 QCURVE",
"139 2 OFFCURVE",
"149 2 QCURVE SMOOTH",
"170 2 OFFCURVE",
"273 -3 QCURVE",
"276 1 OFFCURVE",
"276 22 OFFCURVE",
"273 26 QCURVE",
"255 26 OFFCURVE",
"189 35 OFFCURVE",
"187 42 QCURVE SMOOTH",
"182 58 OFFCURVE",
"182 116 QCURVE SMOOTH",
"182 270 LINE SMOOTH",
"182 292 OFFCURVE",
"233 360 OFFCURVE",
"262 360 QCURVE SMOOTH",
"281 360 OFFCURVE",
"299 348 QCURVE SMOOTH",
"300 347 OFFCURVE",
"318 335 OFFCURVE",
"329 329 OFFCURVE",
"336 329 QCURVE SMOOTH",
"346 329 OFFCURVE",
"369 357 OFFCURVE",
"369 381 QCURVE SMOOTH",
"369 396 OFFCURVE",
"365 408 QCURVE",
"358 420 OFFCURVE",
"323 437 OFFCURVE",
"304 437 QCURVE SMOOTH",
"273 437 OFFCURVE",
"203 367 OFFCURVE",
"186 330 QCURVE SMOOTH"
);
}
);
width = 383;
}
);
leftKerningGroup = m;
note = r;
rightKerningGroup = r;
unicode = 0072;
changeCount = 1;
},
{
glyphname = s;
lastChange = "2018-03-06 12:35:50 +0000";
layers = (
{
layerId = "A76CE8C3-CC1A-4246-BAA7-4C4431E1D24E";
paths = (
{
closed = 1;
nodes = (
"50 279 OFFCURVE",
"91 228 OFFCURVE",
"126 208 QCURVE",
"137 202 OFFCURVE",
"184 177 OFFCURVE",
"207 163 OFFCURVE",
"236 139 OFFCURVE",
"248 111 OFFCURVE",
"248 93 QCURVE SMOOTH",
"248 60 OFFCURVE",
"208 21 OFFCURVE",
"176 21 QCURVE SMOOTH",
"139 21 OFFCURVE",
"78 81 OFFCURVE",
"68 116 QCURVE",
"65 118 OFFCURVE",
"59 118 QCURVE SMOOTH",
"49 118 OFFCURVE",
"41 112 QCURVE",
"41 92 OFFCURVE",
"52 24 OFFCURVE",
"58 8 QCURVE",
"72 6 OFFCURVE",
"119 -6 OFFCURVE",
"155 -11 OFFCURVE",
"175 -11 QCURVE SMOOTH",
"238 -11 OFFCURVE",
"329 68 OFFCURVE",
"329 127 QCURVE SMOOTH",
"329 140 OFFCURVE",
"322 164 OFFCURVE",
"306 185 OFFCURVE",
"292 201 OFFCURVE",
"264 219 OFFCURVE",
"250 229 OFFCURVE",
"219 247 OFFCURVE",
"214 249 QCURVE SMOOTH",
"208 253 OFFCURVE",
"177 270 OFFCURVE",
"165 278 OFFCURVE",
"144 295 OFFCURVE",
"135 309 OFFCURVE",
"127 331 OFFCURVE",
"127 343 QCURVE SMOOTH",
"127 371 OFFCURVE",
"164 406 OFFCURVE",
"198 406 QCURVE SMOOTH",
"227 406 OFFCURVE",
"273 348 OFFCURVE",
"282 314 QCURVE",
"288 309 OFFCURVE",
"299 309 QCURVE SMOOTH",
"309 309 OFFCURVE",
"309 314 QCURVE",
"307 379 OFFCURVE",
"297 424 QCURVE",
"284 426 OFFCURVE",
"218 437 OFFCURVE",
"195 437 QCURVE SMOOTH",
"137 437 OFFCURVE",
"50 369 OFFCURVE",
"50 315 QCURVE SMOOTH"
);
}
);
width = 369;
}
);
leftKerningGroup = s;
note = s;
rightKerningGroup = s;
unicode = 0073;
changeCount = 1;
},
{
glyphname = t;
lastChange = "2018-03-06 12:35:50 +0000";
layers = (
{
layerId = "A76CE8C3-CC1A-4246-BAA7-4C4431E1D24E";
paths = (
{
closed = 1;
nodes = (
"160 565 OFFCURVE",
"154 567 OFFCURVE",
"147 565 OFFCURVE",
"144 562 QCURVE SMOOTH",
"143 561 OFFCURVE",
"121 537 OFFCURVE",
"91 505 OFFCURVE",
"83 495 QCURVE",
"83 432 LINE",
"46 432 LINE",
"42 428 OFFCURVE",
"20 403 OFFCURVE",
"20 400 QCURVE SMOOTH",
"20 391 OFFCURVE",
"25 391 QCURVE SMOOTH",
"83 391 LINE",
"83 101 LINE SMOOTH",
"83 70 OFFCURVE",
"101 26 OFFCURVE",
"132 3 OFFCURVE",
"167 -7 OFFCURVE",
"187 -7 QCURVE SMOOTH",
"210 -7 OFFCURVE",
"256 16 OFFCURVE",
"280 37 OFFCURVE",
"290 48 QCURVE",
"294 52 OFFCURVE",
"294 63 QCURVE SMOOTH",
"294 69 OFFCURVE",
"291 70 QCURVE",
"259 47 OFFCURVE",
"226 47 QCURVE SMOOTH",
"160 47 OFFCURVE",
"160 129 QCURVE SMOOTH",
"160 391 LINE",
"280 391 LINE",
"294 405 OFFCURVE",
"294 421 QCURVE SMOOTH",
"294 432 OFFCURVE",
"289 432 QCURVE SMOOTH",
"160 432 LINE",
"160 563 LINE SMOOTH"
);
}
);
width = 311;
}
);
leftKerningGroup = t;
note = t;
rightKerningGroup = t;
unicode = 0074;
changeCount = 1;
},
{
glyphname = u;
lastChange = "2018-03-06 12:35:50 +0000";
layers = (
{
layerId = "A76CE8C3-CC1A-4246-BAA7-4C4431E1D24E";
paths = (
{
closed = 1;
nodes = (
"350 86 OFFCURVE",
"290 49 OFFCURVE",
"258 49 QCURVE SMOOTH",
"206 49 OFFCURVE",
"158 124 OFFCURVE",
"158 204 QCURVE SMOOTH",
"158 308 LINE",
"158 351 LINE SMOOTH",
"158 406 OFFCURVE",
"165 420 QCURVE",
"165 425 OFFCURVE",
"157 440 OFFCURVE",
"154 440 QCURVE",
"99 423 OFFCURVE",
"17 420 QCURVE",
"14 416 OFFCURVE",
"14 397 OFFCURVE",
"17 394 QCURVE",
"62 394 OFFCURVE",
"73 374 QCURVE SMOOTH",
"81 359 OFFCURVE",
"81 320 QCURVE SMOOTH",
"81 192 LINE SMOOTH",
"81 164 OFFCURVE",
"86 114 OFFCURVE",
"103 58 OFFCURVE",
"129 19 OFFCURVE",
"175 -7 OFFCURVE",
"206 -7 QCURVE SMOOTH",
"242 -7 OFFCURVE",
"325 35 OFFCURVE",
"348 59 QCURVE",
"350 54 LINE",
"350 8 LINE SMOOTH",
"350 2 OFFCURVE",
"354 -8 OFFCURVE",
"358 -8 QCURVE",
"366 -6 LINE SMOOTH",
"375 -3 OFFCURVE",
"403 5 OFFCURVE",
"436 13 OFFCURVE",
"473 19 OFFCURVE",
"488 20 QCURVE",
"491 20 OFFCURVE",
"496 33 OFFCURVE",
"496 36 QCURVE SMOOTH",
"496 46 OFFCURVE",
"493 47 QCURVE",
"492 47 OFFCURVE",
"474 48 OFFCURVE",
"454 51 OFFCURVE",
"435 59 OFFCURVE",
"434 65 QCURVE SMOOTH",
"427 98 OFFCURVE",
"427 141 QCURVE SMOOTH",
"427 305 LINE",
"427 351 LINE SMOOTH",
"427 402 OFFCURVE",
"434 416 QCURVE",
"434 421 OFFCURVE",
"426 440 OFFCURVE",
"423 440 QCURVE",
"368 423 OFFCURVE",
"286 420 QCURVE",
"283 416 OFFCURVE",
"283 397 OFFCURVE",
"286 394 QCURVE",
"331 394 OFFCURVE",
"342 374 QCURVE SMOOTH",
"350 359 OFFCURVE",
"350 320 QCURVE SMOOTH",
"350 104 LINE SMOOTH"
);
}
);
width = 515;
}
);
leftKerningGroup = u;
note = u;
rightKerningGroup = u;
unicode = 0075;
changeCount = 1;
},
{
glyphname = v;
lastChange = "2018-03-06 12:35:50 +0000";
layers = (
{
layerId = "A76CE8C3-CC1A-4246-BAA7-4C4431E1D24E";
paths = (
{
closed = 1;
nodes = (
"-4 416 OFFCURVE",
"3 401 QCURVE",
"48 401 OFFCURVE",
"58 381 QCURVE SMOOTH",
"82 331 OFFCURVE",
"132 212 OFFCURVE",
"197 49 OFFCURVE",
"221 -7 QCURVE",
"223 -11 OFFCURVE",
"230 -11 QCURVE SMOOTH",
"235 -11 OFFCURVE",
"254 1 OFFCURVE",
"256 6 QCURVE",
"299 112 OFFCURVE",
"406 367 QCURVE SMOOTH",
"413 385 OFFCURVE",
"456 401 OFFCURVE",
"469 401 QCURVE SMOOTH",
"472 401 OFFCURVE",
"475 426 OFFCURVE",
"472 430 QCURVE",
"457 430 OFFCURVE",
"423 427 OFFCURVE",
"396 425 OFFCURVE",
"379 425 QCURVE SMOOTH",
"360 425 OFFCURVE",
"335 427 OFFCURVE",
"308 430 OFFCURVE",
"298 430 QCURVE",
"294 426 OFFCURVE",
"294 401 OFFCURVE",
"298 401 QCURVE SMOOTH",
"324 401 OFFCURVE",
"356 384 OFFCURVE",
"356 369 QCURVE SMOOTH",
"356 352 OFFCURVE",
"350 337 QCURVE SMOOTH",
"312 243 OFFCURVE",
"261 110 QCURVE",
"151 380 LINE",
"150 382 OFFCURVE",
"150 384 QCURVE SMOOTH",
"150 391 OFFCURVE",
"173 399 OFFCURVE",
"192 401 OFFCURVE",
"199 401 QCURVE SMOOTH",
"202 401 OFFCURVE",
"205 426 OFFCURVE",
"203 430 QCURVE",
"189 430 OFFCURVE",
"150 427 OFFCURVE",
"120 425 OFFCURVE",
"103 425 QCURVE SMOOTH",
"85 425 OFFCURVE",
"54 427 OFFCURVE",
"17 430 OFFCURVE",
"3 430 QCURVE"
);
}
);
width = 473;
}
);
leftKerningGroup = v;
note = v;
rightKerningGroup = v;
unicode = 0076;
changeCount = 1;
},
{
glyphname = w;
lastChange = "2018-03-06 12:35:50 +0000";
layers = (
{
layerId = "A76CE8C3-CC1A-4246-BAA7-4C4431E1D24E";
paths = (
{
closed = 1;
nodes = (
"0 426 OFFCURVE",
"0 406 OFFCURVE",
"2 401 QCURVE",
"47 401 OFFCURVE",
"56 379 QCURVE SMOOTH",
"135 202 OFFCURVE",
"218 -7 QCURVE",
"220 -11 OFFCURVE",
"234 -11 OFFCURVE",
"251 5 OFFCURVE",
"252 8 QCURVE",
"360 282 LINE",
"471 -7 LINE",
"473 -11 OFFCURVE",
"483 -11 QCURVE SMOOTH",
"488 -11 OFFCURVE",
"502 0 OFFCURVE",
"504 6 QCURVE",
"561 143 OFFCURVE",
"649 365 QCURVE SMOOTH",
"657 384 OFFCURVE",
"703 401 OFFCURVE",
"717 401 QCURVE",
"721 404 OFFCURVE",
"722 429 OFFCURVE",
"720 430 QCURVE",
"705 430 OFFCURVE",
"672 427 OFFCURVE",
"645 425 OFFCURVE",
"628 425 QCURVE SMOOTH",
"605 425 OFFCURVE",
"555 430 OFFCURVE",
"541 430 QCURVE",
"538 426 OFFCURVE",
"538 404 OFFCURVE",
"541 401 QCURVE",
"555 400 OFFCURVE",
"567 398 OFFCURVE",
"591 392 OFFCURVE",
"601 378 OFFCURVE",
"601 368 QCURVE SMOOTH",
"601 360 OFFCURVE",
"596 344 QCURVE SMOOTH",
"583 306 OFFCURVE",
"508 120 QCURVE",
"494 157 OFFCURVE",
"463 236 OFFCURVE",
"445 281 OFFCURVE",
"428 325 OFFCURVE",
"419 351 OFFCURVE",
"417 358 QCURVE",
"414 367 OFFCURVE",
"414 369 QCURVE SMOOTH",
"414 401 OFFCURVE",
"464 401 QCURVE",
"467 404 OFFCURVE",
"467 425 OFFCURVE",
"465 430 QCURVE",
"365 425 OFFCURVE",
"361 425 QCURVE SMOOTH",
"338 425 OFFCURVE",
"283 430 OFFCURVE",
"270 430 QCURVE",
"266 426 OFFCURVE",
"266 403 OFFCURVE",
"270 401 QCURVE",
"301 401 OFFCURVE",
"314 382 QCURVE SMOOTH",
"323 369 OFFCURVE",
"338 333 OFFCURVE",
"338 327 QCURVE SMOOTH",
"338 325 OFFCURVE",
"332 306 OFFCURVE",
"316 265 OFFCURVE",
"300 226 OFFCURVE",
"269 148 OFFCURVE",
"257 117 QCURVE",
"165 336 OFFCURVE",
"154 363 QCURVE SMOOTH",
"149 377 OFFCURVE",
"149 378 QCURVE SMOOTH",
"149 388 OFFCURVE",
"173 399 OFFCURVE",
"192 401 OFFCURVE",
"199 401 QCURVE",
"202 403 OFFCURVE",
"203 426 OFFCURVE",
"201 430 QCURVE",
"187 430 OFFCURVE",
"149 427 OFFCURVE",
"118 425 OFFCURVE",
"101 425 QCURVE SMOOTH",
"83 425 OFFCURVE",
"53 427 OFFCURVE",
"17 430 OFFCURVE",
"2 430 QCURVE"
);
}
);
width = 721;
}
);
leftKerningGroup = w;
note = w;
rightKerningGroup = w;
unicode = 0077;
changeCount = 1;
},
{
glyphname = x;
lastChange = "2018-03-06 12:35:50 +0000";
layers = (
{
layerId = "A76CE8C3-CC1A-4246-BAA7-4C4431E1D24E";
paths = (
{
closed = 1;
nodes = (
"23 427 OFFCURVE",
"22 413 OFFCURVE",
"22 401 OFFCURVE",
"23 401 QCURVE SMOOTH",
"42 401 OFFCURVE",
"83 391 OFFCURVE",
"90 379 QCURVE SMOOTH",
"206 206 LINE",
"201 199 OFFCURVE",
"108 65 QCURVE SMOOTH",
"104 60 OFFCURVE",
"93 50 OFFCURVE",
"84 44 OFFCURVE",
"69 38 OFFCURVE",
"60 34 OFFCURVE",
"42 31 OFFCURVE",
"35 30 OFFCURVE",
"15 27 OFFCURVE",
"13 26 QCURVE",
"11 23 OFFCURVE",
"10 3 OFFCURVE",
"11 -3 QCURVE",
"25 -3 OFFCURVE",
"60 1 OFFCURVE",
"88 2 OFFCURVE",
"105 2 QCURVE SMOOTH",
"123 2 OFFCURVE",
"151 1 OFFCURVE",
"186 -3 OFFCURVE",
"200 -3 QCURVE",
"202 -1 OFFCURVE",
"203 14 OFFCURVE",
"202 26 OFFCURVE",
"201 26 QCURVE SMOOTH",
"199 26 OFFCURVE",
"196 27 QCURVE",
"183 28 OFFCURVE",
"173 29 OFFCURVE",
"154 34 OFFCURVE",
"146 42 OFFCURVE",
"146 48 QCURVE SMOOTH",
"146 58 OFFCURVE",
"152 67 QCURVE SMOOTH",
"168 93 OFFCURVE",
"219 167 OFFCURVE",
"224 175 QCURVE",
"251 135 OFFCURVE",
"303 50 QCURVE",
"305 46 OFFCURVE",
"305 44 QCURVE SMOOTH",
"305 36 OFFCURVE",
"278 27 OFFCURVE",
"263 26 QCURVE",
"261 26 OFFCURVE",
"260 2 OFFCURVE",
"262 -3 QCURVE",
"277 -3 OFFCURVE",
"320 1 OFFCURVE",
"354 2 OFFCURVE",
"373 2 QCURVE SMOOTH",
"390 2 OFFCURVE",
"418 1 OFFCURVE",
"454 -3 OFFCURVE",
"467 -3 QCURVE",
"469 -1 OFFCURVE",
"470 13 OFFCURVE",
"469 26 OFFCURVE",
"468 26 QCURVE SMOOTH",
"416 26 OFFCURVE",
"391 62 QCURVE SMOOTH",
"271 240 LINE",
"275 245 OFFCURVE",
"308 290 OFFCURVE",
"359 362 OFFCURVE",
"371 379 QCURVE",
"386 398 OFFCURVE",
"448 401 QCURVE",
"450 401 OFFCURVE",
"450 426 OFFCURVE",
"449 430 QCURVE",
"414 425 OFFCURVE",
"369 425 QCURVE SMOOTH",
"351 425 OFFCURVE",
"321 427 OFFCURVE",
"283 430 OFFCURVE",
"268 430 QCURVE",
"266 427 OFFCURVE",
"267 402 OFFCURVE",
"268 401 QCURVE",
"269 401 OFFCURVE",
"290 400 OFFCURVE",
"308 398 OFFCURVE",
"324 389 OFFCURVE",
"324 382 QCURVE SMOOTH",
"324 373 OFFCURVE",
"303 337 OFFCURVE",
"261 280 OFFCURVE",
"253 267 QCURVE",
"187 372 LINE SMOOTH",
"182 381 OFFCURVE",
"182 384 QCURVE SMOOTH",
"182 401 OFFCURVE",
"222 401 QCURVE",
"225 405 OFFCURVE",
"225 425 OFFCURVE",
"224 430 QCURVE",
"169 425 OFFCURVE",
"123 425 QCURVE SMOOTH",
"79 425 OFFCURVE",
"24 430 QCURVE"
);
}
);
width = 476;
}
);
leftKerningGroup = x;
note = x;
rightKerningGroup = x;
unicode = 0078;
changeCount = 1;
},
{
glyphname = y;
lastChange = "2018-03-06 12:35:50 +0000";
layers = (
{
layerId = "A76CE8C3-CC1A-4246-BAA7-4C4431E1D24E";
paths = (
{
closed = 1;
nodes = (
"0 429 OFFCURVE",
"0 401 OFFCURVE",
"2 401 QCURVE SMOOTH",
"47 401 OFFCURVE",
"57 381 QCURVE SMOOTH",
"114 257 OFFCURVE",
"214 2 QCURVE",
"211 -9 OFFCURVE",
"176 -85 OFFCURVE",
"166 -99 QCURVE SMOOTH",
"138 -137 OFFCURVE",
"93 -156 OFFCURVE",
"53 -156 QCURVE",
"41 -171 OFFCURVE",
"41 -185 QCURVE SMOOTH",
"41 -228 OFFCURVE",
"84 -228 QCURVE SMOOTH",
"133 -228 OFFCURVE",
"171 -172 QCURVE SMOOTH",
"188 -148 OFFCURVE",
"213 -94 OFFCURVE",
"246 -6 OFFCURVE",
"251 6 QCURVE SMOOTH",
"294 112 OFFCURVE",
"401 367 QCURVE SMOOTH",
"408 385 OFFCURVE",
"451 401 OFFCURVE",
"464 401 QCURVE SMOOTH",
"467 401 OFFCURVE",
"470 426 OFFCURVE",
"467 430 QCURVE",
"417 425 OFFCURVE",
"383 425 QCURVE SMOOTH",
"330 425 OFFCURVE",
"293 430 QCURVE",
"289 426 OFFCURVE",
"289 401 OFFCURVE",
"293 401 QCURVE SMOOTH",
"319 401 OFFCURVE",
"351 384 OFFCURVE",
"351 369 QCURVE SMOOTH",
"351 352 OFFCURVE",
"345 337 QCURVE SMOOTH",
"307 243 OFFCURVE",
"256 110 QCURVE",
"150 380 LINE",
"149 382 OFFCURVE",
"149 384 QCURVE SMOOTH",
"149 391 OFFCURVE",
"172 399 OFFCURVE",
"191 401 OFFCURVE",
"198 401 QCURVE SMOOTH",
"201 401 OFFCURVE",
"204 426 OFFCURVE",
"202 430 QCURVE",
"159 425 OFFCURVE",
"102 425 QCURVE SMOOTH",
"49 425 OFFCURVE",
"2 430 QCURVE"
);
}
);
width = 469;
}
);
leftKerningGroup = y;
note = y;
rightKerningGroup = y;
unicode = 0079;
changeCount = 1;
},
{
glyphname = z;
lastChange = "2018-03-06 12:35:50 +0000";
layers = (
{
layerId = "A76CE8C3-CC1A-4246-BAA7-4C4431E1D24E";
paths = (
{
closed = 1;
nodes = (
"55 366 OFFCURVE",
"43 321 QCURVE",
"43 318 OFFCURVE",
"54 318 QCURVE SMOOTH",
"61 318 OFFCURVE",
"75 324 OFFCURVE",
"76 327 QCURVE SMOOTH",
"77 329 OFFCURVE",
"84 348 OFFCURVE",
"90 360 OFFCURVE",
"102 378 OFFCURVE",
"116 389 OFFCURVE",
"139 397 OFFCURVE",
"152 397 QCURVE SMOOTH",
"292 396 LINE",
"35 27 LINE",
"34 26 OFFCURVE",
"34 14 OFFCURVE",
"44 2 OFFCURVE",
"49 0 QCURVE",
"374 0 LINE",
"389 46 OFFCURVE",
"419 119 QCURVE",
"415 124 OFFCURVE",
"399 131 OFFCURVE",
"387 131 OFFCURVE",
"386 125 QCURVE",
"376 89 OFFCURVE",
"319 35 OFFCURVE",
"276 35 QCURVE SMOOTH",
"136 35 LINE",
"136 38 OFFCURVE",
"401 415 QCURVE",
"401 434 OFFCURVE",
"398 439 QCURVE",
"333 431 OFFCURVE",
"276 431 QCURVE SMOOTH",
"148 431 LINE SMOOTH",
"112 431 OFFCURVE",
"59 439 QCURVE"
);
}
);
width = 447;
}
);
leftKerningGroup = z;
note = z;
rightKerningGroup = z;
unicode = 007A;
changeCount = 1;
},
{
glyphname = braceleft;
lastChange = "2018-03-06 12:35:50 +0000";
layers = (
{
layerId = "A76CE8C3-CC1A-4246-BAA7-4C4431E1D24E";
paths = (
{
closed = 1;
nodes = (
"277 -58 OFFCURVE",
"262 37 QCURVE SMOOTH",
"248 126 OFFCURVE",
"186 170 QCURVE",
"248 213 OFFCURVE",
"262 303 QCURVE SMOOTH",
"277 397 OFFCURVE",
"227 482 QCURVE SMOOTH",
"197 530 OFFCURVE",
"195 570 QCURVE SMOOTH",
"190 642 OFFCURVE",
"260 719 QCURVE",
"269 731 OFFCURVE",
"259 743 QCURVE",
"247 754 OFFCURVE",
"235 744 QCURVE SMOOTH",
"155 676 OFFCURVE",
"153 546 QCURVE SMOOTH",
"152 488 OFFCURVE",
"182 408 QCURVE SMOOTH",
"210 334 OFFCURVE",
"214 302 QCURVE SMOOTH",
"224 233 OFFCURVE",
"145 186 QCURVE",
"145 154 LINE",
"223 107 OFFCURVE",
"214 39 QCURVE SMOOTH",
"210 8 OFFCURVE",
"182 -68 QCURVE SMOOTH",
"152 -147 OFFCURVE",
"153 -206 QCURVE SMOOTH",
"155 -336 OFFCURVE",
"235 -404 QCURVE SMOOTH",
"247 -414 OFFCURVE",
"259 -404 QCURVE",
"269 -392 OFFCURVE",
"260 -380 QCURVE",
"191 -303 OFFCURVE",
"195 -230 QCURVE SMOOTH",
"197 -191 OFFCURVE",
"227 -142 QCURVE SMOOTH"
);
}
);
width = 407;
}
);
note = braceleft;
rightKerningGroup = braceleft;
unicode = 007B;
changeCount = 1;
},
{
glyphname = bar;
lastChange = "2018-03-06 12:35:50 +0000";
layers = (
{
layerId = "A76CE8C3-CC1A-4246-BAA7-4C4431E1D24E";
paths = (
{
closed = 1;
nodes = (
"128 732 OFFCURVE",
"120 732 QCURVE",
"106 732 OFFCURVE",
"83 725 QCURVE",
"81 724 OFFCURVE",
"79 723 QCURVE",
"78 717 OFFCURVE",
"78 717 QCURVE",
"78 -387 LINE SMOOTH",
"78 -387 OFFCURVE",
"77 -391 OFFCURVE",
"77 -391 QCURVE",
"78 -395 OFFCURVE",
"83 -395 QCURVE SMOOTH",
"84 -395 OFFCURVE",
"87 -394 QCURVE SMOOTH",
"129 -387 OFFCURVE",
"129 -378 QCURVE",
"128 726 LINE"
);
}
);
width = 205;
}
);
note = bar;
unicode = 007C;
changeCount = 1;
},
{
glyphname = braceright;
lastChange = "2018-03-06 12:35:50 +0000";
layers = (
{
layerId = "A76CE8C3-CC1A-4246-BAA7-4C4431E1D24E";
paths = (
{
closed = 1;
nodes = (
"138 -392 OFFCURVE",
"149 -404 QCURVE",
"160 -414 OFFCURVE",
"173 -404 QCURVE SMOOTH",
"253 -336 OFFCURVE",
"255 -206 QCURVE SMOOTH",
"256 -147 OFFCURVE",
"226 -68 QCURVE SMOOTH",
"198 8 OFFCURVE",
"193 39 QCURVE SMOOTH",
"184 107 OFFCURVE",
"262 154 QCURVE",
"262 186 LINE",
"184 233 OFFCURVE",
"193 302 QCURVE SMOOTH",
"198 334 OFFCURVE",
"226 408 QCURVE SMOOTH",
"255 488 OFFCURVE",
"255 546 QCURVE SMOOTH",
"252 676 OFFCURVE",
"173 744 QCURVE SMOOTH",
"160 754 OFFCURVE",
"149 743 QCURVE",
"138 731 OFFCURVE",
"148 719 QCURVE",
"217 642 OFFCURVE",
"213 570 QCURVE SMOOTH",
"210 530 OFFCURVE",
"181 482 QCURVE SMOOTH",
"131 397 OFFCURVE",
"145 303 QCURVE SMOOTH",
"160 213 OFFCURVE",
"221 170 QCURVE",
"160 126 OFFCURVE",
"145 37 QCURVE SMOOTH",
"131 -58 OFFCURVE",
"181 -142 QCURVE SMOOTH",
"210 -191 OFFCURVE",
"213 -230 QCURVE SMOOTH",
"217 -303 OFFCURVE",
"147 -380 QCURVE"
);
}
);
width = 407;
}
);
leftKerningGroup = braceright;
note = braceright;
unicode = 007D;
changeCount = 1;
},
{
glyphname = asciitilde;
lastChange = "2018-03-06 12:35:50 +0000";
layers = (
{
layerId = "A76CE8C3-CC1A-4246-BAA7-4C4431E1D24E";
paths = (
{
closed = 1;
nodes = (
"439 250 OFFCURVE",
"521 303 OFFCURVE",
"521 328 QCURVE SMOOTH",
"521 341 OFFCURVE",
"512 345 QCURVE",
"510 344 OFFCURVE",
"493 330 OFFCURVE",
"489 327 OFFCURVE",
"474 316 OFFCURVE",
"467 313 OFFCURVE",
"454 306 OFFCURVE",
"443 304 OFFCURVE",
"429 301 OFFCURVE",
"422 301 QCURVE SMOOTH",
"400 301 OFFCURVE",
"355 310 OFFCURVE",
"329 319 OFFCURVE",
"305 327 QCURVE SMOOTH",
"278 337 OFFCURVE",
"256 345 OFFCURVE",
"208 354 OFFCURVE",
"186 354 QCURVE SMOOTH",
"145 354 OFFCURVE",
"56 303 OFFCURVE",
"56 276 QCURVE SMOOTH",
"56 264 OFFCURVE",
"65 259 QCURVE",
"88 280 OFFCURVE",
"130 303 OFFCURVE",
"156 303 QCURVE SMOOTH",
"177 303 OFFCURVE",
"222 295 OFFCURVE",
"248 286 OFFCURVE",
"271 277 QCURVE SMOOTH",
"295 268 OFFCURVE",
"324 259 OFFCURVE",
"370 250 OFFCURVE",
"393 250 QCURVE SMOOTH"
);
}
);
width = 570;
}
);
note = asciitilde;
unicode = 007E;
changeCount = 1;
},
{
glyphname = exclamdown;
lastChange = "2018-03-06 12:35:50 +0000";
layers = (
{
layerId = "A76CE8C3-CC1A-4246-BAA7-4C4431E1D24E";
paths = (
{
closed = 1;
nodes = (
"130 320 OFFCURVE",
"163 352 OFFCURVE",
"163 397 OFFCURVE",
"130 430 OFFCURVE",
"85 430 OFFCURVE",
"53 397 OFFCURVE",
"53 352 OFFCURVE",
"85 320 OFFCURVE"
);
},
{
closed = 1;
nodes = (
"153 -96 OFFCURVE",
"123 249 QCURVE",
"120 256 OFFCURVE",
"109 260 QCURVE",
"99 259 OFFCURVE",
"93 247 QCURVE",
"88 183 OFFCURVE",
"76 42 OFFCURVE",
"68 -41 OFFCURVE",
"62 -117 OFFCURVE",
"59 -157 OFFCURVE",
"59 -165 QCURVE SMOOTH",
"59 -188 OFFCURVE",
"82 -223 OFFCURVE",
"103 -223 QCURVE SMOOTH",
"126 -223 OFFCURVE",
"153 -188 OFFCURVE",
"153 -165 QCURVE SMOOTH"
);
}
);
width = 215;
}
);
note = exclamdown;
rightKerningGroup = exclamdown;
unicode = 00A1;
changeCount = 1;
},
{
glyphname = sterling;
lastChange = "2018-03-06 12:35:50 +0000";
layers = (
{
layerId = "A76CE8C3-CC1A-4246-BAA7-4C4431E1D24E";
paths = (
{
closed = 1;
nodes = (
"126 387 OFFCURVE",
"132 342 QCURVE",
"78 342 LINE SMOOTH",
"71 342 OFFCURVE",
"51 311 OFFCURVE",
"55 306 QCURVE",
"138 306 LINE",
"148 241 OFFCURVE",
"148 231 QCURVE SMOOTH",
"148 196 OFFCURVE",
"116 116 OFFCURVE",
"94 94 QCURVE SMOOTH",
"44 44 OFFCURVE",
"44 16 QCURVE SMOOTH",
"44 9 OFFCURVE",
"54 -6 OFFCURVE",
"60 -6 QCURVE",
"66 -1 OFFCURVE",
"83 30 OFFCURVE",
"102 49 OFFCURVE",
"116 49 QCURVE SMOOTH",
"133 49 OFFCURVE",
"174 31 OFFCURVE",
"208 10 OFFCURVE",
"263 -8 OFFCURVE",
"291 -8 QCURVE SMOOTH",
"319 -8 OFFCURVE",
"371 19 OFFCURVE",
"408 58 OFFCURVE",
"433 95 OFFCURVE",
"437 108 QCURVE SMOOTH",
"440 117 OFFCURVE",
"440 123 QCURVE SMOOTH",
"440 127 OFFCURVE",
"434 135 OFFCURVE",
"428 139 OFFCURVE",
"427 139 QCURVE",
"422 129 OFFCURVE",
"408 108 OFFCURVE",
"382 77 OFFCURVE",
"346 58 OFFCURVE",
"327 58 QCURVE SMOOTH",
"297 58 OFFCURVE",
"249 73 OFFCURVE",
"222 91 OFFCURVE",
"187 105 OFFCURVE",
"169 105 QCURVE SMOOTH",
"150 105 OFFCURVE",
"134 97 QCURVE",
"163 123 OFFCURVE",
"223 223 OFFCURVE",
"223 272 QCURVE SMOOTH",
"223 285 OFFCURVE",
"221 306 QCURVE",
"372 306 LINE",
"376 309 OFFCURVE",
"385 321 OFFCURVE",
"388 337 OFFCURVE",
"381 342 QCURVE",
"216 342 LINE",
"214 350 OFFCURVE",
"213 359 QCURVE SMOOTH",
"202 420 OFFCURVE",
"202 459 QCURVE SMOOTH",
"202 496 OFFCURVE",
"214 552 OFFCURVE",
"245 590 OFFCURVE",
"270 590 QCURVE SMOOTH",
"280 590 OFFCURVE",
"294 584 OFFCURVE",
"305 573 QCURVE SMOOTH",
"308 570 OFFCURVE",
"325 553 OFFCURVE",
"334 545 OFFCURVE",
"351 536 OFFCURVE",
"358 536 QCURVE SMOOTH",
"373 536 OFFCURVE",
"396 560 OFFCURVE",
"396 584 QCURVE SMOOTH",
"396 591 OFFCURVE",
"390 609 OFFCURVE",
"386 612 QCURVE",
"366 626 OFFCURVE",
"338 636 OFFCURVE",
"314 636 QCURVE SMOOTH",
"279 636 OFFCURVE",
"210 600 OFFCURVE",
"156 538 OFFCURVE",
"124 449 OFFCURVE",
"125 399 QCURVE SMOOTH"
);
}
);
width = 477;
}
);
note = sterling;
unicode = 00A3;
changeCount = 1;
},
{
glyphname = currency;
lastChange = "2018-03-06 12:35:50 +0000";
layers = (
{
layerId = "A76CE8C3-CC1A-4246-BAA7-4C4431E1D24E";
paths = (
{
closed = 1;
nodes = (
"175 377 OFFCURVE",
"233 463 OFFCURVE",
"277 463 QCURVE SMOOTH",
"325 463 OFFCURVE",
"395 363 OFFCURVE",
"395 294 QCURVE SMOOTH",
"395 236 OFFCURVE",
"339 152 OFFCURVE",
"294 152 QCURVE SMOOTH",
"247 152 OFFCURVE",
"175 251 OFFCURVE",
"175 319 QCURVE SMOOTH"
);
},
{
closed = 1;
nodes = (
"229 496 OFFCURVE",
"184 465 QCURVE",
"132 520 LINE",
"121 517 OFFCURVE",
"97 500 OFFCURVE",
"84 483 OFFCURVE",
"88 479 QCURVE",
"140 423 LINE",
"102 373 OFFCURVE",
"102 307 QCURVE SMOOTH",
"102 253 OFFCURVE",
"132 205 QCURVE",
"78 154 LINE",
"82 143 OFFCURVE",
"98 119 OFFCURVE",
"115 106 OFFCURVE",
"119 110 QCURVE SMOOTH",
"172 160 LINE",
"222 120 OFFCURVE",
"286 120 QCURVE SMOOTH",
"345 120 OFFCURVE",
"392 155 QCURVE",
"444 100 LINE",
"456 104 OFFCURVE",
"480 120 OFFCURVE",
"492 137 OFFCURVE",
"488 141 QCURVE",
"434 199 LINE",
"467 248 OFFCURVE",
"467 307 QCURVE SMOOTH",
"467 362 OFFCURVE",
"438 410 QCURVE",
"498 466 LINE",
"495 478 OFFCURVE",
"478 502 OFFCURVE",
"461 514 OFFCURVE",
"457 510 QCURVE",
"398 455 LINE",
"349 496 OFFCURVE",
"286 496 QCURVE SMOOTH"
);
}
);
width = 574;
}
);
note = currency;
unicode = 00A4;
changeCount = 1;
},
{
glyphname = yen;
lastChange = "2018-03-06 12:35:50 +0000";
layers = (
{
layerId = "A76CE8C3-CC1A-4246-BAA7-4C4431E1D24E";
paths = (
{
closed = 1;
nodes = (
"223 175 LINE SMOOTH",
"216 175 OFFCURVE",
"199 143 OFFCURVE",
"203 138 QCURVE",
"301 138 LINE",
"301 116 LINE SMOOTH",
"301 58 OFFCURVE",
"296 42 QCURVE SMOOTH",
"294 35 OFFCURVE",
"242 26 OFFCURVE",
"227 26 QCURVE",
"224 22 OFFCURVE",
"224 1 OFFCURVE",
"227 -3 QCURVE",
"330 2 OFFCURVE",
"345 2 QCURVE SMOOTH",
"360 2 OFFCURVE",
"462 -3 QCURVE",
"466 1 OFFCURVE",
"465 22 OFFCURVE",
"462 26 QCURVE",
"447 26 OFFCURVE",
"395 35 OFFCURVE",
"393 42 QCURVE SMOOTH",
"388 58 OFFCURVE",
"388 116 QCURVE SMOOTH",
"388 138 LINE",
"475 138 LINE",
"479 141 OFFCURVE",
"488 154 OFFCURVE",
"492 170 OFFCURVE",
"485 175 QCURVE",
"389 175 LINE",
"389 218 LINE",
"475 218 LINE",
"479 221 OFFCURVE",
"488 234 OFFCURVE",
"492 250 OFFCURVE",
"485 255 QCURVE",
"389 255 LINE",
"390 272 OFFCURVE",
"394 279 QCURVE SMOOTH",
"522 517 OFFCURVE",
"552 570 QCURVE SMOOTH",
"560 584 OFFCURVE",
"588 602 OFFCURVE",
"619 609 OFFCURVE",
"634 610 OFFCURVE",
"641 610 QCURVE SMOOTH",
"643 610 OFFCURVE",
"645 635 OFFCURVE",
"643 639 QCURVE",
"630 639 OFFCURVE",
"591 636 OFFCURVE",
"557 634 OFFCURVE",
"533 634 QCURVE SMOOTH",
"523 634 OFFCURVE",
"430 639 QCURVE",
"429 637 OFFCURVE",
"430 610 OFFCURVE",
"432 610 QCURVE SMOOTH",
"458 610 OFFCURVE",
"494 600 OFFCURVE",
"507 589 OFFCURVE",
"507 585 QCURVE SMOOTH",
"507 579 OFFCURVE",
"504 570 QCURVE",
"493 543 OFFCURVE",
"407 375 OFFCURVE",
"372 311 QCURVE",
"233 549 LINE SMOOTH",
"221 569 OFFCURVE",
"221 579 QCURVE SMOOTH",
"221 591 OFFCURVE",
"247 607 OFFCURVE",
"272 611 OFFCURVE",
"281 611 QCURVE SMOOTH",
"285 611 OFFCURVE",
"285 636 OFFCURVE",
"283 640 QCURVE",
"183 635 OFFCURVE",
"155 635 QCURVE SMOOTH",
"133 635 OFFCURVE",
"95 637 OFFCURVE",
"47 640 OFFCURVE",
"30 640 QCURVE",
"26 636 OFFCURVE",
"26 611 OFFCURVE",
"30 611 QCURVE SMOOTH",
"40 611 OFFCURVE",
"74 602 OFFCURVE",
"86 595 QCURVE SMOOTH",
"108 583 OFFCURVE",
"137 553 OFFCURVE",
"152 526 QCURVE SMOOTH",
"179 479 OFFCURVE",
"263 330 OFFCURVE",
"294 273 QCURVE",
"299 264 OFFCURVE",
"300 255 QCURVE",
"223 255 LINE SMOOTH",
"216 255 OFFCURVE",
"199 223 OFFCURVE",
"203 218 QCURVE",
"301 218 LINE",
"301 175 LINE"
);
}
);
width = 672;
}
);
note = yen;
unicode = 00A5;
changeCount = 1;
},
{
glyphname = brokenbar;
lastChange = "2018-03-06 12:35:50 +0000";
layers = (
{
layerId = "A76CE8C3-CC1A-4246-BAA7-4C4431E1D24E";
paths = (
{
closed = 1;
nodes = (
"127 731 LINE SMOOTH",
"127 732 OFFCURVE",
"123 735 OFFCURVE",
"119 735 QCURVE SMOOTH",
"97 735 OFFCURVE",
"80 730 QCURVE",
"74 728 OFFCURVE",
"75 722 QCURVE",
"75 248 LINE SMOOTH",
"75 248 OFFCURVE",
"75 243 OFFCURVE",
"75 242 OFFCURVE",
"78 240 OFFCURVE",
"80 240 QCURVE SMOOTH",
"86 240 OFFCURVE",
"126 250 OFFCURVE",
"127 255 QCURVE",
"127 729 LINE"
);
},
{
closed = 1;
nodes = (
"86 -393 OFFCURVE",
"126 -383 OFFCURVE",
"127 -378 QCURVE",
"127 111 LINE",
"127 113 LINE SMOOTH",
"127 114 OFFCURVE",
"123 117 OFFCURVE",
"119 117 QCURVE SMOOTH",
"97 117 OFFCURVE",
"80 112 QCURVE",
"74 110 OFFCURVE",
"75 104 QCURVE",
"75 -385 LINE SMOOTH",
"75 -386 OFFCURVE",
"75 -390 OFFCURVE",
"75 -392 OFFCURVE",
"78 -393 OFFCURVE",
"80 -393 QCURVE SMOOTH"
);
}
);
width = 205;
}
);
note = brokenbar;
unicode = 00A6;
changeCount = 1;
},
{
glyphname = section;
lastChange = "2018-03-06 12:35:50 +0000";
layers = (
{
layerId = "A76CE8C3-CC1A-4246-BAA7-4C4431E1D24E";
paths = (
{
closed = 1;
nodes = (
"91 -58 OFFCURVE",
"91 -44 QCURVE SMOOTH",
"91 -33 OFFCURVE",
"116 -8 OFFCURVE",
"127 -8 QCURVE SMOOTH",
"133 -8 OFFCURVE",
"145 -11 OFFCURVE",
"150 -13 OFFCURVE",
"162 -20 OFFCURVE",
"163 -20 QCURVE SMOOTH",
"179 -28 OFFCURVE",
"195 -28 QCURVE SMOOTH",
"212 -28 OFFCURVE",
"248 -18 OFFCURVE",
"276 9 OFFCURVE",
"276 26 QCURVE SMOOTH",
"276 57 OFFCURVE",
"202 149 OFFCURVE",
"154 192 QCURVE SMOOTH",
"131 213 OFFCURVE",
"96 253 OFFCURVE",
"59 306 OFFCURVE",
"38 366 OFFCURVE",
"38 396 QCURVE SMOOTH",
"38 446 OFFCURVE",
"87 516 QCURVE SMOOTH",
"128 573 OFFCURVE",
"160 600 QCURVE",
"165 606 OFFCURVE",
"171 611 QCURVE",
"222 653 OFFCURVE",
"304 653 QCURVE SMOOTH",
"327 653 OFFCURVE",
"345 645 QCURVE",
"351 633 OFFCURVE",
"351 619 QCURVE SMOOTH",
"351 608 OFFCURVE",
"327 583 OFFCURVE",
"315 583 QCURVE SMOOTH",
"309 583 OFFCURVE",
"298 586 OFFCURVE",
"292 588 OFFCURVE",
"280 595 OFFCURVE",
"279 595 QCURVE SMOOTH",
"263 603 OFFCURVE",
"247 603 QCURVE SMOOTH",
"230 603 OFFCURVE",
"195 593 OFFCURVE",
"166 567 OFFCURVE",
"166 549 QCURVE SMOOTH",
"166 519 OFFCURVE",
"241 427 OFFCURVE",
"288 383 QCURVE SMOOTH",
"311 362 OFFCURVE",
"347 323 OFFCURVE",
"384 270 OFFCURVE",
"404 210 OFFCURVE",
"404 179 QCURVE SMOOTH",
"404 129 OFFCURVE",
"355 60 QCURVE SMOOTH",
"315 2 OFFCURVE",
"283 -25 QCURVE",
"277 -31 OFFCURVE",
"271 -36 QCURVE",
"220 -78 OFFCURVE",
"138 -78 QCURVE SMOOTH",
"116 -78 OFFCURVE",
"97 -70 QCURVE"
);
},
{
closed = 1;
nodes = (
"331 67 OFFCURVE",
"337 80 OFFCURVE",
"347 102 OFFCURVE",
"350 123 OFFCURVE",
"350 135 QCURVE SMOOTH",
"350 232 OFFCURVE",
"238 335 QCURVE",
"236 337 OFFCURVE",
"204 366 OFFCURVE",
"194 375 OFFCURVE",
"166 404 OFFCURVE",
"155 419 OFFCURVE",
"136 446 OFFCURVE",
"127 467 OFFCURVE",
"120 494 OFFCURVE",
"120 507 QCURVE SMOOTH",
"120 516 OFFCURVE",
"121 524 QCURVE",
"121 523 OFFCURVE",
"120 522 QCURVE",
"111 508 OFFCURVE",
"105 496 OFFCURVE",
"96 474 OFFCURVE",
"92 453 OFFCURVE",
"92 440 QCURVE SMOOTH",
"92 344 OFFCURVE",
"204 240 QCURVE",
"207 238 OFFCURVE",
"239 209 OFFCURVE",
"248 200 OFFCURVE",
"276 172 OFFCURVE",
"287 157 OFFCURVE",
"307 129 OFFCURVE",
"315 108 OFFCURVE",
"322 81 OFFCURVE",
"322 68 QCURVE SMOOTH",
"322 60 OFFCURVE",
"321 52 QCURVE",
"322 53 OFFCURVE",
"322 53 QCURVE"
);
}
);
width = 441;
}
);
note = section;
unicode = 00A7;
changeCount = 1;
},
{
glyphname = copyright;
lastChange = "2018-03-06 12:35:50 +0000";
layers = (
{
layerId = "A76CE8C3-CC1A-4246-BAA7-4C4431E1D24E";
paths = (
{
closed = 1;
nodes = (
"436 279 OFFCURVE",
"433 268 OFFCURVE",
"426 251 OFFCURVE",
"421 246 QCURVE",
"401 227 OFFCURVE",
"349 227 QCURVE SMOOTH",
"310 227 OFFCURVE",
"244 289 OFFCURVE",
"244 345 QCURVE SMOOTH",
"244 387 OFFCURVE",
"300 449 OFFCURVE",
"340 449 QCURVE SMOOTH",
"365 449 OFFCURVE",
"403 437 OFFCURVE",
"422 418 OFFCURVE",
"432 403 OFFCURVE",
"433 396 QCURVE",
"437 394 OFFCURVE",
"440 394 QCURVE SMOOTH",
"446 394 OFFCURVE",
"456 400 OFFCURVE",
"456 403 QCURVE SMOOTH",
"456 407 OFFCURVE",
"440 464 QCURVE",
"391 483 OFFCURVE",
"328 483 QCURVE SMOOTH",
"267 483 OFFCURVE",
"187 397 OFFCURVE",
"187 336 QCURVE SMOOTH",
"187 277 OFFCURVE",
"270 195 OFFCURVE",
"330 195 QCURVE SMOOTH",
"389 195 OFFCURVE",
"436 214 QCURVE SMOOTH",
"441 216 OFFCURVE",
"456 272 OFFCURVE",
"456 276 QCURVE",
"455 279 OFFCURVE",
"436 279 QCURVE SMOOTH"
);
},
{
closed = 1;
nodes = (
"265 584 OFFCURVE",
"396 584 OFFCURVE",
"507 519 OFFCURVE",
"572 408 OFFCURVE",
"572 277 OFFCURVE",
"507 165 OFFCURVE",
"396 100 OFFCURVE",
"265 100 OFFCURVE",
"154 165 OFFCURVE",
"89 277 OFFCURVE",
"89 408 OFFCURVE",
"154 519 OFFCURVE"
);
},
{
closed = 1;
nodes = (
"404 69 OFFCURVE",
"530 142 OFFCURVE",
"603 268 OFFCURVE",
"603 416 OFFCURVE",
"530 542 OFFCURVE",
"404 615 OFFCURVE",
"329 615 QCURVE SMOOTH",
"216 615 OFFCURVE",
"56 455 OFFCURVE",
"56 229 OFFCURVE",
"216 69 OFFCURVE",
"329 69 QCURVE SMOOTH"
);
}
);
width = 659;
}
);
note = copyright;
unicode = 00A9;
changeCount = 1;
},
{
glyphname = ordfeminine;
lastChange = "2018-03-06 12:35:50 +0000";
layers = (
{
layerId = "A76CE8C3-CC1A-4246-BAA7-4C4431E1D24E";
paths = (
{
closed = 1;
nodes = (
"104 368 OFFCURVE",
"147 385 QCURVE SMOOTH",
"153 387 OFFCURVE",
"175 394 OFFCURVE",
"205 403 OFFCURVE",
"211 405 QCURVE",
"211 320 LINE SMOOTH",
"211 314 OFFCURVE",
"168 286 OFFCURVE",
"151 286 QCURVE SMOOTH",
"132 286 OFFCURVE",
"104 316 OFFCURVE",
"104 335 QCURVE SMOOTH"
);
},
{
closed = 1;
nodes = (
"57 495 OFFCURVE",
"57 483 QCURVE SMOOTH",
"57 472 OFFCURVE",
"71 454 OFFCURVE",
"81 454 QCURVE SMOOTH",
"108 454 OFFCURVE",
"113 487 QCURVE SMOOTH",
"117 508 OFFCURVE",
"135 526 OFFCURVE",
"152 526 QCURVE SMOOTH",
"179 526 OFFCURVE",
"211 489 OFFCURVE",
"211 464 QCURVE SMOOTH",
"211 445 LINE SMOOTH",
"211 436 OFFCURVE",
"209 431 OFFCURVE",
"203 428 QCURVE",
"197 425 OFFCURVE",
"82 384 QCURVE SMOOTH",
"69 379 OFFCURVE",
"47 349 OFFCURVE",
"47 329 QCURVE SMOOTH",
"47 295 OFFCURVE",
"94 249 OFFCURVE",
"128 249 QCURVE SMOOTH",
"144 249 OFFCURVE",
"204 286 OFFCURVE",
"213 295 QCURVE",
"216 278 OFFCURVE",
"241 250 OFFCURVE",
"255 250 QCURVE SMOOTH",
"265 250 OFFCURVE",
"300 270 OFFCURVE",
"307 277 QCURVE",
"311 283 OFFCURVE",
"311 290 QCURVE SMOOTH",
"311 295 OFFCURVE",
"308 295 QCURVE",
"306 293 LINE SMOOTH",
"303 291 OFFCURVE",
"298 289 OFFCURVE",
"289 286 OFFCURVE",
"285 286 QCURVE SMOOTH",
"264 286 OFFCURVE",
"264 319 QCURVE SMOOTH",
"264 462 LINE SMOOTH",
"264 501 OFFCURVE",
"218 556 OFFCURVE",
"188 556 QCURVE SMOOTH",
"154 556 OFFCURVE",
"83 520 OFFCURVE",
"62 500 QCURVE SMOOTH"
);
}
);
width = 345;
}
);
note = ordfeminine;
unicode = 00AA;
changeCount = 1;
},
{
glyphname = guillemotleft;
lastChange = "2018-03-06 12:35:50 +0000";
layers = (
{
layerId = "A76CE8C3-CC1A-4246-BAA7-4C4431E1D24E";
paths = (
{
closed = 1;
nodes = (
"199 360 OFFCURVE",
"194 369 QCURVE SMOOTH",
"189 379 OFFCURVE",
"177 373 QCURVE SMOOTH",
"118 344 OFFCURVE",
"84 288 QCURVE SMOOTH",
"50 234 OFFCURVE",
"50 170 QCURVE SMOOTH",
"50 107 OFFCURVE",
"117 -3 OFFCURVE",
"177 -33 QCURVE SMOOTH",
"189 -39 OFFCURVE",
"194 -29 QCURVE SMOOTH",
"199 -20 OFFCURVE",
"191 -13 QCURVE SMOOTH",
"100 65 OFFCURVE",
"100 170 QCURVE SMOOTH",
"100 281 OFFCURVE",
"191 353 QCURVE SMOOTH"
);
},
{
closed = 1;
nodes = (
"378 360 OFFCURVE",
"373 369 QCURVE SMOOTH",
"368 379 OFFCURVE",
"356 373 QCURVE SMOOTH",
"297 344 OFFCURVE",
"263 288 QCURVE SMOOTH",
"229 234 OFFCURVE",
"229 170 QCURVE SMOOTH",
"229 107 OFFCURVE",
"296 -3 OFFCURVE",
"356 -33 QCURVE SMOOTH",
"368 -39 OFFCURVE",
"373 -29 QCURVE SMOOTH",
"378 -20 OFFCURVE",
"370 -13 QCURVE SMOOTH",
"279 65 OFFCURVE",
"279 170 QCURVE SMOOTH",
"279 281 OFFCURVE",
"370 353 QCURVE SMOOTH"
);
}
);
width = 425;
}
);
leftKerningGroup = guillemotleft;
note = guillemotleft;
rightKerningGroup = guillemotleft;
unicode = 00AB;
changeCount = 1;
},
{
glyphname = logicalnot;
lastChange = "2018-03-06 12:35:50 +0000";
layers = (
{
layerId = "A76CE8C3-CC1A-4246-BAA7-4C4431E1D24E";
paths = (
{
closed = 1;
nodes = (
"50 420 OFFCURVE",
"45 374 QCURVE",
"45 364 OFFCURVE",
"51 364 QCURVE SMOOTH",
"456 364 LINE",
"456 161 LINE",
"459 155 OFFCURVE",
"469 154 QCURVE",
"478 154 OFFCURVE",
"501 162 OFFCURVE",
"515 168 OFFCURVE",
"516 169 QCURVE",
"516 420 LINE",
"60 420 LINE SMOOTH"
);
}
);
width = 587;
}
);
note = logicalnot;
unicode = 00AC;
changeCount = 1;
},
{
glyphname = registered;
lastChange = "2018-03-06 12:35:50 +0000";
layers = (
{
layerId = "A76CE8C3-CC1A-4246-BAA7-4C4431E1D24E";
paths = (
{
closed = 1;
nodes = (
"241 552 OFFCURVE",
"206 554 QCURVE",
"204 553 OFFCURVE",
"205 541 OFFCURVE",
"206 540 QCURVE",
"212 540 OFFCURVE",
"234 536 OFFCURVE",
"235 533 QCURVE",
"237 524 OFFCURVE",
"237 502 QCURVE SMOOTH",
"237 325 LINE SMOOTH",
"237 302 OFFCURVE",
"235 294 QCURVE",
"234 291 OFFCURVE",
"212 287 OFFCURVE",
"206 287 QCURVE",
"205 286 OFFCURVE",
"204 274 OFFCURVE",
"206 273 QCURVE",
"241 275 OFFCURVE",
"262 275 QCURVE SMOOTH",
"280 275 OFFCURVE",
"315 273 QCURVE",
"317 274 OFFCURVE",
"316 286 OFFCURVE",
"315 287 QCURVE",
"309 287 OFFCURVE",
"287 291 OFFCURVE",
"286 294 QCURVE",
"284 301 OFFCURVE",
"284 325 QCURVE SMOOTH",
"284 403 LINE",
"299 403 LINE SMOOTH",
"309 403 OFFCURVE",
"312 398 QCURVE SMOOTH",
"346 344 OFFCURVE",
"382 297 QCURVE SMOOTH",
"392 284 OFFCURVE",
"410 278 QCURVE SMOOTH",
"424 273 OFFCURVE",
"478 273 QCURVE",
"478 274 OFFCURVE",
"479 285 OFFCURVE",
"478 287 QCURVE",
"461 288 OFFCURVE",
"440 299 OFFCURVE",
"430 311 QCURVE SMOOTH",
"388 361 OFFCURVE",
"358 410 QCURVE",
"381 418 OFFCURVE",
"414 458 OFFCURVE",
"414 480 QCURVE SMOOTH",
"414 513 OFFCURVE",
"356 553 OFFCURVE",
"323 553 QCURVE SMOOTH",
"310 553 OFFCURVE",
"270 552 OFFCURVE",
"263 552 QCURVE SMOOTH"
);
},
{
closed = 1;
nodes = (
"295 421 OFFCURVE",
"284 421 QCURVE",
"284 500 LINE SMOOTH",
"285 530 OFFCURVE",
"286 532 QCURVE",
"287 536 OFFCURVE",
"307 536 QCURVE SMOOTH",
"340 536 OFFCURVE",
"366 501 OFFCURVE",
"366 470 QCURVE SMOOTH",
"366 446 OFFCURVE",
"331 421 OFFCURVE",
"303 421 QCURVE"
);
},
{
closed = 1;
nodes = (
"265 648 OFFCURVE",
"396 648 OFFCURVE",
"507 584 OFFCURVE",
"572 473 OFFCURVE",
"572 342 OFFCURVE",
"507 230 OFFCURVE",
"396 165 OFFCURVE",
"265 165 OFFCURVE",
"154 230 OFFCURVE",
"89 342 OFFCURVE",
"89 473 OFFCURVE",
"154 584 OFFCURVE"
);
},
{
closed = 1;
nodes = (
"404 133 OFFCURVE",
"530 207 OFFCURVE",
"603 333 OFFCURVE",
"603 407 QCURVE SMOOTH",
"603 481 OFFCURVE",
"530 607 OFFCURVE",
"404 680 OFFCURVE",
"329 680 QCURVE SMOOTH",
"216 680 OFFCURVE",
"56 520 OFFCURVE",
"56 407 QCURVE SMOOTH",
"56 333 OFFCURVE",
"129 207 OFFCURVE",
"255 133 OFFCURVE",
"329 133 QCURVE SMOOTH"
);
}
);
width = 659;
}
);
leftKerningGroup = registered;
note = registered;
rightKerningGroup = registered;
unicode = 00AE;
changeCount = 1;
},
{
glyphname = degree;
lastChange = "2018-03-06 12:35:50 +0000";
layers = (
{
layerId = "A76CE8C3-CC1A-4246-BAA7-4C4431E1D24E";
paths = (
{
closed = 1;
nodes = (
"163 597 OFFCURVE",
"198 562 OFFCURVE",
"198 511 OFFCURVE",
"163 474 OFFCURVE",
"112 474 OFFCURVE",
"75 511 OFFCURVE",
"75 562 OFFCURVE",
"112 597 OFFCURVE"
);
},
{
closed = 1;
nodes = (
"178 437 OFFCURVE",
"235 496 OFFCURVE",
"235 577 OFFCURVE",
"178 634 OFFCURVE",
"97 634 OFFCURVE",
"38 577 OFFCURVE",
"38 496 OFFCURVE",
"97 437 OFFCURVE"
);
}
);
width = 274;
}
);
note = degree;
unicode = 00B0;
changeCount = 1;
},
{
glyphname = plusminus;
lastChange = "2018-03-06 12:35:50 +0000";
layers = (
{
layerId = "A76CE8C3-CC1A-4246-BAA7-4C4431E1D24E";
paths = (
{
closed = 1;
nodes = (
"34 6 OFFCURVE",
"40 6 QCURVE SMOOTH",
"498 6 LINE",
"505 13 OFFCURVE",
"514 38 OFFCURVE",
"514 50 QCURVE SMOOTH",
"514 56 OFFCURVE",
"509 62 OFFCURVE",
"505 62 QCURVE SMOOTH",
"49 62 OFFCURVE",
"49 62 QCURVE",
"43 57 OFFCURVE",
"34 23 OFFCURVE",
"34 16 QCURVE SMOOTH"
);
},
{
closed = 1;
nodes = (
"34 305 OFFCURVE",
"40 305 QCURVE SMOOTH",
"245 305 LINE",
"245 101 LINE SMOOTH",
"245 98 OFFCURVE",
"253 92 OFFCURVE",
"258 92 QCURVE SMOOTH",
"287 92 OFFCURVE",
"301 103 QCURVE",
"301 305 LINE",
"498 305 LINE",
"505 312 OFFCURVE",
"514 337 OFFCURVE",
"514 349 QCURVE SMOOTH",
"514 355 OFFCURVE",
"509 361 OFFCURVE",
"505 361 QCURVE SMOOTH",
"301 361 LINE",
"301 566 LINE",
"300 568 LINE SMOOTH",
"299 569 OFFCURVE",
"293 572 OFFCURVE",
"288 572 QCURVE SMOOTH",
"275 572 OFFCURVE",
"245 561 QCURVE",
"245 361 LINE",
"49 361 LINE",
"43 356 OFFCURVE",
"34 322 OFFCURVE",
"34 315 QCURVE SMOOTH"
);
}
);
width = 548;
}
);
note = plusminus;
unicode = 00B1;
changeCount = 1;
},
{
glyphname = uni00B2;
lastChange = "2018-03-06 12:35:50 +0000";
layers = (
{
layerId = "A76CE8C3-CC1A-4246-BAA7-4C4431E1D24E";
paths = (
{
closed = 1;
nodes = (
"303 365 OFFCURVE",
"302 363 QCURVE",
"301 362 OFFCURVE",
"294 346 OFFCURVE",
"286 333 OFFCURVE",
"273 318 OFFCURVE",
"253 309 OFFCURVE",
"242 309 QCURVE SMOOTH",
"122 309 LINE",
"232 422 OFFCURVE",
"247 439 QCURVE SMOOTH",
"293 494 OFFCURVE",
"293 540 QCURVE SMOOTH",
"293 587 OFFCURVE",
"226 647 OFFCURVE",
"174 647 QCURVE SMOOTH",
"141 647 OFFCURVE",
"76 602 OFFCURVE",
"58 570 QCURVE",
"57 566 OFFCURVE",
"72 550 OFFCURVE",
"75 553 QCURVE",
"87 568 OFFCURVE",
"105 585 OFFCURVE",
"141 602 OFFCURVE",
"162 602 QCURVE SMOOTH",
"193 602 OFFCURVE",
"228 562 OFFCURVE",
"228 530 QCURVE SMOOTH",
"228 483 OFFCURVE",
"180 418 QCURVE SMOOTH",
"162 394 OFFCURVE",
"112 340 OFFCURVE",
"53 280 OFFCURVE",
"40 266 QCURVE",
"38 263 OFFCURVE",
"47 254 OFFCURVE",
"52 254 QCURVE SMOOTH",
"284 254 LINE",
"292 273 OFFCURVE",
"317 350 OFFCURVE",
"321 360 QCURVE",
"316 366 OFFCURVE",
"307 366 QCURVE"
);
}
);
width = 358;
}
);
note = uni00B2;
unicode = 00B2;
changeCount = 1;
},
{
glyphname = uni00B3;
lastChange = "2018-03-06 12:35:50 +0000";
layers = (
{
layerId = "A76CE8C3-CC1A-4246-BAA7-4C4431E1D24E";
paths = (
{
closed = 1;
nodes = (
"63 586 OFFCURVE",
"65 579 OFFCURVE",
"70 571 OFFCURVE",
"72 570 QCURVE",
"75 573 LINE SMOOTH",
"78 576 OFFCURVE",
"81 579 OFFCURVE",
"89 586 OFFCURVE",
"95 591 OFFCURVE",
"104 597 OFFCURVE",
"114 601 OFFCURVE",
"124 605 OFFCURVE",
"136 607 OFFCURVE",
"142 607 QCURVE SMOOTH",
"162 607 OFFCURVE",
"193 576 OFFCURVE",
"193 556 QCURVE SMOOTH",
"193 522 OFFCURVE",
"140 475 OFFCURVE",
"100 467 QCURVE",
"99 463 OFFCURVE",
"100 457 QCURVE",
"102 450 OFFCURVE",
"105 446 QCURVE",
"106 446 OFFCURVE",
"120 451 OFFCURVE",
"137 454 OFFCURVE",
"145 454 QCURVE SMOOTH",
"174 454 OFFCURVE",
"217 404 OFFCURVE",
"217 368 QCURVE SMOOTH",
"217 324 OFFCURVE",
"178 277 OFFCURVE",
"145 277 QCURVE SMOOTH",
"121 277 OFFCURVE",
"106 292 QCURVE SMOOTH",
"103 295 OFFCURVE",
"89 313 OFFCURVE",
"78 321 OFFCURVE",
"70 321 QCURVE SMOOTH",
"58 321 OFFCURVE",
"39 303 OFFCURVE",
"39 288 QCURVE SMOOTH",
"39 275 OFFCURVE",
"51 264 QCURVE SMOOTH",
"58 258 OFFCURVE",
"100 249 OFFCURVE",
"118 249 QCURVE SMOOTH",
"187 249 OFFCURVE",
"281 323 OFFCURVE",
"281 386 QCURVE SMOOTH",
"281 430 OFFCURVE",
"217 486 OFFCURVE",
"191 486 QCURVE",
"212 496 OFFCURVE",
"249 540 OFFCURVE",
"249 569 QCURVE SMOOTH",
"249 605 OFFCURVE",
"197 646 OFFCURVE",
"162 646 QCURVE SMOOTH",
"103 646 OFFCURVE",
"63 586 QCURVE"
);
}
);
width = 318;
}
);
note = uni00B3;
unicode = 00B3;
changeCount = 1;
},
{
glyphname = mu;
lastChange = "2018-03-06 12:35:50 +0000";
layers = (
{
layerId = "A76CE8C3-CC1A-4246-BAA7-4C4431E1D24E";
paths = (
{
closed = 1;
nodes = (
"172 354 OFFCURVE",
"172 400 QCURVE SMOOTH",
"172 409 OFFCURVE",
"128 437 OFFCURVE",
"119 437 QCURVE SMOOTH",
"108 437 OFFCURVE",
"95 417 QCURVE",
"95 298 LINE SMOOTH",
"95 287 OFFCURVE",
"99 216 OFFCURVE",
"99 204 QCURVE",
"92 138 OFFCURVE",
"78 -159 OFFCURVE",
"78 -190 QCURVE SMOOTH",
"78 -199 OFFCURVE",
"122 -227 OFFCURVE",
"131 -227 QCURVE SMOOTH",
"143 -227 OFFCURVE",
"155 -207 QCURVE",
"145 -155 OFFCURVE",
"138 -16 OFFCURVE",
"139 98 OFFCURVE",
"138 101 QCURVE",
"157 -9 OFFCURVE",
"201 -9 QCURVE SMOOTH",
"226 -9 OFFCURVE",
"275 18 OFFCURVE",
"314 64 OFFCURVE",
"344 114 OFFCURVE",
"356 142 QCURVE",
"357 127 OFFCURVE",
"364 87 OFFCURVE",
"378 33 OFFCURVE",
"405 -4 OFFCURVE",
"421 -4 QCURVE SMOOTH",
"451 -4 OFFCURVE",
"504 43 OFFCURVE",
"514 76 QCURVE",
"514 81 OFFCURVE",
"511 87 QCURVE",
"506 96 OFFCURVE",
"502 96 QCURVE",
"479 66 OFFCURVE",
"451 66 QCURVE SMOOTH",
"418 66 OFFCURVE",
"381 139 OFFCURVE",
"381 195 QCURVE",
"391 246 LINE",
"395 269 OFFCURVE",
"403 320 OFFCURVE",
"408 349 OFFCURVE",
"412 378 OFFCURVE",
"414 395 OFFCURVE",
"414 400 QCURVE SMOOTH",
"414 409 OFFCURVE",
"370 437 OFFCURVE",
"361 437 QCURVE SMOOTH",
"350 437 OFFCURVE",
"337 417 QCURVE",
"337 298 LINE",
"337 227 LINE",
"327 198 OFFCURVE",
"300 144 OFFCURVE",
"265 94 OFFCURVE",
"219 64 OFFCURVE",
"195 64 QCURVE SMOOTH",
"170 64 OFFCURVE",
"144 158 OFFCURVE",
"144 223 QCURVE",
"149 246 LINE SMOOTH"
);
}
);
width = 541;
}
);
note = mu;
unicode = 00B5;
changeCount = 1;
},
{
glyphname = paragraph;
lastChange = "2018-03-06 12:35:50 +0000";
layers = (
{
layerId = "A76CE8C3-CC1A-4246-BAA7-4C4431E1D24E";
paths = (
{
closed = 1;
nodes = (
"265 605 OFFCURVE",
"265 605 QCURVE",
"271 611 OFFCURVE",
"293 611 QCURVE SMOOTH",
"317 611 OFFCURVE",
"322 606 QCURVE",
"322 333 OFFCURVE",
"322 333 QCURVE",
"320 331 OFFCURVE",
"274 328 OFFCURVE",
"265 328 QCURVE"
);
},
{
closed = 1;
nodes = (
"322 58 OFFCURVE",
"319 42 QCURVE SMOOTH",
"318 36 OFFCURVE",
"293 36 QCURVE SMOOTH",
"269 36 OFFCURVE",
"268 42 QCURVE SMOOTH",
"265 58 OFFCURVE",
"265 116 QCURVE SMOOTH",
"265 288 LINE",
"272 289 OFFCURVE",
"293 290 OFFCURVE",
"317 292 OFFCURVE",
"321 292 QCURVE",
"322 116 LINE SMOOTH"
);
},
{
closed = 1;
nodes = (
"398 312 OFFCURVE",
"421 339 OFFCURVE",
"421 346 QCURVE",
"421 352 OFFCURVE",
"411 352 QCURVE",
"400 349 LINE SMOOTH",
"389 345 OFFCURVE",
"364 339 OFFCURVE",
"362 339 QCURVE",
"362 540 LINE SMOOTH",
"362 594 OFFCURVE",
"365 604 QCURVE",
"369 612 OFFCURVE",
"408 624 OFFCURVE",
"422 624 QCURVE",
"426 627 OFFCURVE",
"427 649 OFFCURVE",
"423 653 QCURVE",
"408 652 LINE SMOOTH",
"393 651 OFFCURVE",
"332 648 OFFCURVE",
"302 648 QCURVE SMOOTH",
"273 648 OFFCURVE",
"235 652 OFFCURVE",
"205 652 QCURVE SMOOTH",
"164 652 OFFCURVE",
"86 607 OFFCURVE",
"34 522 OFFCURVE",
"34 469 QCURVE SMOOTH",
"34 442 OFFCURVE",
"59 380 OFFCURVE",
"105 324 OFFCURVE",
"181 287 OFFCURVE",
"226 287 QCURVE",
"226 116 LINE SMOOTH",
"226 58 OFFCURVE",
"221 42 QCURVE SMOOTH",
"219 35 OFFCURVE",
"171 23 OFFCURVE",
"160 23 QCURVE",
"157 21 OFFCURVE",
"156 0 OFFCURVE",
"158 -4 QCURVE",
"278 2 OFFCURVE",
"297 2 QCURVE SMOOTH",
"332 2 OFFCURVE",
"406 -3 OFFCURVE",
"431 -4 QCURVE",
"433 -3 OFFCURVE",
"433 23 OFFCURVE",
"431 23 QCURVE SMOOTH",
"418 23 OFFCURVE",
"368 35 OFFCURVE",
"366 42 QCURVE",
"361 58 OFFCURVE",
"361 116 QCURVE SMOOTH",
"361 299 LINE",
"374 301 OFFCURVE",
"392 309 QCURVE"
);
}
);
width = 484;
}
);
note = paragraph;
unicode = 00B6;
changeCount = 1;
},
{
glyphname = periodcentered;
lastChange = "2018-03-06 12:35:50 +0000";
layers = (
{
layerId = "A76CE8C3-CC1A-4246-BAA7-4C4431E1D24E";
paths = (
{
closed = 1;
nodes = (
"136 205 OFFCURVE",
"170 240 OFFCURVE",
"170 288 OFFCURVE",
"136 322 OFFCURVE",
"88 322 OFFCURVE",
"54 288 OFFCURVE",
"54 240 OFFCURVE",
"88 205 OFFCURVE"
);
}
);
width = 224;
}
);
note = periodcentered;
unicode = 00B7;
changeCount = 1;
},
{
glyphname = uni00B9;
lastChange = "2018-03-06 12:35:50 +0000";
layers = (
{
layerId = "A76CE8C3-CC1A-4246-BAA7-4C4431E1D24E";
paths = (
{
closed = 1;
nodes = (
"123 308 OFFCURVE",
"117 292 QCURVE",
"115 288 OFFCURVE",
"72 278 OFFCURVE",
"61 278 QCURVE SMOOTH",
"57 278 OFFCURVE",
"57 255 OFFCURVE",
"61 253 QCURVE",
"73 254 OFFCURVE",
"139 256 OFFCURVE",
"184 256 OFFCURVE",
"245 254 OFFCURVE",
"257 253 QCURVE",
"259 256 OFFCURVE",
"259 279 OFFCURVE",
"257 279 QCURVE SMOOTH",
"249 279 OFFCURVE",
"207 289 OFFCURVE",
"205 293 QCURVE SMOOTH",
"197 312 OFFCURVE",
"197 340 QCURVE SMOOTH",
"197 548 LINE SMOOTH",
"197 587 OFFCURVE",
"206 629 QCURVE",
"199 652 OFFCURVE",
"194 652 QCURVE SMOOTH",
"192 652 LINE SMOOTH",
"192 652 OFFCURVE",
"163 635 OFFCURVE",
"89 598 OFFCURVE",
"42 578 QCURVE",
"39 577 OFFCURVE",
"39 570 QCURVE SMOOTH",
"39 558 OFFCURVE",
"48 553 QCURVE",
"94 569 OFFCURVE",
"104 569 QCURVE SMOOTH",
"114 569 OFFCURVE",
"123 550 OFFCURVE",
"123 518 QCURVE SMOOTH",
"123 338 LINE SMOOTH"
);
}
);
width = 292;
}
);
note = uni00B9;
unicode = 00B9;
changeCount = 1;
},
{
glyphname = ordmasculine;
lastChange = "2018-03-06 12:35:50 +0000";
layers = (
{
layerId = "A76CE8C3-CC1A-4246-BAA7-4C4431E1D24E";
paths = (
{
closed = 1;
nodes = (
"281 344 OFFCURVE",
"242 271 OFFCURVE",
"204 271 QCURVE SMOOTH",
"158 271 OFFCURVE",
"107 356 OFFCURVE",
"107 411 QCURVE SMOOTH",
"107 459 OFFCURVE",
"147 530 OFFCURVE",
"187 530 QCURVE SMOOTH",
"218 530 OFFCURVE",
"262 487 OFFCURVE",
"281 426 OFFCURVE",
"281 391 QCURVE SMOOTH"
);
},
{
closed = 1;
nodes = (
"38 337 OFFCURVE",
"131 247 OFFCURVE",
"196 247 QCURVE SMOOTH",
"261 247 OFFCURVE",
"350 340 OFFCURVE",
"350 403 QCURVE SMOOTH",
"350 466 OFFCURVE",
"261 554 OFFCURVE",
"196 554 QCURVE SMOOTH",
"130 554 OFFCURVE",
"38 463 OFFCURVE",
"38 399 QCURVE SMOOTH"
);
}
);
width = 388;
}
);
note = ordmasculine;
unicode = 00BA;
changeCount = 1;
},
{
glyphname = guillemotright;
lastChange = "2018-03-06 12:35:50 +0000";
layers = (
{
layerId = "A76CE8C3-CC1A-4246-BAA7-4C4431E1D24E";
paths = (
{
closed = 1;
nodes = (
"226 -20 OFFCURVE",
"231 -29 QCURVE SMOOTH",
"237 -39 OFFCURVE",
"249 -33 QCURVE SMOOTH",
"308 -3 OFFCURVE",
"375 107 OFFCURVE",
"375 170 QCURVE SMOOTH",
"375 234 OFFCURVE",
"342 288 QCURVE SMOOTH",
"307 344 OFFCURVE",
"249 373 QCURVE SMOOTH",
"236 379 OFFCURVE",
"231 369 QCURVE SMOOTH",
"226 360 OFFCURVE",
"235 353 QCURVE SMOOTH",
"326 281 OFFCURVE",
"326 170 QCURVE SMOOTH",
"326 65 OFFCURVE",
"235 -13 QCURVE SMOOTH"
);
},
{
closed = 1;
nodes = (
"47 -20 OFFCURVE",
"52 -29 QCURVE SMOOTH",
"58 -39 OFFCURVE",
"70 -33 QCURVE SMOOTH",
"129 -3 OFFCURVE",
"196 107 OFFCURVE",
"196 170 QCURVE SMOOTH",
"196 234 OFFCURVE",
"163 288 QCURVE SMOOTH",
"128 344 OFFCURVE",
"70 373 QCURVE SMOOTH",
"57 379 OFFCURVE",
"52 369 QCURVE SMOOTH",
"47 360 OFFCURVE",
"56 353 QCURVE SMOOTH",
"147 281 OFFCURVE",
"147 170 QCURVE SMOOTH",
"147 65 OFFCURVE",
"56 -13 QCURVE SMOOTH"
);
}
);
width = 425;
}
);
leftKerningGroup = guillemotright;
note = guillemotright;
rightKerningGroup = guillemotright;
unicode = 00BB;
changeCount = 1;
},
{
glyphname = onequarter;
lastChange = "2018-03-06 12:35:50 +0000";
layers = (
{
layerId = "A76CE8C3-CC1A-4246-BAA7-4C4431E1D24E";
paths = (
{
closed = 1;
nodes = (
"381 122 LINE",
"383 108 OFFCURVE",
"391 106 QCURVE",
"556 106 LINE",
"556 2 LINE",
"562 -3 OFFCURVE",
"588 -3 QCURVE SMOOTH",
"615 -3 OFFCURVE",
"618 0 QCURVE",
"618 106 LINE",
"656 106 LINE",
"662 117 OFFCURVE",
"657 140 OFFCURVE",
"650 146 QCURVE",
"615 146 OFFCURVE",
"615 146 QCURVE",
"615 395 LINE SMOOTH",
"615 400 OFFCURVE",
"610 407 OFFCURVE",
"606 407 QCURVE SMOOTH",
"596 407 OFFCURVE",
"586 395 QCURVE SMOOTH"
);
},
{
closed = 1;
nodes = (
"464 180 OFFCURVE",
"535 279 OFFCURVE",
"556 305 QCURVE",
"556 151 OFFCURVE",
"556 151 QCURVE SMOOTH",
"442 151 LINE"
);
},
{
closed = 1;
nodes = (
"182 627 OFFCURVE",
"175 637 OFFCURVE",
"169 638 QCURVE",
"48 567 OFFCURVE",
"34 558 QCURVE",
"39 544 OFFCURVE",
"47 540 QCURVE",
"52 542 OFFCURVE",
"77 552 OFFCURVE",
"90 555 OFFCURVE",
"95 555 QCURVE SMOOTH",
"103 555 OFFCURVE",
"112 535 OFFCURVE",
"112 520 QCURVE SMOOTH",
"112 334 LINE SMOOTH",
"112 309 OFFCURVE",
"104 288 QCURVE SMOOTH",
"102 283 OFFCURVE",
"65 273 OFFCURVE",
"54 273 QCURVE",
"51 270 OFFCURVE",
"51 254 OFFCURVE",
"54 251 QCURVE",
"68 252 OFFCURVE",
"124 254 OFFCURVE",
"168 254 OFFCURVE",
"217 252 OFFCURVE",
"232 251 QCURVE",
"234 254 OFFCURVE",
"234 268 OFFCURVE",
"231 273 QCURVE",
"223 273 OFFCURVE",
"183 283 OFFCURVE",
"181 287 QCURVE SMOOTH",
"174 308 OFFCURVE",
"174 336 QCURVE SMOOTH",
"174 534 LINE SMOOTH",
"174 573 OFFCURVE",
"182 622 QCURVE"
);
},
{
closed = 1;
nodes = (
"563 634 LINE",
"563 643 OFFCURVE",
"556 644 QCURVE SMOOTH",
"547 646 OFFCURVE",
"534 643 OFFCURVE",
"525 638 OFFCURVE",
"525 637 QCURVE",
"175 -4 LINE",
"175 -6 LINE SMOOTH",
"176 -8 OFFCURVE",
"182 -12 OFFCURVE",
"186 -13 QCURVE SMOOTH",
"197 -15 OFFCURVE",
"214 -4 OFFCURVE",
"218 2 QCURVE"
);
}
);
width = 699;
}
);
note = onequarter;
unicode = 00BC;
changeCount = 1;
},
{
glyphname = onehalf;
lastChange = "2018-03-06 12:35:50 +0000";
layers = (
{
layerId = "A76CE8C3-CC1A-4246-BAA7-4C4431E1D24E";
paths = (
{
closed = 1;
nodes = (
"452 311 OFFCURVE",
"467 295 OFFCURVE",
"470 298 QCURVE",
"482 313 OFFCURVE",
"500 330 OFFCURVE",
"536 347 OFFCURVE",
"557 347 QCURVE SMOOTH",
"588 347 OFFCURVE",
"623 307 OFFCURVE",
"623 275 QCURVE SMOOTH",
"623 223 OFFCURVE",
"567 152 QCURVE SMOOTH",
"543 122 OFFCURVE",
"442 19 OFFCURVE",
"435 11 QCURVE",
"434 8 OFFCURVE",
"443 -1 OFFCURVE",
"447 -1 QCURVE SMOOTH",
"679 -1 LINE",
"687 18 OFFCURVE",
"712 95 OFFCURVE",
"716 105 QCURVE",
"712 111 OFFCURVE",
"702 111 QCURVE",
"698 110 OFFCURVE",
"697 108 QCURVE",
"697 107 OFFCURVE",
"689 91 OFFCURVE",
"681 78 OFFCURVE",
"668 63 OFFCURVE",
"649 54 OFFCURVE",
"637 54 QCURVE SMOOTH",
"517 54 LINE",
"628 167 OFFCURVE",
"642 184 QCURVE SMOOTH",
"688 239 OFFCURVE",
"688 285 QCURVE SMOOTH",
"688 332 OFFCURVE",
"622 392 OFFCURVE",
"569 392 QCURVE SMOOTH",
"536 392 OFFCURVE",
"471 347 OFFCURVE",
"453 315 QCURVE"
);
},
{
closed = 1;
nodes = (
"185 627 OFFCURVE",
"178 637 OFFCURVE",
"172 638 QCURVE",
"51 567 OFFCURVE",
"37 558 QCURVE",
"42 544 OFFCURVE",
"50 540 QCURVE",
"55 542 OFFCURVE",
"80 552 OFFCURVE",
"93 555 OFFCURVE",
"98 555 QCURVE SMOOTH",
"106 555 OFFCURVE",
"115 535 OFFCURVE",
"115 520 QCURVE SMOOTH",
"115 334 LINE SMOOTH",
"115 309 OFFCURVE",
"107 288 QCURVE SMOOTH",
"105 283 OFFCURVE",
"68 273 OFFCURVE",
"57 273 QCURVE",
"54 270 OFFCURVE",
"54 254 OFFCURVE",
"57 251 QCURVE",
"71 252 OFFCURVE",
"127 254 OFFCURVE",
"171 254 OFFCURVE",
"220 252 OFFCURVE",
"235 251 QCURVE",
"237 254 OFFCURVE",
"237 268 OFFCURVE",
"234 273 QCURVE",
"226 273 OFFCURVE",
"186 283 OFFCURVE",
"184 287 QCURVE SMOOTH",
"177 308 OFFCURVE",
"177 336 QCURVE SMOOTH",
"177 534 LINE SMOOTH",
"177 573 OFFCURVE",
"185 622 QCURVE"
);
},
{
closed = 1;
nodes = (
"548 646 OFFCURVE",
"535 643 OFFCURVE",
"526 638 OFFCURVE",
"526 637 QCURVE",
"176 -4 LINE",
"176 -6 LINE SMOOTH",
"177 -8 OFFCURVE",
"183 -12 OFFCURVE",
"187 -13 QCURVE SMOOTH",
"198 -15 OFFCURVE",
"215 -4 OFFCURVE",
"219 2 QCURVE",
"564 634 LINE",
"564 643 OFFCURVE",
"557 644 QCURVE SMOOTH"
);
}
);
width = 750;
}
);
note = onehalf;
unicode = 00BD;
changeCount = 1;
},
{
glyphname = threequarters;
lastChange = "2018-03-06 12:35:50 +0000";
layers = (
{
layerId = "A76CE8C3-CC1A-4246-BAA7-4C4431E1D24E";
paths = (
{
closed = 1;
nodes = (
"382 122 LINE",
"384 108 OFFCURVE",
"392 106 QCURVE",
"557 106 LINE",
"557 2 LINE",
"563 -3 OFFCURVE",
"589 -3 QCURVE SMOOTH",
"616 -3 OFFCURVE",
"619 0 QCURVE",
"619 106 LINE",
"657 106 LINE",
"663 117 OFFCURVE",
"658 140 OFFCURVE",
"651 146 QCURVE",
"616 146 OFFCURVE",
"616 146 QCURVE",
"616 395 LINE SMOOTH",
"616 400 OFFCURVE",
"611 407 OFFCURVE",
"607 407 QCURVE SMOOTH",
"597 407 OFFCURVE",
"587 395 QCURVE SMOOTH"
);
},
{
closed = 1;
nodes = (
"465 180 OFFCURVE",
"536 279 OFFCURVE",
"557 305 QCURVE",
"557 151 OFFCURVE",
"557 151 QCURVE SMOOTH",
"443 151 LINE"
);
},
{
closed = 1;
nodes = (
"59 586 OFFCURVE",
"61 579 OFFCURVE",
"66 571 OFFCURVE",
"68 570 QCURVE",
"71 573 LINE SMOOTH",
"74 576 OFFCURVE",
"77 579 OFFCURVE",
"85 586 OFFCURVE",
"91 591 OFFCURVE",
"100 597 OFFCURVE",
"110 601 OFFCURVE",
"120 605 OFFCURVE",
"132 607 OFFCURVE",
"138 607 QCURVE SMOOTH",
"158 607 OFFCURVE",
"189 576 OFFCURVE",
"189 556 QCURVE SMOOTH",
"189 522 OFFCURVE",
"136 475 OFFCURVE",
"96 467 QCURVE",
"95 465 OFFCURVE",
"96 458 QCURVE",
"98 449 OFFCURVE",
"101 446 QCURVE",
"102 446 OFFCURVE",
"116 451 OFFCURVE",
"133 454 OFFCURVE",
"141 454 QCURVE SMOOTH",
"170 454 OFFCURVE",
"213 404 OFFCURVE",
"213 368 QCURVE SMOOTH",
"213 324 OFFCURVE",
"174 277 OFFCURVE",
"141 277 QCURVE SMOOTH",
"117 277 OFFCURVE",
"102 292 QCURVE SMOOTH",
"99 295 OFFCURVE",
"85 313 OFFCURVE",
"74 321 OFFCURVE",
"66 321 QCURVE SMOOTH",
"54 321 OFFCURVE",
"35 303 OFFCURVE",
"35 288 QCURVE SMOOTH",
"35 275 OFFCURVE",
"47 264 QCURVE SMOOTH",
"54 258 OFFCURVE",
"96 249 OFFCURVE",
"114 249 QCURVE SMOOTH",
"183 249 OFFCURVE",
"277 323 OFFCURVE",
"277 386 QCURVE SMOOTH",
"277 430 OFFCURVE",
"213 486 OFFCURVE",
"187 486 QCURVE",
"208 496 OFFCURVE",
"245 540 OFFCURVE",
"245 569 QCURVE SMOOTH",
"245 605 OFFCURVE",
"193 646 OFFCURVE",
"158 646 QCURVE SMOOTH",
"99 646 OFFCURVE",
"59 586 QCURVE"
);
},
{
closed = 1;
nodes = (
"553 646 OFFCURVE",
"540 643 OFFCURVE",
"531 638 OFFCURVE",
"531 637 QCURVE",
"181 -4 LINE",
"181 -6 LINE SMOOTH",
"182 -8 OFFCURVE",
"188 -12 OFFCURVE",
"192 -13 QCURVE SMOOTH",
"203 -15 OFFCURVE",
"220 -4 OFFCURVE",
"224 2 QCURVE",
"569 634 LINE",
"569 643 OFFCURVE",
"562 644 QCURVE SMOOTH"
);
}
);
width = 700;
}
);
note = threequarters;
unicode = 00BE;
changeCount = 1;
},
{
glyphname = questiondown;
lastChange = "2018-03-06 12:35:50 +0000";
layers = (
{
layerId = "A76CE8C3-CC1A-4246-BAA7-4C4431E1D24E";
paths = (
{
closed = 1;
nodes = (
"210 430 OFFCURVE",
"178 397 OFFCURVE",
"178 352 OFFCURVE",
"210 320 OFFCURVE",
"255 320 OFFCURVE",
"288 352 OFFCURVE",
"288 397 OFFCURVE",
"255 430 OFFCURVE"
);
},
{
closed = 1;
nodes = (
"232 259 OFFCURVE",
"226 247 QCURVE",
"226 244 OFFCURVE",
"227 216 OFFCURVE",
"226 202 OFFCURVE",
"223 183 OFFCURVE",
"220 177 QCURVE SMOOTH",
"216 169 OFFCURVE",
"163 128 OFFCURVE",
"142 115 QCURVE SMOOTH",
"87 83 OFFCURVE",
"41 14 OFFCURVE",
"41 -38 QCURVE SMOOTH",
"41 -72 OFFCURVE",
"69 -133 OFFCURVE",
"114 -176 OFFCURVE",
"167 -208 OFFCURVE",
"218 -223 OFFCURVE",
"238 -223 QCURVE SMOOTH",
"272 -223 OFFCURVE",
"286 -216 QCURVE",
"295 -204 OFFCURVE",
"295 -179 QCURVE SMOOTH",
"295 -157 OFFCURVE",
"265 -129 OFFCURVE",
"251 -129 QCURVE SMOOTH",
"242 -129 OFFCURVE",
"195 -150 OFFCURVE",
"135 -150 OFFCURVE",
"91 -106 OFFCURVE",
"91 -68 QCURVE SMOOTH",
"91 -54 OFFCURVE",
"101 -29 OFFCURVE",
"113 -13 OFFCURVE",
"141 10 OFFCURVE",
"158 21 OFFCURVE",
"178 34 QCURVE",
"180 36 OFFCURVE",
"185 39 QCURVE SMOOTH",
"200 48 OFFCURVE",
"215 59 OFFCURVE",
"240 82 OFFCURVE",
"253 104 OFFCURVE",
"263 138 OFFCURVE",
"263 158 QCURVE SMOOTH",
"263 216 OFFCURVE",
"255 249 QCURVE",
"252 256 OFFCURVE",
"242 260 QCURVE"
);
}
);
width = 345;
}
);
note = questiondown;
rightKerningGroup = questiondown;
unicode = 00BF;
changeCount = 1;
},
{
glyphname = AE;
lastChange = "2018-03-06 12:35:50 +0000";
layers = (
{
layerId = "A76CE8C3-CC1A-4246-BAA7-4C4431E1D24E";
paths = (
{
closed = 1;
nodes = (
"817 12 OFFCURVE",
"830 57 OFFCURVE",
"843 92 OFFCURVE",
"864 149 OFFCURVE",
"868 162 QCURVE",
"862 168 OFFCURVE",
"843 168 QCURVE SMOOTH",
"831 168 OFFCURVE",
"829 162 QCURVE",
"814 121 OFFCURVE",
"788 74 OFFCURVE",
"766 61 QCURVE SMOOTH",
"746 49 OFFCURVE",
"676 34 OFFCURVE",
"640 34 QCURVE SMOOTH",
"592 34 LINE SMOOTH",
"557 34 OFFCURVE",
"530 37 OFFCURVE",
"521 44 QCURVE",
"517 48 OFFCURVE",
"515 96 OFFCURVE",
"515 113 QCURVE SMOOTH",
"515 303 LINE SMOOTH",
"515 305 OFFCURVE",
"521 309 OFFCURVE",
"534 311 OFFCURVE",
"546 312 OFFCURVE",
"566 312 OFFCURVE",
"577 312 OFFCURVE",
"587 312 QCURVE SMOOTH",
"681 312 OFFCURVE",
"693 304 QCURVE SMOOTH",
"701 299 OFFCURVE",
"711 278 OFFCURVE",
"721 238 QCURVE",
"724 230 OFFCURVE",
"737 230 QCURVE SMOOTH",
"749 230 OFFCURVE",
"753 234 QCURVE",
"753 423 LINE",
"748 428 OFFCURVE",
"736 428 QCURVE SMOOTH",
"723 428 OFFCURVE",
"721 421 QCURVE",
"720 418 OFFCURVE",
"719 413 QCURVE",
"715 398 OFFCURVE",
"710 378 OFFCURVE",
"700 363 OFFCURVE",
"689 355 OFFCURVE",
"664 350 OFFCURVE",
"636 349 OFFCURVE",
"611 349 QCURVE SMOOTH",
"558 349 LINE SMOOTH",
"539 349 OFFCURVE",
"515 352 OFFCURVE",
"515 355 QCURVE",
"515 542 LINE",
"514 594 OFFCURVE",
"520 613 QCURVE SMOOTH",
"524 624 OFFCURVE",
"589 624 QCURVE SMOOTH",
"675 624 LINE SMOOTH",
"720 624 OFFCURVE",
"776 586 OFFCURVE",
"791 530 QCURVE",
"793 523 OFFCURVE",
"805 523 QCURVE SMOOTH",
"818 523 OFFCURVE",
"823 528 QCURVE",
"821 540 OFFCURVE",
"798 635 OFFCURVE",
"794 664 QCURVE",
"738 664 OFFCURVE",
"518 657 OFFCURVE",
"473 657 QCURVE SMOOTH",
"406 657 OFFCURVE",
"357 658 QCURVE",
"355 656 OFFCURVE",
"354 634 OFFCURVE",
"357 629 QCURVE",
"370 629 OFFCURVE",
"402 616 OFFCURVE",
"402 604 QCURVE SMOOTH",
"402 596 OFFCURVE",
"395 584 QCURVE SMOOTH",
"118 137 LINE SMOOTH",
"75 65 OFFCURVE",
"43 45 QCURVE SMOOTH",
"33 39 OFFCURVE",
"-5 26 OFFCURVE",
"-14 26 QCURVE",
"-16 21 OFFCURVE",
"-16 -1 OFFCURVE",
"-14 -3 QCURVE",
"3 -3 OFFCURVE",
"40 1 OFFCURVE",
"70 2 OFFCURVE",
"90 2 QCURVE SMOOTH",
"110 2 OFFCURVE",
"139 1 OFFCURVE",
"173 -3 OFFCURVE",
"187 -3 QCURVE",
"189 2 OFFCURVE",
"187 24 OFFCURVE",
"185 26 QCURVE",
"180 26 OFFCURVE",
"163 28 OFFCURVE",
"138 32 OFFCURVE",
"121 44 OFFCURVE",
"121 52 QCURVE SMOOTH",
"121 67 OFFCURVE",
"161 129 QCURVE SMOOTH",
"192 178 OFFCURVE",
"234 249 QCURVE",
"239 252 LINE",
"316 257 OFFCURVE",
"341 257 QCURVE SMOOTH",
"394 257 OFFCURVE",
"430 255 QCURVE",
"430 135 LINE SMOOTH",
"430 76 OFFCURVE",
"423 49 QCURVE",
"420 41 OFFCURVE",
"369 26 OFFCURVE",
"357 26 QCURVE SMOOTH",
"356 26 OFFCURVE",
"355 14 OFFCURVE",
"355 -1 OFFCURVE",
"357 -3 QCURVE",
"371 -2 LINE SMOOTH",
"385 -1 OFFCURVE",
"414 -1 QCURVE SMOOTH",
"443 0 OFFCURVE",
"473 0 QCURVE SMOOTH",
"543 0 OFFCURVE",
"763 -4 OFFCURVE",
"814 -4 QCURVE"
);
},
{
closed = 1;
nodes = (
"293 295 OFFCURVE",
"267 296 QCURVE",
"265 296 OFFCURVE",
"266 300 QCURVE",
"430 566 LINE",
"430 297 LINE",
"392 295 OFFCURVE",
"346 295 QCURVE SMOOTH"
);
}
);
width = 897;
}
);
leftKerningGroup = AE;
note = AE;
rightKerningGroup = E;
unicode = 00C6;
changeCount = 1;
},
{
glyphname = multiply;
lastChange = "2018-03-06 12:35:50 +0000";
layers = (
{
layerId = "A76CE8C3-CC1A-4246-BAA7-4C4431E1D24E";
paths = (
{
closed = 1;
nodes = (
"55 97 OFFCURVE",
"71 64 OFFCURVE",
"77 64 QCURVE SMOOTH",
"81 64 OFFCURVE",
"83 66 QCURVE SMOOTH",
"232 214 LINE",
"379 67 LINE SMOOTH",
"381 65 OFFCURVE",
"386 65 QCURVE SMOOTH",
"394 65 OFFCURVE",
"408 93 OFFCURVE",
"408 105 QCURVE",
"268 250 LINE",
"271 253 OFFCURVE",
"408 389 QCURVE",
"408 398 OFFCURVE",
"392 429 OFFCURVE",
"386 429 QCURVE SMOOTH",
"382 429 OFFCURVE",
"380 427 QCURVE SMOOTH",
"235 283 LINE",
"233 285 OFFCURVE",
"86 427 QCURVE SMOOTH",
"84 429 OFFCURVE",
"79 429 QCURVE SMOOTH",
"73 429 OFFCURVE",
"55 402 OFFCURVE",
"55 391 QCURVE",
"199 247 LINE",
"195 243 OFFCURVE",
"55 105 QCURVE"
);
}
);
width = 464;
}
);
note = multiply;
unicode = 00D7;
changeCount = 1;
},
{
glyphname = Thorn;
lastChange = "2018-03-06 12:35:50 +0000";
layers = (
{
layerId = "A76CE8C3-CC1A-4246-BAA7-4C4431E1D24E";
paths = (
{
closed = 1;
nodes = (
"42 658 OFFCURVE",
"43 637 OFFCURVE",
"46 633 QCURVE",
"61 633 OFFCURVE",
"113 624 OFFCURVE",
"115 617 QCURVE SMOOTH",
"120 601 OFFCURVE",
"120 543 QCURVE SMOOTH",
"120 116 LINE SMOOTH",
"120 58 OFFCURVE",
"115 42 QCURVE SMOOTH",
"113 35 OFFCURVE",
"61 26 OFFCURVE",
"46 26 QCURVE",
"43 22 OFFCURVE",
"42 1 OFFCURVE",
"46 -3 QCURVE",
"148 2 OFFCURVE",
"164 2 QCURVE SMOOTH",
"178 2 OFFCURVE",
"281 -3 QCURVE",
"284 1 OFFCURVE",
"284 22 OFFCURVE",
"281 26 QCURVE",
"266 26 OFFCURVE",
"214 35 OFFCURVE",
"212 42 QCURVE SMOOTH",
"206 61 OFFCURVE",
"207 116 QCURVE SMOOTH",
"207 360 LINE SMOOTH",
"207 428 OFFCURVE",
"214 440 QCURVE SMOOTH",
"224 456 OFFCURVE",
"273 470 OFFCURVE",
"288 470 QCURVE SMOOTH",
"351 470 OFFCURVE",
"426 386 OFFCURVE",
"426 312 QCURVE SMOOTH",
"426 239 OFFCURVE",
"346 156 OFFCURVE",
"284 156 QCURVE SMOOTH",
"272 156 OFFCURVE",
"246 163 QCURVE SMOOTH",
"244 164 OFFCURVE",
"242 162 OFFCURVE",
"241 159 OFFCURVE",
"241 158 QCURVE SMOOTH",
"241 146 OFFCURVE",
"255 136 QCURVE",
"271 128 OFFCURVE",
"298 128 QCURVE SMOOTH",
"397 128 OFFCURVE",
"518 238 OFFCURVE",
"518 329 QCURVE SMOOTH",
"518 371 OFFCURVE",
"481 441 OFFCURVE",
"423 485 OFFCURVE",
"356 509 OFFCURVE",
"325 509 QCURVE SMOOTH",
"312 509 OFFCURVE",
"277 506 OFFCURVE",
"223 492 OFFCURVE",
"207 480 QCURVE",
"207 543 LINE",
"206 598 OFFCURVE",
"212 617 QCURVE SMOOTH",
"214 624 OFFCURVE",
"266 633 OFFCURVE",
"281 633 QCURVE",
"284 637 OFFCURVE",
"284 658 OFFCURVE",
"281 662 QCURVE",
"178 657 OFFCURVE",
"164 657 QCURVE SMOOTH",
"148 657 OFFCURVE",
"46 662 QCURVE"
);
}
);
width = 548;
}
);
leftKerningGroup = B;
note = Thorn;
rightKerningGroup = Thorn;
unicode = 00DE;
changeCount = 1;
},
{
glyphname = germandbls;
lastChange = "2018-03-06 12:35:50 +0000";
layers = (
{
layerId = "A76CE8C3-CC1A-4246-BAA7-4C4431E1D24E";
paths = (
{
closed = 1;
nodes = (
"97 432 LINE",
"60 432 LINE",
"56 428 OFFCURVE",
"34 403 OFFCURVE",
"34 400 QCURVE SMOOTH",
"34 391 OFFCURVE",
"39 391 QCURVE SMOOTH",
"97 391 LINE",
"97 116 LINE SMOOTH",
"97 58 OFFCURVE",
"92 42 QCURVE SMOOTH",
"90 35 OFFCURVE",
"43 26 OFFCURVE",
"29 26 QCURVE",
"26 22 OFFCURVE",
"25 1 OFFCURVE",
"29 -3 QCURVE",
"43 -3 OFFCURVE",
"85 1 OFFCURVE",
"117 2 OFFCURVE",
"135 2 QCURVE SMOOTH",
"143 2 OFFCURVE",
"246 -3 QCURVE",
"249 1 OFFCURVE",
"249 22 OFFCURVE",
"246 26 QCURVE",
"231 26 OFFCURVE",
"181 35 OFFCURVE",
"179 42 QCURVE SMOOTH",
"174 58 OFFCURVE",
"174 116 QCURVE SMOOTH",
"174 475 LINE SMOOTH",
"174 499 OFFCURVE",
"176 536 OFFCURVE",
"182 582 OFFCURVE",
"196 615 OFFCURVE",
"216 645 OFFCURVE",
"249 660 OFFCURVE",
"271 660 QCURVE SMOOTH",
"318 660 OFFCURVE",
"369 599 OFFCURVE",
"369 549 QCURVE SMOOTH",
"369 483 OFFCURVE",
"321 430 QCURVE SMOOTH",
"313 421 OFFCURVE",
"280 388 OFFCURVE",
"263 370 OFFCURVE",
"248 340 OFFCURVE",
"248 325 QCURVE SMOOTH",
"248 313 OFFCURVE",
"253 291 OFFCURVE",
"258 274 OFFCURVE",
"272 255 OFFCURVE",
"281 244 OFFCURVE",
"302 227 OFFCURVE",
"311 220 OFFCURVE",
"337 205 OFFCURVE",
"345 201 OFFCURVE",
"359 193 QCURVE SMOOTH",
"381 182 OFFCURVE",
"403 168 OFFCURVE",
"431 145 OFFCURVE",
"444 119 OFFCURVE",
"444 102 QCURVE SMOOTH",
"444 65 OFFCURVE",
"409 21 OFFCURVE",
"382 21 QCURVE SMOOTH",
"355 21 OFFCURVE",
"336 50 QCURVE SMOOTH",
"334 54 OFFCURVE",
"324 69 OFFCURVE",
"319 77 OFFCURVE",
"310 87 OFFCURVE",
"301 91 OFFCURVE",
"296 91 QCURVE SMOOTH",
"266 91 OFFCURVE",
"262 46 QCURVE",
"262 42 OFFCURVE",
"262 33 QCURVE",
"270 18 OFFCURVE",
"338 -10 OFFCURVE",
"380 -10 QCURVE SMOOTH",
"436 -10 OFFCURVE",
"512 77 OFFCURVE",
"512 137 QCURVE SMOOTH",
"512 157 OFFCURVE",
"497 193 OFFCURVE",
"478 217 OFFCURVE",
"445 242 OFFCURVE",
"422 255 OFFCURVE",
"404 265 QCURVE SMOOTH",
"381 277 OFFCURVE",
"355 293 OFFCURVE",
"321 318 OFFCURVE",
"306 345 OFFCURVE",
"306 359 QCURVE SMOOTH",
"306 370 OFFCURVE",
"322 393 OFFCURVE",
"339 409 OFFCURVE",
"376 439 OFFCURVE",
"385 447 QCURVE SMOOTH",
"444 501 OFFCURVE",
"444 561 QCURVE SMOOTH",
"444 595 OFFCURVE",
"416 647 OFFCURVE",
"366 678 OFFCURVE",
"304 693 OFFCURVE",
"268 693 QCURVE SMOOTH",
"229 693 OFFCURVE",
"148 617 OFFCURVE",
"97 498 OFFCURVE",
"97 438 QCURVE SMOOTH"
);
}
);
width = 537;
}
);
leftKerningGroup = f;
note = germandbls;
unicode = 00DF;
changeCount = 1;
},
{
glyphname = ae;
lastChange = "2018-03-06 12:35:50 +0000";
layers = (
{
layerId = "A76CE8C3-CC1A-4246-BAA7-4C4431E1D24E";
paths = (
{
closed = 1;
nodes = (
"259 215 OFFCURVE",
"261 193 QCURVE SMOOTH",
"267 130 OFFCURVE",
"279 104 QCURVE",
"279 83 OFFCURVE",
"216 46 OFFCURVE",
"187 46 QCURVE SMOOTH",
"159 46 OFFCURVE",
"120 88 OFFCURVE",
"120 116 QCURVE SMOOTH",
"120 144 OFFCURVE",
"153 184 OFFCURVE",
"181 194 QCURVE SMOOTH",
"189 197 OFFCURVE",
"246 216 OFFCURVE",
"259 220 QCURVE"
);
},
{
closed = 1;
nodes = (
"524 285 OFFCURVE",
"502 285 QCURVE SMOOTH",
"339 285 LINE SMOOTH",
"338 285 OFFCURVE",
"344 309 OFFCURVE",
"358 344 OFFCURVE",
"381 378 OFFCURVE",
"420 402 OFFCURVE",
"443 402 QCURVE SMOOTH",
"465 402 OFFCURVE",
"499 380 OFFCURVE",
"517 348 OFFCURVE",
"526 318 OFFCURVE",
"525 308 QCURVE SMOOTH"
);
},
{
closed = 1;
nodes = (
"318 401 OFFCURVE",
"269 436 OFFCURVE",
"239 436 QCURVE SMOOTH",
"191 436 OFFCURVE",
"86 380 OFFCURVE",
"59 354 QCURVE",
"52 345 OFFCURVE",
"52 330 QCURVE SMOOTH",
"52 314 OFFCURVE",
"71 288 OFFCURVE",
"86 288 QCURVE SMOOTH",
"106 288 OFFCURVE",
"129 310 OFFCURVE",
"133 335 QCURVE SMOOTH",
"139 367 OFFCURVE",
"163 398 OFFCURVE",
"188 398 QCURVE SMOOTH",
"223 398 OFFCURVE",
"265 339 OFFCURVE",
"265 302 QCURVE SMOOTH",
"265 279 OFFCURVE",
"263 270 QCURVE SMOOTH",
"262 264 OFFCURVE",
"257 259 OFFCURVE",
"249 256 QCURVE",
"244 254 OFFCURVE",
"112 200 OFFCURVE",
"83 186 QCURVE SMOOTH",
"64 176 OFFCURVE",
"37 136 OFFCURVE",
"37 107 QCURVE SMOOTH",
"37 59 OFFCURVE",
"105 -8 OFFCURVE",
"154 -8 QCURVE SMOOTH",
"178 -8 OFFCURVE",
"276 55 OFFCURVE",
"298 77 QCURVE",
"323 36 OFFCURVE",
"415 -8 OFFCURVE",
"463 -8 QCURVE SMOOTH",
"491 -8 OFFCURVE",
"541 10 OFFCURVE",
"577 38 OFFCURVE",
"601 64 OFFCURVE",
"609 77 QCURVE SMOOTH",
"615 87 OFFCURVE",
"615 95 QCURVE SMOOTH",
"615 99 OFFCURVE",
"612 106 OFFCURVE",
"608 109 OFFCURVE",
"607 109 QCURVE",
"592 91 OFFCURVE",
"533 56 OFFCURVE",
"497 56 QCURVE SMOOTH",
"427 56 OFFCURVE",
"332 157 OFFCURVE",
"334 248 QCURVE",
"347 248 OFFCURVE",
"566 254 OFFCURVE",
"586 255 QCURVE",
"600 256 OFFCURVE",
"610 279 OFFCURVE",
"610 302 QCURVE SMOOTH",
"610 316 OFFCURVE",
"602 348 OFFCURVE",
"581 387 OFFCURVE",
"549 417 OFFCURVE",
"494 438 OFFCURVE",
"460 438 QCURVE SMOOTH",
"422 438 OFFCURVE",
"356 399 OFFCURVE",
"332 374 QCURVE"
);
}
);
width = 653;
}
);
leftKerningGroup = a;
note = ae;
rightKerningGroup = e;
unicode = 00E6;
changeCount = 1;
},
{
glyphname = eth;
lastChange = "2018-03-06 12:35:50 +0000";
layers = (
{
layerId = "A76CE8C3-CC1A-4246-BAA7-4C4431E1D24E";
paths = (
{
closed = 1;
nodes = (
"40 118 OFFCURVE",
"157 -7 OFFCURVE",
"256 -7 QCURVE SMOOTH",
"296 -7 OFFCURVE",
"370 28 OFFCURVE",
"428 91 OFFCURVE",
"462 188 OFFCURVE",
"462 247 QCURVE SMOOTH",
"462 321 OFFCURVE",
"401 465 OFFCURVE",
"347 526 QCURVE SMOOTH",
"310 569 OFFCURVE",
"267 603 QCURVE",
"364 668 LINE",
"369 672 OFFCURVE",
"354 695 OFFCURVE",
"346 699 QCURVE",
"236 625 LINE",
"232 628 OFFCURVE",
"227 630 QCURVE",
"161 673 OFFCURVE",
"95 688 QCURVE",
"90 688 OFFCURVE",
"81 671 OFFCURVE",
"81 664 QCURVE",
"134 643 OFFCURVE",
"177 615 QCURVE SMOOTH",
"188 607 OFFCURVE",
"199 600 QCURVE",
"111 541 LINE",
"107 537 OFFCURVE",
"121 514 OFFCURVE",
"128 509 QCURVE",
"229 577 LINE",
"237 570 OFFCURVE",
"243 564 QCURVE SMOOTH",
"267 541 OFFCURVE",
"308 480 OFFCURVE",
"322 448 OFFCURVE",
"332 423 QCURVE",
"306 439 OFFCURVE",
"247 439 QCURVE SMOOTH",
"197 439 OFFCURVE",
"116 399 OFFCURVE",
"67 332 OFFCURVE",
"40 253 OFFCURVE",
"40 211 QCURVE SMOOTH"
);
},
{
closed = 1;
nodes = (
"364 313 OFFCURVE",
"375 242 OFFCURVE",
"375 202 QCURVE SMOOTH",
"375 125 OFFCURVE",
"316 26 OFFCURVE",
"259 26 QCURVE SMOOTH",
"220 26 OFFCURVE",
"158 86 OFFCURVE",
"126 177 OFFCURVE",
"126 227 QCURVE SMOOTH",
"126 263 OFFCURVE",
"138 325 OFFCURVE",
"162 377 OFFCURVE",
"205 406 OFFCURVE",
"234 406 QCURVE SMOOTH",
"315 406 OFFCURVE",
"355 329 QCURVE SMOOTH"
);
}
);
width = 517;
}
);
leftKerningGroup = e;
note = eth;
rightKerningGroup = eth;
unicode = 00F0;
changeCount = 1;
},
{
glyphname = thorn;
lastChange = "2018-03-06 12:35:50 +0000";
layers = (
{
layerId = "A76CE8C3-CC1A-4246-BAA7-4C4431E1D24E";
paths = (
{
closed = 1;
nodes = (
"152 379 OFFCURVE",
"151 379 QCURVE SMOOTH",
"149 379 OFFCURVE",
"149 384 QCURVE SMOOTH",
"149 591 LINE SMOOTH",
"149 646 OFFCURVE",
"160 678 QCURVE",
"160 684 OFFCURVE",
"152 694 OFFCURVE",
"149 694 QCURVE",
"76 661 OFFCURVE",
"7 654 QCURVE",
"5 654 OFFCURVE",
"4 641 OFFCURVE",
"5 628 OFFCURVE",
"6 628 QCURVE SMOOTH",
"59 628 OFFCURVE",
"67 610 QCURVE SMOOTH",
"72 598 OFFCURVE",
"72 558 QCURVE SMOOTH",
"72 -107 LINE SMOOTH",
"72 -165 OFFCURVE",
"67 -181 QCURVE SMOOTH",
"65 -188 OFFCURVE",
"18 -197 OFFCURVE",
"4 -197 QCURVE",
"1 -201 OFFCURVE",
"0 -222 OFFCURVE",
"4 -226 QCURVE",
"18 -226 OFFCURVE",
"60 -223 OFFCURVE",
"92 -221 OFFCURVE",
"110 -221 QCURVE SMOOTH",
"114 -221 OFFCURVE",
"217 -226 QCURVE",
"220 -222 OFFCURVE",
"220 -201 OFFCURVE",
"217 -197 QCURVE",
"202 -197 OFFCURVE",
"156 -188 OFFCURVE",
"154 -181 QCURVE SMOOTH",
"149 -165 OFFCURVE",
"149 -107 QCURVE SMOOTH",
"149 -10 LINE SMOOTH",
"149 -2 OFFCURVE",
"153 3 QCURVE",
"188 -8 OFFCURVE",
"223 -8 QCURVE SMOOTH",
"265 -8 OFFCURVE",
"349 31 OFFCURVE",
"415 96 OFFCURVE",
"457 185 OFFCURVE",
"457 232 QCURVE SMOOTH",
"457 266 OFFCURVE",
"434 336 OFFCURVE",
"392 399 OFFCURVE",
"320 438 OFFCURVE",
"276 438 QCURVE SMOOTH",
"249 438 OFFCURVE",
"177 401 OFFCURVE",
"154 381 QCURVE"
);
},
{
closed = 1;
nodes = (
"373 154 OFFCURVE",
"343 78 OFFCURVE",
"281 27 OFFCURVE",
"242 27 QCURVE SMOOTH",
"209 27 OFFCURVE",
"149 65 OFFCURVE",
"149 100 QCURVE SMOOTH",
"149 340 LINE SMOOTH",
"149 352 OFFCURVE",
"204 379 OFFCURVE",
"233 379 QCURVE SMOOTH",
"292 379 OFFCURVE",
"373 281 OFFCURVE",
"373 195 QCURVE SMOOTH"
);
}
);
width = 495;
}
);
leftKerningGroup = b;
note = thorn;
rightKerningGroup = p;
unicode = 00FE;
changeCount = 1;
},
{
glyphname = Aogonek;
lastChange = "2018-03-06 12:35:50 +0000";
layers = (
{
layerId = "A76CE8C3-CC1A-4246-BAA7-4C4431E1D24E";
paths = (
{
closed = 1;
nodes = (
"617 26 OFFCURVE",
"568 45 OFFCURVE",
"561 60 QCURVE",
"561 62 OFFCURVE",
"536 126 QCURVE SMOOTH",
"332 660 LINE",
"331 661 OFFCURVE",
"328 663 OFFCURVE",
"326 663 QCURVE SMOOTH",
"320 663 OFFCURVE",
"292 642 OFFCURVE",
"288 634 QCURVE",
"227 479 OFFCURVE",
"95 139 QCURVE SMOOTH",
"69 73 OFFCURVE",
"48 45 QCURVE SMOOTH",
"42 37 OFFCURVE",
"1 26 OFFCURVE",
"-12 26 QCURVE",
"-14 21 OFFCURVE",
"-14 -1 OFFCURVE",
"-12 -3 QCURVE",
"5 -3 OFFCURVE",
"43 1 OFFCURVE",
"75 2 OFFCURVE",
"95 2 QCURVE SMOOTH",
"114 2 OFFCURVE",
"143 1 OFFCURVE",
"178 -3 OFFCURVE",
"192 -3 QCURVE",
"194 2 OFFCURVE",
"192 24 OFFCURVE",
"190 26 QCURVE",
"185 26 OFFCURVE",
"167 28 OFFCURVE",
"140 34 OFFCURVE",
"122 46 OFFCURVE",
"121 54 QCURVE",
"121 84 OFFCURVE",
"135 125 QCURVE SMOOTH",
"152 173 OFFCURVE",
"180 247 QCURVE",
"185 250 LINE",
"230 253 OFFCURVE",
"293 253 QCURVE SMOOTH",
"379 253 OFFCURVE",
"392 252 QCURVE",
"395 252 OFFCURVE",
"398 248 QCURVE",
"415 206 LINE SMOOTH",
"432 164 OFFCURVE",
"466 67 OFFCURVE",
"466 53 QCURVE SMOOTH",
"466 43 OFFCURVE",
"462 39 QCURVE",
"456 34 OFFCURVE",
"418 26 OFFCURVE",
"406 26 QCURVE",
"402 22 OFFCURVE",
"402 1 OFFCURVE",
"405 -3 QCURVE",
"510 2 OFFCURVE",
"512 2 QCURVE SMOOTH",
"514 2 LINE",
"469 -27 OFFCURVE",
"402 -108 OFFCURVE",
"402 -146 QCURVE SMOOTH",
"402 -162 OFFCURVE",
"413 -195 OFFCURVE",
"447 -223 OFFCURVE",
"473 -223 QCURVE SMOOTH",
"528 -223 OFFCURVE",
"578 -157 QCURVE SMOOTH",
"583 -151 OFFCURVE",
"583 -139 QCURVE SMOOTH",
"583 -136 OFFCURVE",
"581 -129 OFFCURVE",
"579 -126 OFFCURVE",
"578 -126 QCURVE SMOOTH",
"577 -126 OFFCURVE",
"563 -138 OFFCURVE",
"546 -152 OFFCURVE",
"515 -164 OFFCURVE",
"497 -164 QCURVE SMOOTH",
"475 -164 OFFCURVE",
"456 -137 OFFCURVE",
"456 -121 QCURVE SMOOTH",
"456 -91 OFFCURVE",
"520 -23 OFFCURVE",
"559 1 QCURVE",
"573 1 OFFCURVE",
"623 -3 OFFCURVE",
"631 -3 QCURVE",
"632 1 OFFCURVE",
"632 22 OFFCURVE",
"629 26 QCURVE"
);
},
{
closed = 1;
nodes = (
"379 299 LINE SMOOTH",
"379 298 OFFCURVE",
"377 295 OFFCURVE",
"376 295 QCURVE",
"330 292 OFFCURVE",
"292 292 QCURVE SMOOTH",
"253 292 OFFCURVE",
"201 294 QCURVE",
"199 294 OFFCURVE",
"199 298 QCURVE",
"291 542 LINE",
"379 300 LINE"
);
}
);
width = 627;
}
);
leftKerningGroup = A;
note = Aogonek;
rightKerningGroup = A;
unicode = 0104;
changeCount = 1;
},
{
glyphname = aogonek;
lastChange = "2018-03-06 12:35:50 +0000";
layers = (
{
layerId = "A76CE8C3-CC1A-4246-BAA7-4C4431E1D24E";
paths = (
{
closed = 1;
nodes = (
"120 144 OFFCURVE",
"153 183 OFFCURVE",
"181 194 QCURVE SMOOTH",
"197 200 OFFCURVE",
"274 223 QCURVE",
"274 87 LINE SMOOTH",
"274 79 OFFCURVE",
"212 46 OFFCURVE",
"187 46 QCURVE SMOOTH",
"159 46 OFFCURVE",
"120 88 OFFCURVE",
"120 116 QCURVE SMOOTH"
);
},
{
closed = 1;
nodes = (
"273 -31 OFFCURVE",
"210 -115 OFFCURVE",
"210 -146 QCURVE SMOOTH",
"210 -162 OFFCURVE",
"221 -195 OFFCURVE",
"255 -223 OFFCURVE",
"281 -223 QCURVE SMOOTH",
"336 -223 OFFCURVE",
"386 -157 QCURVE SMOOTH",
"391 -151 OFFCURVE",
"391 -139 QCURVE SMOOTH",
"391 -136 OFFCURVE",
"389 -129 OFFCURVE",
"387 -126 OFFCURVE",
"386 -126 QCURVE SMOOTH",
"385 -126 OFFCURVE",
"371 -138 OFFCURVE",
"354 -152 OFFCURVE",
"323 -164 OFFCURVE",
"305 -164 QCURVE SMOOTH",
"283 -164 OFFCURVE",
"264 -137 OFFCURVE",
"264 -121 QCURVE SMOOTH",
"264 -111 OFFCURVE",
"272 -91 OFFCURVE",
"281 -74 OFFCURVE",
"300 -53 OFFCURVE",
"312 -41 OFFCURVE",
"338 -21 OFFCURVE",
"348 -14 OFFCURVE",
"376 6 OFFCURVE",
"377 7 QCURVE SMOOTH",
"383 11 OFFCURVE",
"413 32 QCURVE",
"418 41 OFFCURVE",
"418 51 QCURVE SMOOTH",
"418 59 OFFCURVE",
"414 59 QCURVE SMOOTH",
"414 59 OFFCURVE",
"410 56 OFFCURVE",
"407 54 OFFCURVE",
"400 50 OFFCURVE",
"394 48 OFFCURVE",
"386 46 OFFCURVE",
"381 46 QCURVE SMOOTH",
"350 46 OFFCURVE",
"350 93 QCURVE SMOOTH",
"350 299 LINE SMOOTH",
"350 356 OFFCURVE",
"285 436 OFFCURVE",
"241 436 QCURVE SMOOTH",
"193 436 OFFCURVE",
"90 383 OFFCURVE",
"59 354 QCURVE",
"57 351 OFFCURVE",
"52 334 OFFCURVE",
"52 330 QCURVE SMOOTH",
"52 314 OFFCURVE",
"71 288 OFFCURVE",
"86 288 QCURVE SMOOTH",
"125 288 OFFCURVE",
"133 336 QCURVE SMOOTH",
"139 368 OFFCURVE",
"163 398 OFFCURVE",
"188 398 QCURVE SMOOTH",
"224 398 OFFCURVE",
"274 338 OFFCURVE",
"274 302 QCURVE SMOOTH",
"274 275 LINE SMOOTH",
"274 262 OFFCURVE",
"270 253 OFFCURVE",
"262 250 QCURVE",
"249 244 OFFCURVE",
"191 223 OFFCURVE",
"104 193 OFFCURVE",
"87 187 QCURVE SMOOTH",
"69 180 OFFCURVE",
"37 136 OFFCURVE",
"37 107 QCURVE SMOOTH",
"37 59 OFFCURVE",
"105 -8 OFFCURVE",
"154 -8 QCURVE SMOOTH",
"177 -8 OFFCURVE",
"263 45 OFFCURVE",
"277 59 QCURVE",
"279 42 OFFCURVE",
"300 9 OFFCURVE",
"313 1 QCURVE"
);
}
);
width = 431;
}
);
leftKerningGroup = a;
note = aogonek;
rightKerningGroup = a;
unicode = 0105;
changeCount = 1;
},
{
glyphname = Eogonek;
lastChange = "2018-03-06 12:35:50 +0000";
layers = (
{
layerId = "A76CE8C3-CC1A-4246-BAA7-4C4431E1D24E";
paths = (
{
closed = 1;
nodes = (
"42 658 OFFCURVE",
"43 637 OFFCURVE",
"46 633 QCURVE",
"61 633 OFFCURVE",
"113 624 OFFCURVE",
"115 617 QCURVE SMOOTH",
"120 601 OFFCURVE",
"120 543 QCURVE SMOOTH",
"120 116 LINE SMOOTH",
"120 58 OFFCURVE",
"115 42 QCURVE SMOOTH",
"113 35 OFFCURVE",
"61 26 OFFCURVE",
"46 26 QCURVE",
"43 22 OFFCURVE",
"42 1 OFFCURVE",
"46 -3 QCURVE",
"64 -3 OFFCURVE",
"140 0 OFFCURVE",
"165 0 QCURVE SMOOTH",
"244 0 OFFCURVE",
"426 -4 OFFCURVE",
"430 -4 QCURVE",
"388 -33 OFFCURVE",
"326 -111 OFFCURVE",
"326 -147 QCURVE SMOOTH",
"326 -163 OFFCURVE",
"337 -196 OFFCURVE",
"371 -224 OFFCURVE",
"397 -224 QCURVE SMOOTH",
"452 -224 OFFCURVE",
"502 -158 QCURVE SMOOTH",
"506 -153 OFFCURVE",
"506 -140 QCURVE SMOOTH",
"506 -137 OFFCURVE",
"505 -130 OFFCURVE",
"503 -127 OFFCURVE",
"502 -127 QCURVE SMOOTH",
"501 -127 OFFCURVE",
"487 -139 OFFCURVE",
"470 -153 OFFCURVE",
"439 -165 OFFCURVE",
"421 -165 QCURVE SMOOTH",
"399 -165 OFFCURVE",
"380 -138 OFFCURVE",
"380 -122 QCURVE SMOOTH",
"380 -88 OFFCURVE",
"464 -4 OFFCURVE",
"506 -4 QCURVE",
"508 12 OFFCURVE",
"522 57 OFFCURVE",
"534 92 OFFCURVE",
"555 149 OFFCURVE",
"560 162 QCURVE",
"554 168 OFFCURVE",
"535 168 QCURVE SMOOTH",
"522 168 OFFCURVE",
"521 162 QCURVE",
"505 121 OFFCURVE",
"479 74 OFFCURVE",
"458 61 QCURVE SMOOTH",
"437 49 OFFCURVE",
"368 34 OFFCURVE",
"332 34 QCURVE SMOOTH",
"284 34 LINE SMOOTH",
"248 34 OFFCURVE",
"222 37 OFFCURVE",
"213 44 QCURVE",
"209 48 OFFCURVE",
"206 96 OFFCURVE",
"207 113 QCURVE SMOOTH",
"207 303 LINE SMOOTH",
"207 305 OFFCURVE",
"213 309 OFFCURVE",
"226 311 OFFCURVE",
"238 312 OFFCURVE",
"258 312 OFFCURVE",
"269 312 OFFCURVE",
"279 312 QCURVE SMOOTH",
"372 312 OFFCURVE",
"385 304 QCURVE SMOOTH",
"392 299 OFFCURVE",
"402 278 OFFCURVE",
"413 238 QCURVE",
"416 230 OFFCURVE",
"429 230 QCURVE SMOOTH",
"441 230 OFFCURVE",
"445 234 QCURVE",
"445 423 LINE",
"440 428 OFFCURVE",
"428 428 QCURVE SMOOTH",
"414 428 OFFCURVE",
"413 421 QCURVE",
"412 418 OFFCURVE",
"411 413 QCURVE",
"407 398 OFFCURVE",
"401 378 OFFCURVE",
"391 363 OFFCURVE",
"380 355 OFFCURVE",
"356 350 OFFCURVE",
"328 349 OFFCURVE",
"303 349 QCURVE SMOOTH",
"250 349 LINE SMOOTH",
"230 349 OFFCURVE",
"206 352 OFFCURVE",
"207 355 QCURVE",
"207 542 LINE",
"206 594 OFFCURVE",
"212 613 QCURVE SMOOTH",
"215 624 OFFCURVE",
"281 624 QCURVE SMOOTH",
"367 624 LINE SMOOTH",
"412 624 OFFCURVE",
"467 586 OFFCURVE",
"483 530 QCURVE",
"484 523 OFFCURVE",
"497 523 QCURVE SMOOTH",
"510 523 OFFCURVE",
"515 528 QCURVE",
"512 540 OFFCURVE",
"490 635 OFFCURVE",
"486 664 QCURVE",
"429 664 OFFCURVE",
"209 657 OFFCURVE",
"164 657 QCURVE SMOOTH",
"148 657 OFFCURVE",
"46 662 QCURVE"
);
}
);
width = 587;
}
);
leftKerningGroup = B;
note = Eogonek;
rightKerningGroup = E;
unicode = 0118;
changeCount = 1;
},
{
glyphname = eogonek;
lastChange = "2018-03-06 12:35:50 +0000";
layers = (
{
layerId = "A76CE8C3-CC1A-4246-BAA7-4C4431E1D24E";
paths = (
{
closed = 1;
nodes = (
"392 87 OFFCURVE",
"392 95 QCURVE SMOOTH",
"392 99 OFFCURVE",
"389 106 OFFCURVE",
"385 109 OFFCURVE",
"384 109 QCURVE",
"369 91 OFFCURVE",
"310 56 OFFCURVE",
"274 56 QCURVE SMOOTH",
"204 56 OFFCURVE",
"109 157 OFFCURVE",
"111 248 QCURVE",
"124 248 OFFCURVE",
"343 254 OFFCURVE",
"363 255 QCURVE",
"377 256 OFFCURVE",
"387 279 OFFCURVE",
"387 302 QCURVE SMOOTH",
"387 316 OFFCURVE",
"379 348 OFFCURVE",
"358 387 OFFCURVE",
"326 417 OFFCURVE",
"271 438 OFFCURVE",
"237 438 QCURVE SMOOTH",
"204 438 OFFCURVE",
"134 401 OFFCURVE",
"77 339 OFFCURVE",
"40 249 OFFCURVE",
"40 200 QCURVE SMOOTH",
"40 111 OFFCURVE",
"153 -8 OFFCURVE",
"240 -8 QCURVE SMOOTH",
"249 -8 OFFCURVE",
"264 -6 QCURVE",
"233 -38 OFFCURVE",
"186 -119 OFFCURVE",
"186 -147 QCURVE SMOOTH",
"186 -163 OFFCURVE",
"197 -196 OFFCURVE",
"231 -224 OFFCURVE",
"257 -224 QCURVE SMOOTH",
"312 -224 OFFCURVE",
"362 -158 QCURVE SMOOTH",
"366 -153 OFFCURVE",
"366 -140 QCURVE SMOOTH",
"366 -137 OFFCURVE",
"365 -130 OFFCURVE",
"363 -127 OFFCURVE",
"362 -127 QCURVE SMOOTH",
"361 -127 OFFCURVE",
"347 -139 OFFCURVE",
"330 -153 OFFCURVE",
"299 -165 OFFCURVE",
"281 -165 QCURVE SMOOTH",
"259 -165 OFFCURVE",
"240 -138 OFFCURVE",
"240 -122 QCURVE SMOOTH",
"240 -83 OFFCURVE",
"292 -14 OFFCURVE",
"338 26 QCURVE SMOOTH",
"373 56 OFFCURVE",
"386 77 QCURVE SMOOTH"
);
},
{
closed = 1;
nodes = (
"242 402 OFFCURVE",
"276 380 OFFCURVE",
"294 348 OFFCURVE",
"303 318 OFFCURVE",
"302 308 QCURVE SMOOTH",
"301 285 OFFCURVE",
"279 285 QCURVE SMOOTH",
"116 285 LINE SMOOTH",
"115 285 OFFCURVE",
"121 309 OFFCURVE",
"135 344 OFFCURVE",
"158 378 OFFCURVE",
"197 402 OFFCURVE",
"220 402 QCURVE SMOOTH"
);
}
);
width = 431;
}
);
leftKerningGroup = e;
note = eogonek;
rightKerningGroup = e;
unicode = 0119;
changeCount = 1;
},
{
glyphname = Iogonek;
lastChange = "2018-03-06 12:35:50 +0000";
layers = (
{
layerId = "A76CE8C3-CC1A-4246-BAA7-4C4431E1D24E";
paths = (
{
closed = 1;
nodes = (
"42 658 OFFCURVE",
"42 646 QCURVE SMOOTH",
"42 633 OFFCURVE",
"46 633 QCURVE SMOOTH",
"59 633 OFFCURVE",
"110 620 OFFCURVE",
"113 612 QCURVE",
"120 585 OFFCURVE",
"120 523 QCURVE SMOOTH",
"120 135 LINE SMOOTH",
"120 73 OFFCURVE",
"113 46 QCURVE",
"110 38 OFFCURVE",
"59 26 OFFCURVE",
"46 26 QCURVE SMOOTH",
"42 26 OFFCURVE",
"42 12 QCURVE SMOOTH",
"42 1 OFFCURVE",
"46 -3 QCURVE",
"62 -3 OFFCURVE",
"109 1 OFFCURVE",
"146 2 OFFCURVE",
"166 2 QCURVE SMOOTH",
"184 2 LINE",
"138 -29 OFFCURVE",
"68 -110 OFFCURVE",
"68 -147 QCURVE SMOOTH",
"68 -163 OFFCURVE",
"79 -196 OFFCURVE",
"113 -224 OFFCURVE",
"139 -224 QCURVE SMOOTH",
"194 -224 OFFCURVE",
"244 -158 QCURVE SMOOTH",
"248 -153 OFFCURVE",
"248 -140 QCURVE SMOOTH",
"248 -137 OFFCURVE",
"247 -130 OFFCURVE",
"245 -127 OFFCURVE",
"244 -127 QCURVE SMOOTH",
"243 -127 OFFCURVE",
"229 -139 OFFCURVE",
"212 -153 OFFCURVE",
"181 -165 OFFCURVE",
"163 -165 QCURVE SMOOTH",
"141 -165 OFFCURVE",
"122 -138 OFFCURVE",
"122 -122 QCURVE SMOOTH",
"122 -92 OFFCURVE",
"189 -24 OFFCURVE",
"229 0 QCURVE",
"237 -1 OFFCURVE",
"282 -3 QCURVE",
"284 3 OFFCURVE",
"284 11 QCURVE SMOOTH",
"284 26 OFFCURVE",
"280 26 QCURVE SMOOTH",
"270 26 OFFCURVE",
"218 39 OFFCURVE",
"216 46 QCURVE SMOOTH",
"207 81 OFFCURVE",
"207 139 QCURVE SMOOTH",
"207 519 LINE SMOOTH",
"207 578 OFFCURVE",
"216 612 QCURVE SMOOTH",
"218 619 OFFCURVE",
"270 633 OFFCURVE",
"280 633 QCURVE SMOOTH",
"284 633 OFFCURVE",
"284 647 QCURVE SMOOTH",
"284 656 OFFCURVE",
"282 662 QCURVE",
"182 657 OFFCURVE",
"166 657 QCURVE SMOOTH",
"146 657 OFFCURVE",
"109 659 OFFCURVE",
"62 662 OFFCURVE",
"46 662 QCURVE"
);
}
);
width = 328;
}
);
leftKerningGroup = B;
note = Iogonek;
rightKerningGroup = H;
unicode = 012E;
changeCount = 1;
},
{
glyphname = dotlessi;
lastChange = "2018-03-06 12:35:50 +0000";
layers = (
{
layerId = "A76CE8C3-CC1A-4246-BAA7-4C4431E1D24E";
paths = (
{
closed = 1;
nodes = (
"182 375 OFFCURVE",
"189 424 QCURVE",
"189 428 OFFCURVE",
"181 440 OFFCURVE",
"178 440 QCURVE",
"120 410 OFFCURVE",
"35 398 QCURVE",
"32 394 OFFCURVE",
"33 374 OFFCURVE",
"35 372 QCURVE",
"43 372 OFFCURVE",
"65 371 OFFCURVE",
"97 362 OFFCURVE",
"100 354 QCURVE SMOOTH",
"105 342 OFFCURVE",
"105 302 QCURVE SMOOTH",
"105 116 LINE SMOOTH",
"104 55 OFFCURVE",
"100 42 QCURVE SMOOTH",
"98 35 OFFCURVE",
"51 26 OFFCURVE",
"37 26 QCURVE",
"34 22 OFFCURVE",
"33 1 OFFCURVE",
"37 -3 QCURVE",
"51 -3 OFFCURVE",
"93 1 OFFCURVE",
"125 2 OFFCURVE",
"143 2 QCURVE SMOOTH",
"147 2 OFFCURVE",
"250 -3 QCURVE",
"253 1 OFFCURVE",
"253 22 OFFCURVE",
"250 26 QCURVE",
"235 26 OFFCURVE",
"189 35 OFFCURVE",
"187 42 QCURVE SMOOTH",
"182 58 OFFCURVE",
"182 116 QCURVE SMOOTH",
"182 325 LINE",
"182 358 LINE SMOOTH"
);
}
);
width = 270;
}
);
leftKerningGroup = i;
note = dotlessi;
rightKerningGroup = i;
unicode = 0131;
changeCount = 1;
},
{
glyphname = kgreenlandic;
lastChange = "2018-03-06 12:35:50 +0000";
layers = (
{
layerId = "A76CE8C3-CC1A-4246-BAA7-4C4431E1D24E";
paths = (
{
closed = 1;
nodes = (
"189 428 OFFCURVE",
"181 440 OFFCURVE",
"178 440 QCURVE",
"120 410 OFFCURVE",
"35 398 QCURVE",
"32 394 OFFCURVE",
"33 374 OFFCURVE",
"35 372 QCURVE",
"43 372 OFFCURVE",
"65 371 OFFCURVE",
"97 362 OFFCURVE",
"100 354 QCURVE SMOOTH",
"105 342 OFFCURVE",
"105 302 QCURVE SMOOTH",
"105 116 LINE SMOOTH",
"104 55 OFFCURVE",
"100 42 QCURVE SMOOTH",
"98 35 OFFCURVE",
"51 26 OFFCURVE",
"37 26 QCURVE",
"34 22 OFFCURVE",
"33 1 OFFCURVE",
"37 -3 QCURVE",
"51 -3 OFFCURVE",
"93 1 OFFCURVE",
"125 2 OFFCURVE",
"143 2 QCURVE SMOOTH",
"147 2 OFFCURVE",
"250 -3 QCURVE",
"253 1 OFFCURVE",
"253 22 OFFCURVE",
"250 26 QCURVE",
"235 26 OFFCURVE",
"189 35 OFFCURVE",
"187 42 QCURVE SMOOTH",
"182 58 OFFCURVE",
"182 116 QCURVE SMOOTH",
"182 204 LINE",
"184 203 LINE",
"187 202 OFFCURVE",
"195 197 OFFCURVE",
"197 195 QCURVE",
"254 133 OFFCURVE",
"340 40 QCURVE SMOOTH",
"354 25 OFFCURVE",
"423 -4 OFFCURVE",
"463 -4 QCURVE SMOOTH",
"514 -4 OFFCURVE",
"528 2 QCURVE",
"530 6 OFFCURVE",
"528 24 OFFCURVE",
"527 26 QCURVE",
"504 25 OFFCURVE",
"453 39 OFFCURVE",
"435 53 QCURVE SMOOTH",
"424 62 OFFCURVE",
"370 121 OFFCURVE",
"283 219 OFFCURVE",
"255 249 QCURVE",
"306 293 OFFCURVE",
"417 373 QCURVE SMOOTH",
"431 383 OFFCURVE",
"480 396 OFFCURVE",
"494 396 QCURVE",
"496 399 OFFCURVE",
"497 421 OFFCURVE",
"494 425 QCURVE",
"457 420 OFFCURVE",
"406 420 QCURVE SMOOTH",
"358 420 OFFCURVE",
"310 425 QCURVE",
"306 424 OFFCURVE",
"304 402 OFFCURVE",
"308 396 QCURVE",
"309 396 OFFCURVE",
"318 395 OFFCURVE",
"325 395 OFFCURVE",
"336 393 OFFCURVE",
"344 391 OFFCURVE",
"352 387 OFFCURVE",
"356 382 OFFCURVE",
"356 376 OFFCURVE",
"347 366 OFFCURVE",
"329 350 OFFCURVE",
"309 334 OFFCURVE",
"276 307 OFFCURVE",
"264 296 QCURVE SMOOTH",
"200 242 OFFCURVE",
"182 235 QCURVE",
"182 358 LINE SMOOTH",
"182 375 OFFCURVE",
"189 424 QCURVE"
);
}
);
width = 533;
}
);
leftKerningGroup = m;
note = kgreenlandic;
rightKerningGroup = k;
unicode = 0138;
changeCount = 1;
},
{
glyphname = Eng;
lastChange = "2018-03-06 12:35:50 +0000";
layers = (
{
layerId = "A76CE8C3-CC1A-4246-BAA7-4C4431E1D24E";
paths = (
{
closed = 1;
nodes = (
"471 -180 OFFCURVE",
"448 -159 QCURVE",
"447 -158 OFFCURVE",
"437 -149 OFFCURVE",
"434 -146 OFFCURVE",
"425 -139 OFFCURVE",
"419 -136 OFFCURVE",
"411 -132 OFFCURVE",
"404 -130 OFFCURVE",
"400 -130 QCURVE SMOOTH",
"377 -130 OFFCURVE",
"352 -162 OFFCURVE",
"352 -186 QCURVE SMOOTH",
"352 -201 OFFCURVE",
"360 -209 QCURVE",
"369 -216 OFFCURVE",
"411 -227 OFFCURVE",
"423 -227 QCURVE SMOOTH",
"475 -227 OFFCURVE",
"559 -188 OFFCURVE",
"623 -107 OFFCURVE",
"657 30 OFFCURVE",
"657 121 QCURVE SMOOTH",
"657 546 LINE SMOOTH",
"657 577 OFFCURVE",
"661 604 OFFCURVE",
"667 614 QCURVE",
"672 622 OFFCURVE",
"731 634 OFFCURVE",
"745 634 QCURVE",
"753 651 OFFCURVE",
"745 663 QCURVE",
"728 663 OFFCURVE",
"690 660 OFFCURVE",
"659 658 OFFCURVE",
"638 658 QCURVE SMOOTH",
"623 658 OFFCURVE",
"523 663 QCURVE",
"521 659 OFFCURVE",
"522 639 OFFCURVE",
"525 634 QCURVE",
"540 634 OFFCURVE",
"597 621 OFFCURVE",
"601 614 QCURVE",
"608 603 OFFCURVE",
"611 576 OFFCURVE",
"611 545 QCURVE SMOOTH",
"611 224 LINE",
"611 166 LINE",
"554 246 OFFCURVE",
"244 623 OFFCURVE",
"219 662 QCURVE",
"191 660 OFFCURVE",
"143 660 QCURVE SMOOTH",
"124 660 OFFCURVE",
"57 665 OFFCURVE",
"41 665 QCURVE",
"34 653 OFFCURVE",
"41 636 QCURVE",
"55 636 OFFCURVE",
"115 624 OFFCURVE",
"119 616 QCURVE",
"126 606 OFFCURVE",
"129 579 OFFCURVE",
"129 548 QCURVE SMOOTH",
"129 114 LINE SMOOTH",
"129 84 OFFCURVE",
"126 57 OFFCURVE",
"119 46 QCURVE",
"115 38 OFFCURVE",
"55 26 OFFCURVE",
"41 26 QCURVE",
"34 10 OFFCURVE",
"41 -3 QCURVE",
"58 -3 OFFCURVE",
"96 1 OFFCURVE",
"128 2 OFFCURVE",
"148 2 QCURVE SMOOTH",
"162 2 OFFCURVE",
"262 -3 QCURVE",
"264 1 OFFCURVE",
"264 21 OFFCURVE",
"260 26 QCURVE",
"246 26 OFFCURVE",
"189 39 OFFCURVE",
"185 46 QCURVE",
"178 57 OFFCURVE",
"175 84 OFFCURVE",
"175 115 QCURVE SMOOTH",
"175 569 LINE",
"596 38 LINE",
"591 -25 OFFCURVE",
"569 -115 OFFCURVE",
"538 -161 OFFCURVE",
"509 -180 OFFCURVE",
"493 -180 QCURVE SMOOTH"
);
}
);
width = 776;
}
);
leftKerningGroup = N;
note = Eng;
rightKerningGroup = N;
unicode = 014A;
changeCount = 1;
},
